<svg xmlns="http://www.w3.org/2000/svg" viewBox="0 0 48 48" id="player">
  <circle cx="43.274" cy="17.473" r="3.976"></circle>
  <path d="M14.63 33.95a10.674 10.674 0 0 0-4.13 2.98 16.085 16.085 0 0 0-2.44 3.43s-1.45-.4-1.94.39c-.59.94.93 4.33 1.65 5.8a1.244 1.244 0 0 0 2.32-.87L9.42 43.2l9.11-7.08 1.27-8.25a15.853 15.853 0 0 1-6.41-1.28zM19.39 8.369C21 8.4 22.338 6.443 22.378 4.34S21.141.781 19.534.75 16.6 2.126 16.557 4.23 17.783 8.338 19.39 8.369z"></path>
  <path d="M37.96,27.31a1.153,1.153,0,0,0-1.16.13L33.77,29.7l-8.64-6.25-5.75-3.03,1.52-3.6-2.07-.75a2.765,2.765,0,0,1,.94-5.36,2.935,2.935,0,0,1,.83.13l.92.29,1.317.739,1.913,1.839-4.6-1.434a1.26,1.26,0,0,0-.809,2.385l5.5,2a2.289,2.289,0,0,0,2.666-3.45l-2.78-4.04s-.45-.159-.839-.288c-.514-.171-1.106-.308-1.106-.308l-.47-.08a3.927,3.927,0,0,1-2.89,1.38h-.07a4.255,4.255,0,0,1-3.51-2.41l-.56-.09-2.8-.23L7.75,9.1,2.31,8.32a1.362,1.362,0,0,0-.43,2.69l5.6,1,4.96-.85.41,8.14s-1.51,2.8-.61,4.38c1.87,3.27,9.72,2.66,9.72,2.66a16.843,16.843,0,0,0,4.19,3.32,48.168,48.168,0,0,0,6.04,2.49c.53.19.75,1.76,1.78,1.78.91,0,3.24-3.13,4.48-4.89A1.163,1.163,0,0,0,37.96,27.31Z"></path>
</svg>
