<svg xmlns="http://www.w3.org/2000/svg" viewBox="0 0 64 64" id="player">
  <path fill="#7f7f7f" d="M35,33l1.8,8.121A8.19,8.19,0,0,1,37,42.9h0a8.2,8.2,0,0,1-3.28,6.56L29,53l4,3,4-2.4A12.363,12.363,0,0,0,43,43h0V39h0a67,67,0,0,1,2,16.246V58h5a141.38,141.38,0,0,0-2.746-27.728L47,29Z"></path>
  <path fill="#2facc9" d="M35,17l-1.529.765a4.467,4.467,0,0,0-2.471,4h0a4.464,4.464,0,0,0,.637,2.3h0A16.59,16.59,0,0,1,34,32.593V34l1.446-.542A38.607,38.607,0,0,1,49,31h0L47,16Z"></path>
  <path fill="#666" d="M44.039,39.579,42.5,36.294l-1.259,10.32a7.716,7.716,0,0,1-1.156,3.217l-1.867,2.926A12.359,12.359,0,0,0,43,43V39a67.067,67.067,0,0,1,1.731,10.276l.3-1.529A13.19,13.19,0,0,0,44.039,39.579Z"></path>
  <path fill="#57d0dd" d="M49,31,47.033,16.247,38,17l-1.529.765a4.468,4.468,0,0,0-1.834,6.3,10.694,10.694,0,0,1,1.888,6.815L40,28.366,38.775,32.38A38.589,38.589,0,0,1,49,31Z"></path>
  <path fill="#7a3c09" d="M30 53l-3 2 1.335 4.674A3.208 3.208 0 0031.419 62h0A2.582 2.582 0 0034 59.419h0a2.6 2.6 0 00-.132-.816L33 56zM45 58l-.976.488A1.854 1.854 0 0043 60.145h0A1.853 1.853 0 0044.854 62H47a3 3 0 003-3V58z"></path>
  <rect width="40.497" height="2" x="7.752" y="12" fill="#b7c0c7" transform="rotate(-20.222 28 13.001)"></rect>
  <path fill="#e5cfb1" d="M37,5h0a13.733,13.733,0,0,1,4,9.671V17H37a7.215,7.215,0,0,1-6.756-4.682L29,9l1-3Z"></path>
  <path fill="#0d87a3" d="M48,5l4.576,3.268A5.791,5.791,0,0,1,55,12.979h0a5.788,5.788,0,0,1-4.97,5.731L41,20l8-6Z"></path>
  <path fill="#0a94bf" d="M34,18.6h0a3.4,3.4,0,0,1,2.506-3.282L45,13V8l4-1,1.623,4.057A5.278,5.278,0,0,1,51,13.015h0a5.274,5.274,0,0,1-2.559,4.521l-4.356,2.613A12.993,12.993,0,0,1,37.4,22h0A3.4,3.4,0,0,1,34,18.6Z"></path>
  <path fill="#c63636" d="M27,7h0a3,3,0,0,0,3,3h3.394A6.737,6.737,0,0,0,39,7h0a5,5,0,0,0-5-5H32A5,5,0,0,0,27,7Z"></path>
  <path fill="#e5cfb1" d="M45,9V6a2,2,0,0,1,2-2h0a2,2,0,0,1,2,2V8Z"></path>
  <path fill="#a81d1d" d="M38.9,6H37.4a13.31,13.31,0,0,0-9,3.529A2.982,2.982,0,0,0,30,10h3.394A6.737,6.737,0,0,0,39,7,4.988,4.988,0,0,0,38.9,6Z"></path>
  <path fill="#9e9e9e" d="M9,20v2a2,2,0,0,0,2,2h0a2,2,0,0,0,2-2V18.526Z"></path>
  <path d="M8.654,19.062A1,1,0,0,0,8,20v2a3,3,0,0,0,6,0V19.224l15.654-5.768a8.173,8.173,0,0,0,3.289,3.461,5.464,5.464,0,0,0-2.164,7.659A15.584,15.584,0,0,1,33,32.593V34a1,1,0,0,0,1,1,1.016,1.016,0,0,0,.351-.063l.051-.02,1.427,6.421A7.2,7.2,0,0,1,33.12,48.66L28.4,52.2a1,1,0,0,0-.4.8.884.884,0,0,0,.027.113l-1.582,1.055a1,1,0,0,0-.406,1.106l1.335,4.674A4.225,4.225,0,0,0,31.419,63a3.581,3.581,0,0,0,3.4-4.714L34.2,56.445l3.309-1.986a13.43,13.43,0,0,0,5.94-7.693A66.041,66.041,0,0,1,44,55.246v2.136l-.423.211A2.854,2.854,0,0,0,44.854,63H47a4,4,0,0,0,4-4V58a142.717,142.717,0,0,0-2.4-25.991c.134,0,.268-.009.4-.009a1,1,0,0,0,.991-1.132L48.533,19.934l1.638-.234A6.789,6.789,0,0,0,53.157,7.455L49.843,5.088A2.991,2.991,0,0,0,44,6v.04L40.108,7.474c-.045-.081-.1-.159-.143-.24A.966.966,0,0,0,40,7a6.006,6.006,0,0,0-6-6H32a6.007,6.007,0,0,0-6,6,4,4,0,0,0,2.579,3.727l.328.873ZM12,22a1,1,0,0,1-2,0V20.7l2-.737Zm33.262-8.036A1,1,0,0,0,46,13V9h0V8.781l2.4-.6,1.3,3.248a4.273,4.273,0,0,1-1.769,5.249l-4.355,2.612A11.991,11.991,0,0,1,37.4,21a2.4,2.4,0,0,1-.632-4.719Zm-14.081-2L30.818,11H33.4A7.716,7.716,0,0,0,38.62,8.966,12.678,12.678,0,0,1,39.9,13.353l-3.659,1a4.369,4.369,0,0,0-1.876,1.061A6.192,6.192,0,0,1,31.181,11.967ZM30.687,9A12.279,12.279,0,0,1,37.4,7h.332A5.715,5.715,0,0,1,33.4,9Zm1.807,14.547a3.466,3.466,0,0,1,.573-4.285A4.4,4.4,0,0,0,37.4,23a13.982,13.982,0,0,0,7.2-1.994l1.906-1.144L47.86,30.017a39.458,39.458,0,0,0-12.765,2.5L35,32.558A17.585,17.585,0,0,0,32.494,23.547ZM31.419,61A2.216,2.216,0,0,1,29.3,59.4l-1.135-3.972,1.274-.85,2.714,2.035.768,2.3A1.581,1.581,0,0,1,31.419,61ZM47,61H44.854a.854.854,0,0,1-.383-1.618L45.236,59H49A2,2,0,0,1,47,61Zm2-4H46V55.246a68.042,68.042,0,0,0-2.03-16.488A1,1,0,0,0,42,39v4a11.42,11.42,0,0,1-5.517,9.744L33.062,54.8,30.667,53l3.653-2.74A9.2,9.2,0,0,0,37.781,40.9L36.3,34.22A37.418,37.418,0,0,1,46.58,32.087,140.719,140.719,0,0,1,49,57Zm5-44.021a4.811,4.811,0,0,1-4.112,4.741l-.039.005a6.244,6.244,0,0,0,1.7-7.038L50.476,8,52,9.082A4.8,4.8,0,0,1,54,12.979ZM47,5a1,1,0,0,1,1,1v.22l-2,.5V6A1,1,0,0,1,47,5ZM44,8.172v4.063l-2.124.58a14.706,14.706,0,0,0-.9-3.528ZM32,3h2a3.987,3.987,0,0,1,3.444,2H37.4a14.275,14.275,0,0,0-9,3.2A1.982,1.982,0,0,1,28,7,4,4,0,0,1,32,3Z"></path>
</svg>
