<svg width="1679" height="2073" viewBox="0 0 1679 2073" fill="none" xmlns="http://www.w3.org/2000/svg">
<rect width="52.4444" height="26.2222" transform="matrix(-1 0 0 1 786.667 394.111)" fill="#E0BB78"/>
<rect x="865.333" y="394.111" width="26.2222" height="26.2222" fill="#E0BB78"/>
<rect width="26.2222" height="26.2222" transform="matrix(-1 0 0 1 839.111 446.556)" fill="#E0BB78"/>
<rect width="26.2222" height="26.2222" transform="matrix(-1 0 0 1 812.889 394.111)" fill="#E0BB78"/>
<rect width="26.2222" height="26.2222" transform="matrix(-1 0 0 1 891.556 394.111)" fill="#E0BB78"/>
<rect x="839.111" y="394.111" width="26.2222" height="26.2222" fill="#C6A366"/>
<rect width="26.2222" height="26.2222" transform="matrix(-1 0 0 1 839.111 394.111)" fill="#E0BB78"/>
<rect width="26.2222" height="26.2222" transform="matrix(-1 0 0 1 865.333 394.111)" fill="#E0BB78"/>
<rect width="26.2222" height="26.2222" transform="matrix(-1 0 0 1 891.556 394.111)" fill="#E0BB78"/>
<rect width="26.2222" height="26.2222" transform="matrix(-1 0 0 1 812.889 394.111)" fill="#E0BB78"/>
<rect width="26.2222" height="26.2222" transform="matrix(-1 0 0 1 839.111 394.111)" fill="#AE8B4A"/>
<rect width="26.2222" height="26.2222" transform="matrix(-1 0 0 1 839.111 420.333)" fill="#C6A366"/>
<rect width="26.2222" height="26.2222" transform="matrix(-1 0 0 1 865.333 420.333)" fill="#E0BB78"/>
<rect width="26.2222" height="26.2222" transform="matrix(-1 0 0 1 1022.67 341.667)" fill="#D9C8A9"/>
<rect width="26.2222" height="26.2222" transform="matrix(-1 0 0 1 970.222 158.111)" fill="#151515"/>
<rect width="26.2222" height="26.2222" transform="matrix(-1 0 0 1 839.111 131.889)" fill="#E0BB78"/>
<rect width="26.2222" height="26.2222" transform="matrix(-1 0 0 1 760.444 341.667)" fill="#E0BB78"/>
<rect width="26.2222" height="26.2222" transform="matrix(-1 0 0 1 760.444 315.444)" fill="#E0BB78"/>
<rect width="26.2222" height="26.2222" transform="matrix(-1 0 0 1 760.444 367.889)" fill="#D1AC68"/>
<rect width="26.2222" height="26.2222" transform="matrix(-1 0 0 1 760.444 289.222)" fill="#E0BB78"/>
<rect width="26.2222" height="26.2222" transform="matrix(-1 0 0 1 786.667 289.222)" fill="#E0BB78"/>
<rect width="26.2222" height="26.2222" transform="matrix(-1 0 0 1 760.444 184.333)" fill="#D1AC68"/>
<rect width="26.2222" height="26.2222" transform="matrix(-1 0 0 1 786.667 158.111)" fill="#E0BB78"/>
<rect width="26.2222" height="26.2222" transform="matrix(-1 0 0 1 812.889 131.889)" fill="#E0BB78"/>
<rect width="26.2222" height="26.2222" transform="matrix(-1 0 0 1 865.333 131.889)" fill="#E0BB78"/>
<rect width="26.2222" height="26.2222" transform="matrix(-1 0 0 1 891.556 131.889)" fill="#E0BB78"/>
<rect width="26.2222" height="26.2222" transform="matrix(-1 0 0 1 917.778 131.889)" fill="#E0BB78"/>
<rect width="26.2222" height="26.2222" transform="matrix(-1 0 0 1 944 131.889)" fill="#E0BB78"/>
<rect width="26.2222" height="26.2222" transform="matrix(-1 0 0 1 970.222 184.333)" fill="#151515"/>
<rect width="26.2222" height="26.2222" transform="matrix(-1 0 0 1 996.444 210.555)" fill="#151515"/>
<rect width="26.2222" height="26.2222" transform="matrix(-1 0 0 1 1022.67 236.778)" fill="#2E2E2E"/>
<rect width="26.2222" height="26.2222" transform="matrix(-1 0 0 1 1048.89 210.555)" fill="#2E2E2E"/>
<rect width="26.2222" height="26.2222" transform="matrix(-1 0 0 1 1075.11 236.778)" fill="#948770"/>
<rect width="26.2222" height="26.2222" transform="matrix(-1 0 0 1 1075.11 263)" fill="#D9C8A9"/>
<rect width="26.2222" height="26.2222" transform="matrix(-1 0 0 1 1075.11 289.222)" fill="#D9C8A9"/>
<rect width="26.2222" height="26.2222" transform="matrix(-1 0 0 1 1048.89 236.778)" fill="#454444"/>
<rect width="26.2222" height="26.2222" transform="matrix(-1 0 0 1 1075.11 79.4443)" fill="#E0BB78"/>
<rect width="26.2222" height="26.2222" transform="matrix(-1 0 0 1 970.222 27)" fill="#E0BB78"/>
<rect width="26.2222" height="26.2222" transform="matrix(-1 0 0 1 970.222 27)" fill="#E0BB78"/>
<rect width="26.2222" height="26.2222" transform="matrix(-1 0 0 1 865.333 27)" fill="#E0BB78"/>
<rect width="26.2222" height="26.2222" transform="matrix(-1 0 0 1 944 27)" fill="#E0BB78"/>
<rect width="26.2222" height="26.2222" transform="matrix(-1 0 0 1 891.556 27)" fill="#E0BB78"/>
<rect width="26.2222" height="26.2222" transform="matrix(-1 0 0 1 917.778 27)" fill="#E0BB78"/>
<rect width="26.2222" height="26.2222" transform="matrix(-1 0 0 1 1022.67 27)" fill="#E0BB78"/>
<rect x="760.444" y="79.4443" width="26.2222" height="26.2222" fill="#E0BB78"/>
<rect x="734.222" y="105.667" width="26.2222" height="26.2222" fill="#E0BB78"/>
<rect x="734.222" y="131.889" width="26.2222" height="26.2222" fill="#E0BB78"/>
<rect x="734.222" y="158.111" width="26.2222" height="26.2222" fill="#E0BB78"/>
<rect x="812.889" y="27" width="26.2222" height="26.2222" fill="#E0BB78"/>
<rect x="786.667" y="53.2222" width="26.2222" height="26.2222" fill="#E0BB78"/>
<rect width="26.2222" height="26.2222" transform="matrix(-1 0 0 1 1075.11 105.667)" fill="#E0BB78"/>
<rect width="26.2222" height="26.2222" transform="matrix(-1 0 0 1 970.222 53.2222)" fill="#E0BB78"/>
<rect width="26.2222" height="26.2222" transform="matrix(-1 0 0 1 970.222 53.2222)" fill="#E0BB78"/>
<rect width="26.2222" height="26.2222" transform="matrix(-1 0 0 1 865.333 53.2222)" fill="#E0BB78"/>
<rect width="26.2222" height="26.2222" transform="matrix(-1 0 0 1 944 53.2222)" fill="#E0BB78"/>
<rect width="26.2222" height="26.2222" transform="matrix(-1 0 0 1 891.556 53.2222)" fill="#E0BB78"/>
<rect width="26.2222" height="26.2222" transform="matrix(-1 0 0 1 917.778 53.2222)" fill="#E0BB78"/>
<rect width="26.2222" height="26.2222" transform="matrix(-1 0 0 1 970.222 105.667)" fill="#E0BB78"/>
<rect width="26.2222" height="26.2222" transform="matrix(-1 0 0 1 996.444 105.667)" fill="#E0BB78"/>
<rect width="26.2222" height="26.2222" transform="matrix(-1 0 0 1 1022.67 105.667)" fill="#E0BB78"/>
<rect width="26.2222" height="26.2222" transform="matrix(-1 0 0 1 970.222 131.889)" fill="#2E2E2E"/>
<rect width="26.2222" height="26.2222" transform="matrix(-1 0 0 1 996.444 131.889)" fill="#2E2E2E"/>
<rect width="26.2222" height="26.2222" transform="matrix(-1 0 0 1 1022.67 131.889)" fill="#E0BB78"/>
<rect width="26.2222" height="26.2222" transform="matrix(-1 0 0 1 996.444 158.111)" fill="#151515"/>
<rect width="26.2222" height="26.2222" transform="matrix(-1 0 0 1 1075.11 158.111)" fill="#151515"/>
<rect width="26.2222" height="26.2222" transform="matrix(-1 0 0 1 1022.67 158.111)" fill="#292929"/>
<rect width="26.2222" height="26.2222" transform="matrix(-1 0 0 1 1048.89 158.111)" fill="#151515"/>
<rect width="26.2222" height="26.2222" transform="matrix(-1 0 0 1 996.444 184.333)" fill="#151515"/>
<rect width="26.2222" height="26.2222" transform="matrix(-1 0 0 1 1075.11 184.333)" fill="#2E2E2E"/>
<rect width="26.2222" height="26.2222" transform="matrix(-1 0 0 1 1075.11 210.555)" fill="#454444"/>
<rect width="26.2222" height="26.2222" transform="matrix(-1 0 0 1 1022.67 184.333)" fill="#151515"/>
<rect width="26.2222" height="26.2222" transform="matrix(-1 0 0 1 1022.67 210.555)" fill="#151515"/>
<rect width="26.2222" height="26.2222" transform="matrix(-1 0 0 1 1048.89 184.333)" fill="#151515"/>
<rect width="26.2222" height="26.2222" transform="matrix(-1 0 0 1 996.444 53.2222)" fill="#E0BB78"/>
<rect width="26.2222" height="26.2222" transform="matrix(-1 0 0 1 1022.67 53.2222)" fill="#E0BB78"/>
<rect width="26.2222" height="26.2222" transform="matrix(-1 0 0 1 1048.89 79.4443)" fill="#E0BB78"/>
<rect width="26.2222" height="26.2222" transform="matrix(-1 0 0 1 1075.11 131.889)" fill="#E0BB78"/>
<rect width="26.2222" height="26.2222" transform="matrix(-1 0 0 1 1048.89 105.667)" fill="#E0BB78"/>
<rect width="26.2222" height="26.2222" transform="matrix(-1 0 0 1 1048.89 131.889)" fill="#E0BB78"/>
<rect x="760.444" y="105.667" width="26.2222" height="26.2222" fill="#E0BB78"/>
<rect x="760.444" y="131.889" width="26.2222" height="26.2222" fill="#E0BB78"/>
<rect x="812.889" y="53.2222" width="26.2222" height="26.2222" fill="#E0BB78"/>
<rect width="26.2222" height="26.2222" transform="matrix(-1 0 0 1 996.444 79.4443)" fill="#E0BB78"/>
<rect width="26.2222" height="26.2222" transform="matrix(-1 0 0 1 996.444 79.4443)" fill="#E0BB78"/>
<rect width="26.2222" height="26.2222" transform="matrix(-1 0 0 1 891.556 79.4443)" fill="#E0BB78"/>
<rect width="26.2222" height="26.2222" transform="matrix(-1 0 0 1 970.222 79.4443)" fill="#E0BB78"/>
<rect width="26.2222" height="26.2222" transform="matrix(-1 0 0 1 917.778 79.4443)" fill="#E0BB78"/>
<rect width="26.2222" height="26.2222" transform="matrix(-1 0 0 1 944 79.4443)" fill="#E0BB78"/>
<rect width="26.2222" height="26.2222" transform="matrix(-1 0 0 1 1022.67 79.4443)" fill="#E0BB78"/>
<rect x="839.111" y="79.4443" width="26.2222" height="26.2222" fill="#E0BB78"/>
<rect x="812.889" y="79.4443" width="26.2222" height="26.2222" fill="#E0BB78"/>
<rect width="26.2222" height="26.2222" transform="matrix(-1 0 0 1 865.333 105.667)" fill="#E0BB78"/>
<rect width="26.2222" height="26.2222" transform="matrix(-1 0 0 1 944 105.667)" fill="#E0BB78"/>
<rect width="26.2222" height="26.2222" transform="matrix(-1 0 0 1 891.556 105.667)" fill="#E0BB78"/>
<rect width="26.2222" height="26.2222" transform="matrix(-1 0 0 1 917.778 105.667)" fill="#E0BB78"/>
<rect x="812.889" y="105.667" width="26.2222" height="26.2222" fill="#E0BB78"/>
<rect x="786.667" y="79.4443" width="26.2222" height="26.2222" fill="#E0BB78"/>
<rect width="26.2222" height="26.2222" transform="matrix(-1 0 0 1 839.111 210.555)" fill="#C0AD89"/>
<rect width="26.2222" height="52.4444" transform="matrix(-1 0 0 1 812.889 210.555)" fill="#E0BB78"/>
<rect width="26.2222" height="26.2222" transform="matrix(-1 0 0 1 865.333 210.555)" fill="#C0AD89"/>
<rect width="26.2222" height="26.2222" transform="matrix(-1 0 0 1 891.556 210.555)" fill="#AAAAAA"/>
<rect width="26.2222" height="52.4444" transform="matrix(-1 0 0 1 917.778 210.555)" fill="#808080"/>
<rect width="26.2222" height="26.2222" transform="matrix(-1 0 0 1 944 210.555)" fill="#2E2E2E"/>
<rect width="26.2222" height="26.2222" transform="matrix(-1 0 0 1 891.556 158.111)" fill="#2E2E2E"/>
<rect width="26.2222" height="26.2222" transform="matrix(-1 0 0 1 917.778 158.111)" fill="#292929"/>
<rect width="26.2222" height="26.2222" transform="matrix(-1 0 0 1 944 158.111)" fill="#151515"/>
<rect x="839.111" y="158.111" width="26.2222" height="26.2222" fill="#808080"/>
<rect x="812.889" y="158.111" width="26.2222" height="26.2222" fill="#808080"/>
<rect x="786.667" y="184.333" width="26.2222" height="26.2222" fill="#E0BB78"/>
<rect width="26.2222" height="26.2222" transform="matrix(-1 0 0 1 865.333 184.333)" fill="#AAAAAA"/>
<rect width="26.2222" height="26.2222" transform="matrix(-1 0 0 1 944 184.333)" fill="#2E2E2E"/>
<rect width="26.2222" height="26.2222" transform="matrix(-1 0 0 1 891.556 184.333)" fill="#808080"/>
<rect width="26.2222" height="26.2222" transform="matrix(-1 0 0 1 917.778 184.333)" fill="#2E2E2E"/>
<rect x="812.889" y="184.333" width="26.2222" height="26.2222" fill="#AAAAAA"/>
<rect width="26.2222" height="26.2222" transform="matrix(-1 0 0 1 839.111 263)" fill="#E0BB78"/>
<rect width="26.2222" height="26.2222" transform="matrix(-1 0 0 1 865.333 263)" fill="#E0BB78"/>
<rect width="26.2222" height="26.2222" transform="matrix(-1 0 0 1 865.333 263)" fill="#BB9147"/>
<rect width="26.2222" height="26.2222" transform="matrix(-1 0 0 1 865.333 236.778)" fill="#F2DAAF"/>
<rect width="26.2222" height="26.2222" transform="matrix(-1 0 0 1 944 236.778)" fill="#808080"/>
<rect width="26.2222" height="26.2222" transform="matrix(-1 0 0 1 891.556 236.778)" fill="#836F4A"/>
<rect width="26.2222" height="26.2222" transform="matrix(-1 0 0 1 970.222 236.778)" fill="#454444"/>
<rect width="26.2222" height="26.2222" transform="matrix(-1 0 0 1 970.222 210.555)" fill="#2E2E2E"/>
<rect width="26.2222" height="26.2222" transform="matrix(-1 0 0 1 996.444 236.778)" fill="#2E2E2E"/>
<rect width="26.2222" height="26.2222" transform="matrix(-1 0 0 1 970.222 289.222)" fill="#948770"/>
<rect width="26.2222" height="26.2222" transform="matrix(-1 0 0 1 996.444 289.222)" fill="#454444"/>
<rect width="26.2222" height="26.2222" transform="matrix(-1 0 0 1 996.444 263)" fill="#454444"/>
<rect width="26.2222" height="26.2222" transform="matrix(-1 0 0 1 970.222 263)" fill="#454444"/>
<rect width="26.2222" height="26.2222" transform="matrix(-1 0 0 1 970.222 315.444)" fill="#D9C8A9"/>
<rect width="26.2222" height="26.2222" transform="matrix(-1 0 0 1 996.444 315.444)" fill="#948770"/>
<rect width="26.2222" height="26.2222" transform="matrix(-1 0 0 1 970.222 367.889)" fill="#F2DAAF"/>
<rect width="26.2222" height="26.2222" transform="matrix(-1 0 0 1 996.444 367.889)" fill="#D9C8A9"/>
<rect width="26.2222" height="26.2222" transform="matrix(-1 0 0 1 996.444 341.667)" fill="#D9C8A9"/>
<rect width="26.2222" height="26.2222" transform="matrix(-1 0 0 1 1022.67 315.444)" fill="#D9C8A9"/>
<rect width="26.2222" height="26.2222" transform="matrix(-1 0 0 1 1048.89 263)" fill="#948770"/>
<rect width="26.2222" height="26.2222" transform="matrix(-1 0 0 1 1048.89 289.222)" fill="#D9C8A9"/>
<rect width="26.2222" height="26.2222" transform="matrix(-1 0 0 1 1048.89 315.444)" fill="#D9C8A9"/>
<rect width="26.2222" height="26.2222" transform="matrix(-1 0 0 1 1022.67 289.222)" fill="#948770"/>
<rect width="26.2222" height="26.2222" transform="matrix(-1 0 0 1 1022.67 263)" fill="#454444"/>
<rect width="26.2222" height="26.2222" transform="matrix(-1 0 0 1 970.222 341.667)" fill="#D9C8A9"/>
<rect x="812.889" y="236.778" width="26.2222" height="26.2222" fill="#E0BB78"/>
<rect width="26.2222" height="26.2222" transform="matrix(-1 0 0 1 839.111 315.444)" fill="#E0BB78"/>
<rect width="26.2222" height="26.2222" transform="matrix(-1 0 0 1 865.333 315.444)" fill="#D7AB5D"/>
<rect width="26.2222" height="104.889" transform="matrix(-1 0 0 1 891.556 236.778)" fill="#D7AB5D"/>
<rect width="26.2222" height="26.2222" transform="matrix(-1 0 0 1 865.333 289.222)" fill="#D7AB5D"/>
<rect width="26.2222" height="26.2222" transform="matrix(-1 0 0 1 865.333 289.222)" fill="#BB9147"/>
<rect x="812.889" y="289.222" width="26.2222" height="26.2222" fill="#D1AC68"/>
<rect width="26.2222" height="26.2222" transform="matrix(-1 0 0 1 839.111 367.889)" fill="#E0BB78"/>
<rect width="26.2222" height="26.2222" transform="matrix(-1 0 0 1 891.556 367.889)" fill="#C6A366"/>
<rect width="26.2222" height="26.2222" transform="matrix(-1 0 0 1 865.333 341.667)" fill="#E0BB78"/>
<rect width="26.2222" height="26.2222" transform="matrix(-1 0 0 1 865.333 341.667)" fill="#AE8B4A"/>
<rect width="26.2222" height="26.2222" transform="matrix(-1 0 0 1 917.778 367.889)" fill="#E0BB78"/>
<rect width="26.2222" height="26.2222" transform="matrix(-1 0 0 1 944 367.889)" fill="#E0BB78"/>
<rect width="26.2222" height="52.4444" transform="matrix(-1 0 0 1 917.778 315.444)" fill="#E0BB78"/>
<rect width="26.2222" height="52.4444" transform="matrix(-1 0 0 1 944 315.444)" fill="#F2DAAF"/>
<rect x="786.667" y="341.667" width="52.4444" height="26.2222" fill="#E0BB78"/>
<rect width="26.2222" height="26.2222" transform="matrix(-1 0 0 1 786.667 367.889)" fill="#E0BB78"/>
<rect width="26.2222" height="26.2222" transform="matrix(-1 0 0 1 812.889 367.889)" fill="#E0BB78"/>
<rect width="26.2222" height="26.2222" transform="matrix(-1 0 0 1 812.889 315.444)" fill="#D1AC68"/>
<rect x="760.444" y="341.667" width="26.2222" height="26.2222" fill="#D1AC68"/>
<rect width="26.2222" height="26.2222" transform="matrix(-1 0 0 1 786.667 210.555)" fill="#E0BB78"/>
<rect width="26.2222" height="26.2222" transform="matrix(-1 0 0 1 786.667 184.333)" fill="#E0BB78"/>
<rect width="26.2222" height="26.2222" transform="matrix(-1 0 0 1 760.444 210.555)" fill="#E0BB78"/>
<rect width="26.2222" height="26.2222" transform="matrix(-1 0 0 1 760.444 263)" fill="#C5994B"/>
<rect x="734.222" y="236.778" width="26.2222" height="26.2222" fill="#E0BB78"/>
<rect x="760.444" y="236.778" width="26.2222" height="26.2222" fill="#E0BB78"/>
<rect x="786.667" y="158.111" width="26.2222" height="26.2222" fill="#AAAAAA"/>
<rect width="26.2222" height="26.2222" transform="matrix(-1 0 0 1 944 289.222)" fill="#D9C8A9"/>
<rect width="26.2222" height="26.2222" transform="matrix(-1 0 0 1 917.778 289.222)" fill="#E0BB78"/>
<rect width="26.2222" height="26.2222" transform="matrix(-1 0 0 1 786.667 289.222)" fill="#E0BB78"/>
<rect width="26.2222" height="26.2222" transform="matrix(-1 0 0 1 812.889 289.222)" fill="#E0BB78"/>
<rect width="26.2222" height="26.2222" transform="matrix(-1 0 0 1 786.667 315.444)" fill="#E0BB78"/>
<rect width="26.2222" height="26.2222" transform="matrix(-1 0 0 1 865.333 367.889)" fill="#AE8B4A"/>
<rect width="26.2222" height="26.2222" transform="matrix(-1 0 0 1 970.222 105.667)" fill="#E0BB78"/>
<rect width="26.2222" height="26.2222" transform="matrix(-1 0 0 1 944 131.889)" fill="#2E2E2E"/>
<rect width="26.2222" height="26.2222" transform="matrix(-1 0 0 1 917.778 131.889)" fill="#E0BB78"/>
<rect width="26.2222" height="26.2222" transform="matrix(-1 0 0 1 891.556 105.667)" fill="#E0BB78"/>
<rect width="26.2222" height="26.2222" transform="matrix(-1 0 0 1 865.333 105.667)" fill="#E0BB78"/>
<rect width="26.2222" height="26.2222" transform="matrix(-1 0 0 1 839.111 105.667)" fill="#E0BB78"/>
<rect width="26.2222" height="26.2222" transform="matrix(-1 0 0 1 1022.67 27)" fill="#E0BB78"/>
<rect width="26.2222" height="26.2222" transform="matrix(-1 0 0 1 996.444 27)" fill="#E0BB78"/>
<rect width="26.2222" height="26.2222" transform="matrix(-1 0 0 1 1022.67 53.2222)" fill="#E0BB78"/>
<rect width="26.2222" height="26.2222" transform="matrix(-1 0 0 1 1048.89 53.2222)" fill="#E0BB78"/>
<rect width="26.2222" height="26.2222" transform="matrix(-1 0 0 1 996.444 79.4443)" fill="#E0BB78"/>
<rect width="52.4444" height="26.2222" transform="matrix(-1 0 0 1 996.444 0.777832)" fill="#E0BB78"/>
<rect width="104.889" height="26.2222" transform="matrix(-1 0 0 1 944 0.777832)" fill="#E0BB78"/>
<rect width="26.2222" height="26.2222" transform="matrix(-1 0 0 1 812.889 131.889)" fill="#E0BB78"/>
<rect width="26.2222" height="26.2222" transform="matrix(-1 0 0 1 786.667 158.111)" fill="#C0AD89"/>
<rect width="26.2222" height="26.2222" transform="matrix(-1 0 0 1 760.444 131.889)" fill="#C0AD89"/>
<rect width="26.2222" height="26.2222" transform="matrix(-1 0 0 1 786.667 105.667)" fill="#E0BB78"/>
<rect width="26.2222" height="26.2222" transform="matrix(-1 0 0 1 760.444 79.4443)" fill="#E0BB78"/>
<rect width="26.2222" height="26.2222" transform="matrix(-1 0 0 1 839.111 0.777832)" fill="#E0BB78"/>
<rect width="26.2222" height="26.2222" transform="matrix(-1 0 0 1 812.889 27)" fill="#E0BB78"/>
<rect width="26.2222" height="26.2222" transform="matrix(-1 0 0 1 970.222 79.4443)" fill="#E0BB78"/>
<rect width="26.2222" height="26.2222" transform="matrix(-1 0 0 1 970.222 79.4443)" fill="#E0BB78"/>
<rect width="52.4444" height="26.2222" transform="matrix(-1 0 0 1 944 105.667)" fill="#E0BB78"/>
<rect width="26.2222" height="26.2222" transform="matrix(-1 0 0 1 865.333 79.4443)" fill="#E0BB78"/>
<rect width="26.2222" height="26.2222" transform="matrix(-1 0 0 1 891.556 79.4443)" fill="#E0BB78"/>
<rect x="760.444" y="79.4443" width="52.4444" height="26.2222" fill="#E0BB78"/>
<rect width="26.2222" height="26.2222" transform="matrix(-1 0 0 1 760.444 79.4443)" fill="#E0BB78"/>
<rect width="26.2222" height="26.2222" transform="matrix(-1 0 0 1 786.667 53.2222)" fill="#E0BB78"/>
<rect width="26.2222" height="26.2222" transform="matrix(-1 0 0 1 970.222 53.2222)" fill="#E0BB78"/>
<rect width="26.2222" height="26.2222" transform="matrix(-1 0 0 1 970.222 53.2222)" fill="#E0BB78"/>
<rect width="26.2222" height="26.2222" transform="matrix(-1 0 0 1 996.444 79.4443)" fill="#E0BB78"/>
<rect width="26.2222" height="26.2222" transform="matrix(-1 0 0 1 944 53.2222)" fill="#E0BB78"/>
<rect width="26.2222" height="26.2222" transform="matrix(-1 0 0 1 865.333 53.2222)" fill="#E0BB78"/>
<rect width="52.4444" height="26.2222" transform="matrix(-1 0 0 1 917.778 53.2222)" fill="#E0BB78"/>
<rect width="52.4444" height="26.2222" transform="matrix(-1 0 0 1 970.222 79.4443)" fill="#E0BB78"/>
<rect width="26.2222" height="26.2222" transform="matrix(-1 0 0 1 917.778 79.4443)" fill="#E0BB78"/>
<rect width="26.2222" height="26.2222" transform="matrix(-1 0 0 1 996.444 53.2222)" fill="#E0BB78"/>
<rect x="786.667" y="53.2222" width="26.2222" height="26.2222" fill="#E0BB78"/>
<rect width="26.2222" height="26.2222" transform="matrix(-1 0 0 1 786.667 53.2222)" fill="#E0BB78"/>
<rect width="26.2222" height="26.2222" transform="matrix(-1 0 0 1 996.444 53.2222)" fill="#E0BB78"/>
<rect width="52.4444" height="26.2222" transform="matrix(-1 0 0 1 839.111 79.4443)" fill="#E0BB78"/>
<rect width="52.4444" height="26.2222" transform="matrix(-1 0 0 1 839.111 53.2222)" fill="#E0BB78"/>
<rect width="26.2222" height="26.2222" transform="matrix(-1 0 0 1 1101.33 131.889)" fill="#E0BB78"/>
<rect width="26.2222" height="26.2222" transform="matrix(-1 0 0 1 1101.33 105.667)" fill="#E0BB78"/>
<rect width="26.2222" height="26.2222" transform="matrix(-1 0 0 1 996.444 79.4443)" fill="#E0BB78"/>
<rect width="52.4444" height="26.2222" transform="matrix(-1 0 0 1 970.222 53.2222)" fill="#E0BB78"/>
<rect x="760.444" y="105.667" width="52.4444" height="26.2222" fill="#E0BB78"/>
<rect x="865.333" y="394.111" width="26.2222" height="26.2222" fill="#E0BB78"/>
<rect width="26.2222" height="26.2222" transform="matrix(-1 0 0 1 917.778 263)" fill="#E0BB78"/>
<rect width="26.2222" height="26.2222" transform="matrix(-1 0 0 1 944 263)" fill="#AAAAAA"/>
<rect width="26.2222" height="26.2222" transform="matrix(-1 0 0 1 812.889 263)" fill="#E0BB78"/>
<rect width="26.2222" height="26.2222" transform="matrix(-1 0 0 1 786.667 263)" fill="#E0BB78"/>
<rect width="26.2222" height="26.2222" transform="matrix(-1 0 0 1 917.778 263)" fill="#E0BB78"/>
<rect x="786.667" y="263" width="26.2222" height="26.2222" fill="#E0BB78"/>
<rect width="26.2222" height="26.2222" transform="matrix(-1 0 0 1 812.889 420.333)" fill="#AE8B4A"/>
<rect width="26.2222" height="26.2222" transform="matrix(-1 0 0 1 891.556 341.667)" fill="#C39B53"/>
<rect width="26.2222" height="104.889" transform="matrix(-1 0 0 1 917.778 236.778)" fill="black" fill-opacity="0.34"/>
<rect x="996.444" y="131.889" width="26.2222" height="26.2222" fill="#BA5632"/>
<rect x="891.556" y="131.889" width="26.2222" height="26.2222" fill="#BA5632"/>
<rect x="865.333" y="131.889" width="26.2222" height="26.2222" fill="#BA5632"/>
<rect x="734.222" y="79.4443" width="26.2222" height="26.2222" fill="#808080"/>
<rect x="839.111" y="27" width="26.2222" height="26.2222" fill="#D66D47"/>
<rect x="839.111" y="27" width="26.2222" height="26.2222" fill="#3F3F3F"/>
<rect x="944" y="27" width="26.2222" height="26.2222" fill="#666666"/>
<rect x="865.333" y="27" width="26.2222" height="26.2222" fill="#3F3F3F"/>
<rect x="917.778" y="27" width="26.2222" height="26.2222" fill="#3F3F3F"/>
<rect x="891.556" y="27" width="26.2222" height="26.2222" fill="#3F3F3F"/>
<rect x="786.667" y="27" width="26.2222" height="26.2222" fill="#D66D47"/>
<rect width="26.2222" height="26.2222" transform="matrix(-1 0 0 1 1048.89 79.4443)" fill="#EA845F"/>
<rect width="26.2222" height="26.2222" transform="matrix(-1 0 0 1 1075.11 105.667)" fill="#151515"/>
<rect width="26.2222" height="26.2222" transform="matrix(-1 0 0 1 1075.11 131.889)" fill="#D66D47"/>
<rect width="26.2222" height="26.2222" transform="matrix(-1 0 0 1 996.444 27)" fill="#666666"/>
<rect width="26.2222" height="26.2222" transform="matrix(-1 0 0 1 1022.67 53.2222)" fill="#EA845F"/>
<rect x="734.222" y="105.667" width="26.2222" height="26.2222" fill="#AAAAAA"/>
<rect x="839.111" y="53.2222" width="26.2222" height="26.2222" fill="#D66D47"/>
<rect x="839.111" y="53.2222" width="26.2222" height="26.2222" fill="#D66D47"/>
<rect x="944" y="53.2222" width="26.2222" height="26.2222" fill="#EA845F"/>
<rect x="865.333" y="53.2222" width="26.2222" height="26.2222" fill="#D66D47"/>
<rect x="917.778" y="53.2222" width="26.2222" height="26.2222" fill="#D66D47"/>
<rect x="891.556" y="53.2222" width="26.2222" height="26.2222" fill="#D66D47"/>
<rect x="839.111" y="105.667" width="26.2222" height="26.2222" fill="#B1B1B1"/>
<rect x="812.889" y="105.667" width="26.2222" height="26.2222" fill="black"/>
<rect x="786.667" y="105.667" width="26.2222" height="26.2222" fill="#2E2E2E"/>
<rect x="839.111" y="131.889" width="26.2222" height="26.2222" fill="#2E2E2E"/>
<rect x="812.889" y="131.889" width="26.2222" height="26.2222" fill="#2E2E2E"/>
<rect x="786.667" y="131.889" width="26.2222" height="26.2222" fill="#808080"/>
<rect x="812.889" y="53.2222" width="26.2222" height="26.2222" fill="#D66D47"/>
<rect x="786.667" y="53.2222" width="26.2222" height="26.2222" fill="#D66D47"/>
<rect x="760.444" y="79.4443" width="26.2222" height="26.2222" fill="#2E2E2E"/>
<rect x="760.444" y="105.667" width="26.2222" height="26.2222" fill="#808080"/>
<rect x="760.444" y="131.889" width="26.2222" height="26.2222" fill="#AAAAAA"/>
<rect width="26.2222" height="26.2222" transform="matrix(-1 0 0 1 1048.89 105.667)" fill="#B1B1B1"/>
<rect width="26.2222" height="26.2222" transform="matrix(-1 0 0 1 1048.89 131.889)" fill="#464646"/>
<rect width="26.2222" height="26.2222" transform="matrix(-1 0 0 1 996.444 53.2222)" fill="#D66D47"/>
<rect x="812.889" y="79.4443" width="26.2222" height="26.2222" fill="#D66D47"/>
<rect x="812.889" y="79.4443" width="26.2222" height="26.2222" fill="#D66D47"/>
<rect x="917.778" y="79.4443" width="26.2222" height="26.2222" fill="#D66D47"/>
<rect x="839.111" y="79.4443" width="26.2222" height="26.2222" fill="#D66D47"/>
<rect x="891.556" y="79.4443" width="26.2222" height="26.2222" fill="#D66D47"/>
<rect x="865.333" y="79.4443" width="26.2222" height="26.2222" fill="#D66D47"/>
<rect x="786.667" y="79.4443" width="26.2222" height="26.2222" fill="#2E2E2E"/>
<rect width="26.2222" height="26.2222" transform="matrix(-1 0 0 1 970.222 79.4443)" fill="#D66D47"/>
<rect width="26.2222" height="26.2222" transform="matrix(-1 0 0 1 996.444 79.4443)" fill="#EA845F"/>
<rect x="944" y="105.667" width="26.2222" height="26.2222" fill="#B1B1B1"/>
<rect x="865.333" y="105.667" width="26.2222" height="26.2222" fill="#B1B1B1"/>
<rect x="917.778" y="105.667" width="26.2222" height="26.2222" fill="#B1B1B1"/>
<rect x="891.556" y="105.667" width="26.2222" height="26.2222" fill="#B1B1B1"/>
<rect width="26.2222" height="26.2222" transform="matrix(-1 0 0 1 996.444 105.667)" fill="#B1B1B1"/>
<rect width="26.2222" height="26.2222" transform="matrix(-1 0 0 1 1022.67 79.4443)" fill="#D66D47"/>
<rect x="839.111" y="105.667" width="26.2222" height="26.2222" fill="#151515"/>
<rect x="865.333" y="131.889" width="26.2222" height="26.2222" fill="black"/>
<rect x="891.556" y="131.889" width="26.2222" height="26.2222" fill="black"/>
<rect x="917.778" y="105.667" width="26.2222" height="26.2222" fill="black"/>
<rect x="944" y="105.667" width="26.2222" height="26.2222" fill="black"/>
<rect x="970.222" y="105.667" width="26.2222" height="26.2222" fill="black"/>
<rect x="786.667" y="27" width="26.2222" height="26.2222" fill="#393939"/>
<rect x="812.889" y="27" width="26.2222" height="26.2222" fill="black"/>
<rect x="786.667" y="53.2222" width="26.2222" height="26.2222" fill="black"/>
<rect x="760.444" y="53.2222" width="26.2222" height="26.2222" fill="black"/>
<rect x="812.889" y="79.4443" width="26.2222" height="26.2222" fill="black"/>
<rect x="812.889" y="0.777832" width="52.4444" height="26.2222" fill="black"/>
<rect x="865.333" y="0.777832" width="104.889" height="26.2222" fill="black"/>
<rect x="996.444" y="131.889" width="26.2222" height="26.2222" fill="black"/>
<rect x="1048.89" y="131.889" width="26.2222" height="26.2222" fill="black"/>
<rect x="1022.67" y="105.667" width="26.2222" height="26.2222" fill="#B1B1B1"/>
<rect x="1048.89" y="79.4443" width="26.2222" height="26.2222" fill="black"/>
<rect x="970.222" y="0.777832" width="26.2222" height="26.2222" fill="black"/>
<rect x="996.444" y="27" width="26.2222" height="26.2222" fill="#151515"/>
<rect x="839.111" y="79.4443" width="26.2222" height="26.2222" fill="#D66D47"/>
<rect x="839.111" y="79.4443" width="26.2222" height="26.2222" fill="#3F3F3F"/>
<rect x="865.333" y="105.667" width="52.4444" height="26.2222" fill="#3F3F3F"/>
<rect x="944" y="79.4443" width="26.2222" height="26.2222" fill="#3F3F3F"/>
<rect x="917.778" y="79.4443" width="26.2222" height="26.2222" fill="#3F3F3F"/>
<rect width="52.4444" height="26.2222" transform="matrix(-1 0 0 1 1048.89 79.4443)" fill="#151515"/>
<rect x="1048.89" y="79.4443" width="26.2222" height="26.2222" fill="#151515"/>
<rect x="1022.67" y="53.2222" width="26.2222" height="26.2222" fill="black"/>
<rect x="839.111" y="53.2222" width="26.2222" height="26.2222" fill="#B9B9B9"/>
<rect x="839.111" y="53.2222" width="26.2222" height="26.2222" fill="#B9B9B9"/>
<rect x="812.889" y="79.4443" width="26.2222" height="26.2222" fill="#B9B9B9"/>
<rect x="865.333" y="53.2222" width="26.2222" height="26.2222" fill="#B9B9B9"/>
<rect x="891.556" y="53.2222" width="52.4444" height="26.2222" fill="#151515"/>
<rect x="839.111" y="79.4443" width="52.4444" height="26.2222" fill="#151515"/>
<rect x="891.556" y="79.4443" width="26.2222" height="26.2222" fill="#151515"/>
<rect x="812.889" y="53.2222" width="26.2222" height="26.2222" fill="#B9B9B9"/>
<rect width="26.2222" height="26.2222" transform="matrix(-1 0 0 1 1022.67 53.2222)" fill="#616161"/>
<rect x="1022.67" y="53.2222" width="26.2222" height="26.2222" fill="#151515"/>
<rect x="812.889" y="53.2222" width="26.2222" height="26.2222" fill="#3F3F3F"/>
<rect x="970.222" y="79.4443" width="52.4444" height="26.2222" fill="#3F3F3F"/>
<rect x="970.222" y="53.2222" width="52.4444" height="26.2222" fill="#666666"/>
<rect x="1075.11" y="131.889" width="26.2222" height="78.6667" fill="#2F2F2F"/>
<rect x="1075.11" y="105.667" width="26.2222" height="26.2222" fill="black"/>
<rect x="812.889" y="79.4443" width="26.2222" height="26.2222" fill="#3F3F3F"/>
<rect x="839.111" y="53.2222" width="52.4444" height="26.2222" fill="#3F3F3F"/>
<rect width="52.4444" height="26.2222" transform="matrix(-1 0 0 1 1048.89 105.667)" fill="#434343"/>
<rect x="944" y="53.2222" width="52.4444" height="26.2222" fill="#151515"/>
<rect width="26.2222" height="26.2222" transform="matrix(-1 0 0 1 760.444 236.778)" fill="#202020"/>
<rect width="52.4444" height="26.2222" transform="matrix(0 -1 -1 0 157.333 1259.44)" fill="#6B7EBA"/>
<rect width="26.2222" height="52.4444" transform="matrix(0 -1 -1 0 183.555 1364.33)" fill="#212121"/>
<rect width="78.6667" height="26.2222" transform="matrix(0 -1 -1 0 104.889 1338.11)" fill="#212121"/>
<rect width="104.889" height="26.2222" transform="matrix(0 -1 -1 0 104.889 1207)" fill="#212121"/>
<rect width="26.2222" height="26.2222" transform="matrix(0 -1 -1 0 209.777 1364.33)" fill="#212121"/>
<rect width="26.2222" height="52.4444" transform="matrix(0 -1 -1 0 157.333 1338.11)" fill="#212121"/>
<rect width="26.2222" height="26.2222" transform="matrix(0 -1 -1 0 183.555 1311.89)" fill="#212121"/>
<rect width="26.2222" height="26.2222" transform="matrix(0 -1 -1 0 209.777 1285.67)" fill="#212121"/>
<rect width="26.2222" height="26.2222" transform="matrix(0 -1 -1 0 157.333 1259.44)" fill="#212121"/>
<rect width="26.2222" height="26.2222" transform="matrix(0 -1 -1 0 183.555 1233.22)" fill="#212121"/>
<rect width="26.2222" height="26.2222" transform="matrix(0 -1 -1 0 157.333 1180.78)" fill="#212121"/>
<rect width="26.2222" height="26.2222" transform="matrix(0 -1 -1 0 183.555 1154.56)" fill="#008FDC"/>
<rect width="52.4444" height="26.2222" transform="matrix(0 -1 -1 0 157.333 1311.89)" fill="#2C4DB3"/>
<rect x="209.777" y="1338.11" width="52.4444" height="26.2222" transform="rotate(180 209.777 1338.11)" fill="#2C4DB3"/>
<rect width="26.2222" height="26.2222" transform="matrix(0 -1 -1 0 183.555 1285.67)" fill="#476EE7"/>
<rect width="26.2222" height="26.2222" transform="matrix(0 -1 -1 0 209.777 1311.89)" fill="#476EE7"/>
<rect width="26.2222" height="26.2222" transform="matrix(0 -1 -1 0 157.333 1233.22)" fill="#476EE7"/>
<rect width="26.2222" height="26.2222" transform="matrix(0 -1 -1 0 157.333 1207)" fill="#2983E4"/>
<rect width="26.2222" height="26.2222" transform="matrix(0 -1 -1 0 157.333 1154.56)" fill="#2983E4"/>
<rect width="26.2222" height="26.2222" transform="matrix(0 -1 -1 0 157.333 1128.33)" fill="#008FDC"/>
<rect width="26.2222" height="26.2222" transform="matrix(0 -1 -1 0 157.333 1102.11)" fill="#27B4FE"/>
<rect width="26.2222" height="26.2222" transform="matrix(0 -1 -1 0 183.555 1259.44)" fill="#5E81EF"/>
<rect width="52.4444" height="26.2222" transform="matrix(0 -1 -1 0 209.777 1259.44)" fill="#5E81EF"/>
<rect width="26.2222" height="26.2222" transform="matrix(0 -1 -1 0 183.555 1180.78)" fill="#008FDC"/>
<rect width="26.2222" height="26.2222" transform="matrix(0 -1 -1 0 183.555 1207)" fill="#428CDC"/>
<rect width="52.4444" height="26.2222" transform="matrix(0 -1 -1 0 131.111 1259.44)" fill="#6B7EBA"/>
<rect width="26.2222" height="52.4444" transform="matrix(0 -1 -1 0 157.333 1364.33)" fill="#212121"/>
<rect width="52.4444" height="26.2222" transform="matrix(0 -1 -1 0 131.111 1311.89)" fill="#2C4DB3"/>
<rect width="26.2222" height="26.2222" transform="matrix(0 -1 -1 0 131.111 1233.22)" fill="#476EE7"/>
<rect width="26.2222" height="26.2222" transform="matrix(0 -1 -1 0 131.111 1259.44)" fill="#476EE7"/>
<rect width="26.2222" height="26.2222" transform="matrix(0 -1 -1 0 131.111 1207)" fill="#2983E4"/>
<rect width="26.2222" height="26.2222" transform="matrix(0 -1 -1 0 131.111 1154.56)" fill="#2983E4"/>
<rect width="26.2222" height="26.2222" transform="matrix(0 -1 -1 0 131.111 1180.78)" fill="#146CC9"/>
<rect width="26.2222" height="26.2222" transform="matrix(0 -1 -1 0 131.111 1128.33)" fill="#008FDC"/>
<rect width="26.2222" height="26.2222" transform="matrix(0 -1 -1 0 131.111 1102.11)" fill="#212121"/>
<rect width="52.4444" height="26.2222" transform="matrix(0 -1 -1 0 104.889 1364.33)" fill="#EDD130"/>
<rect width="26.2222" height="26.2222" transform="matrix(0 -1 -1 0 104.889 1364.33)" fill="#C5AB19"/>
<rect width="26.2222" height="26.2222" transform="matrix(0 -1 -1 0 104.889 1285.67)" fill="#EDD130"/>
<rect width="26.2222" height="26.2222" transform="matrix(0 -1 -1 0 104.889 1180.78)" fill="#EDD130"/>
<rect width="26.2222" height="26.2222" transform="matrix(0 -1 -1 0 104.889 1128.33)" fill="#EDD130"/>
<rect width="26.2222" height="26.2222" transform="matrix(0 -1 -1 0 104.889 1128.33)" fill="#212121"/>
<rect width="52.4444" height="26.2222" transform="matrix(0 -1 -1 0 131.111 1311.89)" fill="#212121"/>
<rect width="26.2222" height="26.2222" transform="matrix(0 -1 -1 0 131.111 1207)" fill="#212121"/>
<rect width="236" height="131.111" transform="matrix(-1 0 0 1 734.222 1311.89)" fill="#191919"/>
<rect width="367.111" height="104.889" transform="matrix(-1 0 0 1 708 1285.67)" fill="#191919"/>
<rect width="209.778" height="104.889" transform="matrix(-1 0 0 1 445.778 1259.44)" fill="#191919"/>
<rect width="26.2222" height="78.6667" transform="matrix(-1 0 0 1 236 1259.44)" fill="#696969"/>
<rect width="104.889" height="26.2222" transform="matrix(-1 0 0 1 498.222 1390.56)" fill="#191919"/>
<rect width="209.778" height="52.4444" transform="matrix(-1 0 0 1 655.556 1233.22)" fill="#191919"/>
<rect width="104.889" height="52.4444" transform="matrix(-1 0 0 1 576.889 1207)" fill="#191919"/>
<rect width="131.111" height="26.2222" transform="matrix(-1 0 0 1 629.333 1259.44)" fill="#191919"/>
<rect width="26.2222" height="26.2222" transform="matrix(-1 0 0 1 236 997.222)" fill="#FFE347"/>
<rect width="26.2222" height="26.2222" transform="matrix(-1 0 0 1 52.4448 1075.89)" fill="#FFE347"/>
<rect width="26.2222" height="26.2222" transform="matrix(-1 0 0 1 26.2222 1049.67)" fill="#FFE347"/>
<rect width="26.2222" height="26.2222" transform="matrix(-1 0 0 1 209.777 1023.44)" fill="#FFE347"/>
<rect width="26.2222" height="26.2222" transform="matrix(-1 0 0 1 104.889 997.222)" fill="#FFE347"/>
<rect width="26.2222" height="26.2222" transform="matrix(-1 0 0 1 78.6665 971)" fill="#FFE347"/>
<rect x="576.889" y="813.667" width="209.778" height="26.2222" fill="#242424"/>
<rect x="576.889" y="735" width="209.778" height="26.2222" fill="#333333"/>
<rect x="576.889" y="761.222" width="209.778" height="26.2222" fill="#4B4B4B"/>
<rect x="576.889" y="761.222" width="209.778" height="26.2222" fill="#4B4B4B"/>
<rect x="576.889" y="787.444" width="209.778" height="26.2222" fill="#2E2E2E"/>
<rect x="734.222" y="551.444" width="52.4444" height="26.2222" fill="black"/>
<rect x="708" y="577.667" width="26.2222" height="26.2222" fill="black"/>
<rect x="708" y="577.667" width="26.2222" height="26.2222" fill="black"/>
<rect x="655.556" y="630.111" width="26.2222" height="26.2222" fill="black"/>
<rect x="681.777" y="656.333" width="26.2222" height="26.2222" fill="black"/>
<rect x="655.556" y="682.556" width="26.2222" height="26.2222" fill="black"/>
<rect x="655.556" y="682.556" width="26.2222" height="26.2222" fill="black"/>
<rect x="629.333" y="656.333" width="26.2222" height="26.2222" fill="black"/>
<rect x="603.111" y="682.556" width="26.2222" height="26.2222" fill="black"/>
<rect x="576.889" y="708.778" width="26.2222" height="52.4444" fill="black"/>
<rect x="550.667" y="761.222" width="26.2222" height="78.6667" fill="black"/>
<rect x="576.889" y="839.889" width="26.2222" height="26.2222" fill="black"/>
<rect x="603.111" y="866.111" width="104.889" height="26.2222" fill="black"/>
<rect x="681.777" y="839.889" width="104.889" height="26.2222" fill="black"/>
<rect x="603.111" y="839.889" width="104.889" height="26.2222" fill="#323232"/>
<rect x="708" y="708.778" width="78.6667" height="26.2222" fill="#111111"/>
<rect x="629.333" y="682.556" width="157.333" height="26.2222" fill="#1E1E1E"/>
<rect x="603.111" y="708.778" width="104.889" height="26.2222" fill="#1E1E1E"/>
<rect x="681.777" y="682.556" width="26.2222" height="26.2222" fill="#1E1E1E"/>
<rect x="734.222" y="577.667" width="52.4444" height="104.889" fill="#262626"/>
<rect x="681.777" y="603.889" width="52.4444" height="78.6667" fill="#262626"/>
<rect x="655.556" y="656.333" width="131.111" height="26.2222" fill="#242424"/>
<rect x="734.222" y="577.667" width="52.4444" height="26.2222" fill="#333333"/>
<rect x="708" y="603.889" width="78.6667" height="26.2222" fill="#4B4B4B"/>
<rect x="708" y="603.889" width="78.6667" height="26.2222" fill="#4B4B4B"/>
<rect x="681.777" y="630.111" width="104.889" height="26.2222" fill="#2E2E2E"/>
<rect x="655.556" y="656.333" width="26.2222" height="26.2222" fill="#262626"/>
<rect width="26.2222" height="26.2222" transform="matrix(-1 0 0 1 1153.78 1652.78)" fill="black"/>
<rect width="26.2222" height="26.2222" transform="matrix(-1 0 0 1 1180 1652.78)" fill="black"/>
<rect width="104.889" height="26.2222" transform="matrix(-1 0 0 1 1337.33 1679)" fill="black"/>
<rect width="104.889" height="26.2222" transform="matrix(-1 0 0 1 1337.33 1652.78)" fill="black"/>
<rect width="26.2222" height="26.2222" transform="matrix(-1 0 0 1 1232.44 1679)" fill="black"/>
<rect width="26.2222" height="26.2222" transform="matrix(-1 0 0 1 1232.44 1652.78)" fill="black"/>
<rect width="26.2222" height="26.2222" transform="matrix(-1 0 0 1 1206.22 1679)" fill="black"/>
<rect width="26.2222" height="26.2222" transform="matrix(-1 0 0 1 1180 1679)" fill="black"/>
<rect width="26.2222" height="26.2222" transform="matrix(-1 0 0 1 1153.78 1679)" fill="black"/>
<rect width="26.2222" height="26.2222" transform="matrix(-1 0 0 1 1206.22 1652.78)" fill="black"/>
<rect width="26.2222" height="26.2222" transform="matrix(-1 0 0 1 1127.56 1679)" fill="black"/>
<rect width="26.2222" height="26.2222" transform="matrix(-1 0 0 1 1127.56 1652.78)" fill="black"/>
<rect width="104.889" height="52.4444" transform="matrix(-1 0 0 1 1337.33 1574.11)" fill="black"/>
<rect width="26.2222" height="52.4444" transform="matrix(-1 0 0 1 1232.44 1574.11)" fill="black"/>
<rect width="26.2222" height="52.4444" transform="matrix(-1 0 0 1 1206.22 1574.11)" fill="black"/>
<rect width="26.2222" height="52.4444" transform="matrix(-1 0 0 1 1180 1574.11)" fill="black"/>
<rect width="104.889" height="52.4444" transform="matrix(-1 0 0 1 1337.33 1574.11)" fill="black"/>
<rect width="26.2222" height="52.4444" transform="matrix(-1 0 0 1 1232.44 1574.11)" fill="black"/>
<rect width="26.2222" height="52.4444" transform="matrix(-1 0 0 1 1206.22 1574.11)" fill="black"/>
<rect width="26.2222" height="52.4444" transform="matrix(-1 0 0 1 1180 1574.11)" fill="black"/>
<rect width="26.2222" height="52.4444" transform="matrix(-1 0 0 1 1153.78 1574.11)" fill="black"/>
<rect width="52.4444" height="52.4444" transform="matrix(-1 0 0 1 1127.56 1574.11)" fill="black"/>
<rect width="26.2222" height="52.4444" transform="matrix(-1 0 0 1 1075.11 1574.11)" fill="black"/>
<rect width="52.4444" height="52.4444" transform="matrix(-1 0 0 1 1048.89 1574.11)" fill="black"/>
<rect width="26.2222" height="52.4444" transform="matrix(-1 0 0 1 1153.78 1574.11)" fill="black"/>
<rect width="52.4444" height="52.4444" transform="matrix(-1 0 0 1 1127.56 1574.11)" fill="black"/>
<rect width="26.2222" height="52.4444" transform="matrix(-1 0 0 1 1075.11 1574.11)" fill="black"/>
<rect width="52.4444" height="52.4444" transform="matrix(-1 0 0 1 1048.89 1574.11)" fill="black"/>
<rect width="104.889" height="26.2222" transform="matrix(-1 0 0 1 1337.33 1626.56)" fill="black"/>
<rect width="26.2222" height="26.2222" transform="matrix(-1 0 0 1 1232.44 1626.56)" fill="black"/>
<rect width="26.2222" height="26.2222" transform="matrix(-1 0 0 1 1206.22 1626.56)" fill="black"/>
<rect width="26.2222" height="26.2222" transform="matrix(-1 0 0 1 1180 1626.56)" fill="black"/>
<rect width="104.889" height="78.6667" transform="matrix(-1 0 0 1 1337.33 1574.11)" fill="black"/>
<rect width="26.2222" height="26.2222" transform="matrix(-1 0 0 1 1232.44 1626.56)" fill="black"/>
<rect width="26.2222" height="26.2222" transform="matrix(-1 0 0 1 1206.22 1626.56)" fill="black"/>
<rect width="26.2222" height="26.2222" transform="matrix(-1 0 0 1 1180 1626.56)" fill="black"/>
<rect width="26.2222" height="26.2222" transform="matrix(-1 0 0 1 1153.78 1626.56)" fill="black"/>
<rect width="26.2222" height="26.2222" transform="matrix(-1 0 0 1 1127.56 1626.56)" fill="black"/>
<rect width="26.2222" height="26.2222" transform="matrix(-1 0 0 1 1101.33 1626.56)" fill="black"/>
<rect width="26.2222" height="26.2222" transform="matrix(-1 0 0 1 1075.11 1626.56)" fill="black"/>
<rect width="26.2222" height="26.2222" transform="matrix(-1 0 0 1 1153.78 1626.56)" fill="black"/>
<rect width="26.2222" height="26.2222" transform="matrix(-1 0 0 1 1127.56 1626.56)" fill="black"/>
<rect width="26.2222" height="26.2222" transform="matrix(-1 0 0 1 1101.33 1626.56)" fill="black"/>
<rect width="26.2222" height="26.2222" transform="matrix(-1 0 0 1 1075.11 1626.56)" fill="black"/>
<rect x="1075.11" y="1652.78" width="26.2222" height="52.4444" fill="black"/>
<rect x="1101.33" y="1705.22" width="26.2222" height="26.2222" fill="black"/>
<rect x="1127.56" y="1705.22" width="26.2222" height="26.2222" fill="black"/>
<rect x="1153.78" y="1705.22" width="26.2222" height="26.2222" fill="black"/>
<rect x="1180" y="1705.22" width="26.2222" height="26.2222" fill="black"/>
<rect x="1206.22" y="1705.22" width="26.2222" height="26.2222" fill="black"/>
<rect x="1232.44" y="1705.22" width="104.889" height="26.2222" fill="black"/>
<rect x="1075.11" y="1679" width="26.2222" height="52.4444" fill="black"/>
<rect x="1101.33" y="1731.44" width="26.2222" height="26.2222" fill="black"/>
<rect x="1127.56" y="1731.44" width="26.2222" height="26.2222" fill="black"/>
<rect x="1153.78" y="1731.44" width="26.2222" height="26.2222" fill="black"/>
<rect x="1180" y="1731.44" width="26.2222" height="26.2222" fill="black"/>
<rect x="1206.22" y="1731.44" width="183.556" height="26.2222" fill="black"/>
<rect width="26.2222" height="26.2222" transform="matrix(-1 0 0 1 1416 1731.44)" fill="black"/>
<rect width="78.6667" height="26.2222" transform="matrix(-1 0 0 1 1416 1705.22)" fill="black"/>
<rect width="157.333" height="26.2222" transform="matrix(-1 0 0 1 1389.78 1783.89)" fill="black"/>
<rect width="26.2222" height="78.6667" transform="matrix(-1 0 0 1 1363.56 1547.89)" fill="black"/>
<rect width="183.556" height="26.2222" transform="matrix(-1 0 0 1 1389.78 1757.67)" fill="black"/>
<rect width="26.2222" height="26.2222" transform="matrix(-1 0 0 1 1206.22 1757.67)" fill="black"/>
<rect width="26.2222" height="26.2222" transform="matrix(-1 0 0 1 1180 1757.67)" fill="black"/>
<rect width="26.2222" height="26.2222" transform="matrix(-1 0 0 1 1363.56 1626.56)" fill="black"/>
<rect width="183.556" height="26.2222" transform="matrix(-1 0 0 1 1389.78 1757.67)" fill="black"/>
<rect width="26.2222" height="26.2222" transform="matrix(-1 0 0 1 1206.22 1757.67)" fill="black"/>
<rect width="26.2222" height="26.2222" transform="matrix(-1 0 0 1 1180 1757.67)" fill="black"/>
<rect width="52.4444" height="78.6667" transform="matrix(-1 0 0 1 1389.78 1600.33)" fill="black"/>
<rect width="26.2222" height="26.2222" transform="matrix(-1 0 0 1 1232.44 1783.89)" fill="black"/>
<rect width="52.4444" height="26.2222" transform="matrix(-1 0 0 1 1389.78 1679)" fill="black"/>
<rect width="26.2222" height="26.2222" transform="matrix(-1 0 0 1 1232.44 1783.89)" fill="black"/>
<rect x="1258.67" y="1810.11" width="131.111" height="26.2222" fill="black"/>
<rect x="1389.78" y="1757.67" width="52.4444" height="78.6667" fill="black"/>
<rect x="1284.89" y="1836.33" width="183.556" height="26.2222" fill="black"/>
<rect x="1468.44" y="1836.33" width="52.4444" height="26.2222" fill="black"/>
<rect width="78.6667" height="26.2222" transform="matrix(-1 0 0 1 1547.11 1862.56)" fill="black"/>
<rect width="52.4444" height="26.2222" transform="matrix(-1 0 0 1 1337.33 1862.56)" fill="black"/>
<rect x="1337.33" y="1862.56" width="131.111" height="26.2222" fill="black"/>
<rect x="1416" y="1915" width="104.889" height="26.2222" fill="#1A1A1A"/>
<rect x="1337.33" y="1888.78" width="78.6667" height="26.2222" fill="black"/>
<rect x="996.444" y="1574.11" width="52.4444" height="78.6667" fill="black"/>
<rect width="26.2222" height="52.4444" transform="matrix(-1 0 0 1 1048.89 1652.78)" fill="#1A1A1A"/>
<rect width="26.2222" height="52.4444" transform="matrix(-1 0 0 1 1075.11 1652.78)" fill="black"/>
<rect width="131.111" height="26.2222" transform="matrix(-1 0 0 1 1573.33 1888.78)" fill="black"/>
<rect width="26.2222" height="26.2222" transform="matrix(-1 0 0 1 1442.22 1888.78)" fill="black"/>
<rect width="52.4444" height="26.2222" transform="matrix(-1 0 0 1 1153.78 1626.56)" fill="black"/>
<rect width="52.4444" height="26.2222" transform="matrix(-1 0 0 1 1153.78 1626.56)" fill="black"/>
<path d="M1075.11 1626.56H1101.33V1652.78H1075.11V1626.56Z" fill="black"/>
<rect width="26.2222" height="26.2222" transform="matrix(-1 0 0 1 1075.11 1626.56)" fill="black"/>
<rect width="26.2222" height="26.2222" transform="matrix(-1 0 0 1 1075.11 1626.56)" fill="black"/>
<rect width="26.2222" height="26.2222" transform="matrix(-1 0 0 1 1075.11 1626.56)" fill="black"/>
<rect width="26.2222" height="26.2222" transform="matrix(-1 0 0 1 1075.11 1626.56)" fill="black"/>
<rect width="26.2222" height="26.2222" transform="matrix(-1 0 0 1 1075.11 315.445)" fill="#F2DAAF"/>
<rect width="26.2222" height="26.2222" transform="matrix(-1 0 0 1 891.555 341.667)" fill="#E0BB78"/>
<rect width="52.4444" height="26.2222" transform="matrix(-1 0 0 1 917.777 341.667)" fill="#E0BB78"/>
<rect width="26.2222" height="26.2222" transform="matrix(-1 0 0 1 944 341.667)" fill="#E0BB78"/>
<rect width="26.2222" height="26.2222" transform="matrix(-1 0 0 1 970.222 341.667)" fill="#E0BB78"/>
<rect width="26.2222" height="26.2222" transform="matrix(-1 0 0 1 996.444 315.445)" fill="black"/>
<rect width="26.2222" height="26.2222" transform="matrix(-1 0 0 1 1048.89 341.667)" fill="#E0BB78"/>
<rect width="26.2222" height="26.2222" transform="matrix(-1 0 0 1 1048.89 315.445)" fill="#E0BB78"/>
<rect width="26.2222" height="26.2222" transform="matrix(-1 0 0 1 996.444 341.667)" fill="#E0BB78"/>
<rect width="26.2222" height="26.2222" transform="matrix(-1 0 0 1 996.444 315.445)" fill="#E0BB78"/>
<rect width="26.2222" height="26.2222" transform="matrix(-1 0 0 1 1022.67 341.667)" fill="#E0BB78"/>
<rect width="26.2222" height="26.2222" transform="matrix(-1 0 0 1 1022.67 315.445)" fill="#E0BB78"/>
<rect width="26.2222" height="26.2222" transform="matrix(-1 0 0 1 970.222 341.667)" fill="#E0BB78"/>
<rect width="26.2222" height="26.2222" transform="matrix(-1 0 0 1 970.222 341.667)" fill="#E0BB78"/>
<rect width="26.2222" height="26.2222" transform="matrix(-1 0 0 1 1075.11 341.667)" fill="#E0BB78"/>
<rect width="26.2222" height="26.2222" transform="matrix(-1 0 0 1 1022.67 315.445)" fill="black"/>
<rect width="26.2222" height="26.2222" transform="matrix(-1 0 0 1 970.222 1469.22)" fill="#D9D9D9"/>
<rect width="26.2222" height="26.2222" transform="matrix(-1 0 0 1 970.222 1469.22)" fill="#313131"/>
<rect width="26.2222" height="52.4444" transform="matrix(-1 0 0 1 996.444 1521.67)" fill="#1A1A1A"/>
<rect width="26.2222" height="26.2222" transform="matrix(-1 0 0 1 1232.44 1469.22)" fill="#D9D9D9"/>
<rect width="26.2222" height="26.2222" transform="matrix(-1 0 0 1 1206.22 1469.22)" fill="#D9D9D9"/>
<rect width="26.2222" height="26.2222" transform="matrix(-1 0 0 1 1232.44 1469.22)" fill="#3E3E3E"/>
<rect width="26.2222" height="26.2222" transform="matrix(-1 0 0 1 1206.22 1469.22)" fill="#1C1C1C"/>
<rect width="26.2222" height="26.2222" transform="matrix(-1 0 0 1 1258.67 1469.22)" fill="#D9D9D9"/>
<rect width="26.2222" height="26.2222" transform="matrix(-1 0 0 1 1258.67 1469.22)" fill="#3E3E3E"/>
<rect width="26.2222" height="26.2222" transform="matrix(-1 0 0 1 1180 1469.22)" fill="#D9D9D9"/>
<rect width="26.2222" height="26.2222" transform="matrix(-1 0 0 1 1153.78 1469.22)" fill="#D9D9D9"/>
<rect width="26.2222" height="26.2222" transform="matrix(-1 0 0 1 1127.56 1469.22)" fill="#D9D9D9"/>
<rect width="26.2222" height="26.2222" transform="matrix(-1 0 0 1 1180 1469.22)" fill="#3E3E3E"/>
<rect width="26.2222" height="26.2222" transform="matrix(-1 0 0 1 1153.78 1469.22)" fill="#3E3E3E"/>
<rect width="26.2222" height="26.2222" transform="matrix(-1 0 0 1 1127.56 1469.22)" fill="#1C1C1C"/>
<rect width="26.2222" height="26.2222" transform="matrix(-1 0 0 1 1337.33 1469.22)" fill="#D9D9D9"/>
<rect width="26.2222" height="26.2222" transform="matrix(-1 0 0 1 1311.11 1469.22)" fill="#D9D9D9"/>
<rect width="26.2222" height="26.2222" transform="matrix(-1 0 0 1 1284.89 1469.22)" fill="#D9D9D9"/>
<rect width="26.2222" height="26.2222" transform="matrix(-1 0 0 1 1337.33 1469.22)" fill="#121212"/>
<rect width="26.2222" height="26.2222" transform="matrix(-1 0 0 1 1311.11 1469.22)" fill="#313131"/>
<rect width="26.2222" height="26.2222" transform="matrix(-1 0 0 1 1284.89 1469.22)" fill="black"/>
<rect width="26.2222" height="26.2222" transform="matrix(-1 0 0 1 1337.33 1469.22)" fill="black"/>
<rect width="26.2222" height="26.2222" transform="matrix(-1 0 0 1 1311.11 1469.22)" fill="black"/>
<rect width="26.2222" height="52.4444" transform="matrix(-1 0 0 1 996.444 551.444)" fill="#161616"/>
<rect width="236" height="288.444" transform="matrix(-1 0 0 1 970.222 551.444)" fill="#262626"/>
<rect width="236" height="52.4444" transform="matrix(-1 0 0 1 996.444 499)" fill="#262626"/>
<rect width="131.111" height="26.2213" transform="matrix(-1 0 0 1 996.444 499)" fill="#121212"/>
<rect width="131.111" height="26.2213" transform="matrix(-1 0 0 1 996.444 656.333)" fill="black"/>
<rect width="131.111" height="26.2213" transform="matrix(-1 0 0 1 996.444 525.226)" fill="#242424"/>
<rect width="131.111" height="26.2213" transform="matrix(-1 0 0 1 996.444 630.108)" fill="#242424"/>
<rect width="131.111" height="26.2213" transform="matrix(-1 0 0 1 996.444 551.448)" fill="#333333"/>
<rect width="131.111" height="26.2213" transform="matrix(-1 0 0 1 996.444 577.673)" fill="#4B4B4B"/>
<rect width="131.111" height="26.2213" transform="matrix(-1 0 0 1 996.444 577.673)" fill="#4B4B4B"/>
<rect width="131.111" height="26.2213" transform="matrix(-1 0 0 1 996.444 603.889)" fill="#2E2E2E"/>
<rect width="131.111" height="26.2213" transform="matrix(-1 0 0 1 996.444 656.333)" fill="black"/>
<rect width="104.889" height="26.2213" transform="matrix(-1 0 0 1 865.333 499)" fill="#121212"/>
<rect width="104.889" height="26.2213" transform="matrix(-1 0 0 1 865.333 656.333)" fill="black"/>
<rect width="104.889" height="26.2213" transform="matrix(-1 0 0 1 865.333 525.225)" fill="#242424"/>
<rect width="104.889" height="26.2213" transform="matrix(-1 0 0 1 865.333 630.108)" fill="#242424"/>
<rect width="104.889" height="26.2213" transform="matrix(-1 0 0 1 865.333 551.448)" fill="#333333"/>
<rect width="104.889" height="26.2213" transform="matrix(-1 0 0 1 865.333 577.673)" fill="#4B4B4B"/>
<rect width="104.889" height="26.2213" transform="matrix(-1 0 0 1 865.333 577.673)" fill="#4B4B4B"/>
<rect width="104.889" height="26.2213" transform="matrix(-1 0 0 1 865.333 603.889)" fill="#2E2E2E"/>
<rect width="104.889" height="26.2213" transform="matrix(-1 0 0 1 865.333 656.333)" fill="black"/>
<rect width="209.778" height="157.333" transform="matrix(-1 0 0 1 1258.67 682.556)" fill="#262626"/>
<rect width="104.888" height="26.1556" transform="matrix(-1 0 0 1 996.444 970.731)" fill="black"/>
<rect width="104.888" height="26.1556" transform="matrix(-1 0 0 1 996.444 944.576)" fill="#242424"/>
<rect width="104.888" height="26.1556" transform="matrix(-1 0 0 1 996.444 866.111)" fill="#333333"/>
<rect width="104.888" height="26.1556" transform="matrix(-1 0 0 1 996.444 892.266)" fill="#4B4B4B"/>
<rect width="104.888" height="26.1556" transform="matrix(-1 0 0 1 996.444 892.266)" fill="#4B4B4B"/>
<rect width="104.888" height="26.1556" transform="matrix(-1 0 0 1 996.444 918.421)" fill="#2E2E2E"/>
<rect width="104.888" height="26.1556" transform="matrix(-1 0 0 1 996.444 970.731)" fill="black"/>
<rect width="157.335" height="26.2226" transform="matrix(-1 0 0 1 891.555 944.778)" fill="black"/>
<rect width="157.335" height="26.2226" transform="matrix(-1 0 0 1 891.555 918.555)" fill="#242424"/>
<rect width="157.335" height="26.2226" transform="matrix(-1 0 0 1 891.555 839.889)" fill="#333333"/>
<rect width="157.335" height="26.2226" transform="matrix(-1 0 0 1 891.555 866.111)" fill="#4B4B4B"/>
<rect width="157.335" height="26.2226" transform="matrix(-1 0 0 1 891.555 866.111)" fill="#4B4B4B"/>
<rect width="157.335" height="26.2226" transform="matrix(-1 0 0 1 891.555 892.333)" fill="#2E2E2E"/>
<rect width="157.335" height="26.2226" transform="matrix(-1 0 0 1 891.555 944.778)" fill="black"/>
<rect width="131.111" height="26.2226" transform="matrix(-1 0 0 1 1311.11 918.556)" fill="black"/>
<rect width="131.111" height="26.2226" transform="matrix(-1 0 0 1 1311.11 892.333)" fill="#242424"/>
<rect width="131.111" height="26.2226" transform="matrix(-1 0 0 1 1311.11 813.667)" fill="#333333"/>
<rect width="131.111" height="26.2226" transform="matrix(-1 0 0 1 1311.11 839.889)" fill="#4B4B4B"/>
<rect width="131.111" height="26.2226" transform="matrix(-1 0 0 1 1311.11 839.889)" fill="#4B4B4B"/>
<rect width="131.111" height="26.2226" transform="matrix(-1 0 0 1 1311.11 866.111)" fill="#2E2E2E"/>
<rect width="131.111" height="26.2226" transform="matrix(-1 0 0 1 1311.11 918.556)" fill="black"/>
<rect width="288.444" height="26.2215" transform="matrix(-1 0 0 1 1180 813.667)" fill="#121212"/>
<rect width="288.444" height="26.2215" transform="matrix(-1 0 0 1 1180 971)" fill="black"/>
<rect width="288.444" height="26.2215" transform="matrix(-1 0 0 1 1180 839.892)" fill="#242424"/>
<rect width="288.444" height="26.2215" transform="matrix(-1 0 0 1 1180 944.778)" fill="#242424"/>
<rect width="288.444" height="26.2215" transform="matrix(-1 0 0 1 1180 866.111)" fill="#333333"/>
<rect width="288.444" height="26.2215" transform="matrix(-1 0 0 1 1180 892.333)" fill="#4B4B4B"/>
<rect width="288.444" height="26.2215" transform="matrix(-1 0 0 1 1180 892.333)" fill="#4B4B4B"/>
<rect width="288.444" height="26.2215" transform="matrix(-1 0 0 1 1180 918.555)" fill="#2E2E2E"/>
<rect width="288.444" height="26.2215" transform="matrix(-1 0 0 1 1180 971)" fill="black"/>
<rect width="236" height="26.2219" transform="matrix(-1 0 0 1 1284.89 656.333)" fill="#121212"/>
<rect width="236" height="26.2219" transform="matrix(-1 0 0 1 1284.89 813.667)" fill="black"/>
<rect width="236" height="26.2219" transform="matrix(-1 0 0 1 1284.89 682.556)" fill="#242424"/>
<rect width="236" height="26.2219" transform="matrix(-1 0 0 1 1284.89 813.667)" fill="black"/>
<rect width="550.666" height="26.2219" transform="matrix(-1 0 0 1 1284.89 656.333)" fill="#121212"/>
<rect width="550.666" height="26.2219" transform="matrix(-1 0 0 1 1284.89 813.667)" fill="black"/>
<rect width="550.666" height="26.2219" transform="matrix(-1 0 0 1 1284.89 682.556)" fill="#242424"/>
<rect width="550.666" height="26.2219" transform="matrix(-1 0 0 1 1284.89 787.445)" fill="#242424"/>
<rect width="550.666" height="26.2219" transform="matrix(-1 0 0 1 1284.89 708.775)" fill="#333333"/>
<rect width="550.666" height="26.2219" transform="matrix(-1 0 0 1 1284.89 735.003)" fill="#4B4B4B"/>
<rect width="550.666" height="26.2219" transform="matrix(-1 0 0 1 1284.89 735.003)" fill="#4B4B4B"/>
<rect width="550.666" height="26.2219" transform="matrix(-1 0 0 1 1284.89 761.226)" fill="#2E2E2E"/>
<rect width="550.666" height="26.2219" transform="matrix(-1 0 0 1 1284.89 813.667)" fill="black"/>
<rect width="157.332" height="26.2693" transform="matrix(-1 0 0 1 996.444 996.889)" fill="#121212"/>
<rect width="157.332" height="26.2693" transform="matrix(-1 0 0 1 996.444 1154.51)" fill="black"/>
<rect width="157.332" height="26.2693" transform="matrix(-1 0 0 1 996.444 1023.16)" fill="#242424"/>
<rect width="157.332" height="26.2693" transform="matrix(-1 0 0 1 996.444 1128.23)" fill="#242424"/>
<rect width="157.332" height="26.2693" transform="matrix(-1 0 0 1 996.444 1049.42)" fill="#333333"/>
<rect width="157.332" height="26.2693" transform="matrix(-1 0 0 1 996.444 1075.7)" fill="#4B4B4B"/>
<rect width="157.332" height="26.2693" transform="matrix(-1 0 0 1 996.444 1075.7)" fill="#4B4B4B"/>
<rect width="157.332" height="26.2693" transform="matrix(-1 0 0 1 996.444 1101.96)" fill="#2E2E2E"/>
<rect width="157.332" height="26.2693" transform="matrix(-1 0 0 1 996.444 1154.51)" fill="black"/>
<rect width="131.111" height="26.2222" transform="matrix(-1 0 0 1 1311.11 971)" fill="#121212"/>
<rect width="104.889" height="26.2222" transform="matrix(-1 0 0 1 1284.89 1128.33)" fill="black"/>
<rect width="131.111" height="26.2222" transform="matrix(-1 0 0 1 1311.11 997.222)" fill="#242424"/>
<rect width="131.111" height="26.2222" transform="matrix(-1 0 0 1 1311.11 1102.11)" fill="#242424"/>
<rect width="131.111" height="26.2222" transform="matrix(-1 0 0 1 1311.11 1023.44)" fill="#333333"/>
<rect width="131.111" height="26.2222" transform="matrix(-1 0 0 1 1311.11 1049.67)" fill="#4B4B4B"/>
<rect width="131.111" height="26.2222" transform="matrix(-1 0 0 1 1311.11 1049.67)" fill="#4B4B4B"/>
<rect width="131.111" height="26.2222" transform="matrix(-1 0 0 1 1311.11 1075.89)" fill="#2E2E2E"/>
<rect width="104.889" height="26.2222" transform="matrix(-1 0 0 1 1284.89 1128.33)" fill="black"/>
<rect width="26.2222" height="183.556" transform="matrix(-1 0 0 1 1048.89 971)" fill="#2F2F2F"/>
<rect x="734.222" y="525.222" width="26.2222" height="26.2222" fill="black"/>
<rect x="734.222" y="682.556" width="26.2222" height="52.4444" fill="black"/>
<rect x="760.444" y="603.889" width="26.2222" height="52.4444" fill="black"/>
<rect width="288.444" height="183.556" transform="matrix(-1 0 0 1 1284.89 499)" fill="#262626"/>
<rect width="26.2222" height="78.6667" transform="matrix(-1 0 0 1 1075.11 603.889)" fill="#262626"/>
<rect width="26.2222" height="236" transform="matrix(-1 0 0 1 1311.11 525.222)" fill="#262626"/>
<rect width="26.2222" height="78.6667" transform="matrix(-1 0 0 1 760.444 735)" fill="black"/>
<rect width="104.889" height="26.2222" transform="matrix(-1 0 0 1 1284.89 1128.33)" fill="black"/>
<rect x="891.555" y="1180.78" width="104.889" height="26.2222" fill="#121212"/>
<rect x="891.555" y="1207" width="104.889" height="26.2222" fill="#242424"/>
<rect x="891.555" y="1233.22" width="104.889" height="26.2222" fill="#333333"/>
<rect width="104.889" height="26.2222" transform="matrix(-1 0 0 1 1180 1154.56)" fill="black"/>
<rect x="760.444" y="1128.33" width="131.111" height="26.2222" fill="black"/>
<rect x="891.555" y="1154.56" width="104.889" height="26.2222" fill="black"/>
<rect width="104.889" height="26.2222" transform="matrix(-1 0 0 1 1284.89 944.778)" fill="black"/>
<rect width="183.556" height="26.2222" transform="matrix(-1 0 0 1 1180 971)" fill="black"/>
<rect x="760.444" y="971" width="131.111" height="26.2222" fill="black"/>
<rect x="891.555" y="971" width="78.6667" height="26.2222" fill="black"/>
<rect width="26.2222" height="26.2222" transform="matrix(-1 0 0 1 1258.67 1469.22)" fill="#D9D9D9"/>
<rect width="52.4444" height="26.2222" transform="matrix(-1 0 0 1 1311.11 1469.22)" fill="#D9D9D9"/>
<rect width="26.2222" height="26.2222" transform="matrix(-1 0 0 1 1258.67 1469.22)" fill="#D9D9D9"/>
<rect width="52.4444" height="26.2222" transform="matrix(-1 0 0 1 1311.11 1469.22)" fill="#D9D9D9"/>
<rect width="52.4444" height="26.2222" transform="matrix(-1 0 0 1 1206.22 1469.22)" fill="#D9D9D9"/>
<rect width="26.2222" height="26.2222" transform="matrix(-1 0 0 1 1232.44 1469.22)" fill="#D9D9D9"/>
<rect width="52.4444" height="26.2222" transform="matrix(-1 0 0 1 1206.22 1469.22)" fill="#D9D9D9"/>
<rect width="26.2222" height="26.2222" transform="matrix(-1 0 0 1 1232.44 1469.22)" fill="#D9D9D9"/>
<rect width="26.2222" height="26.2222" transform="matrix(-1 0 0 1 1337.33 1469.22)" fill="#D9D9D9"/>
<rect width="26.2222" height="26.2222" transform="matrix(-1 0 0 1 1337.33 1469.22)" fill="#D9D9D9"/>
<rect width="26.2222" height="26.2222" transform="matrix(-1 0 0 1 1127.56 1469.22)" fill="#D9D9D9"/>
<rect width="26.2222" height="26.2222" transform="matrix(-1 0 0 1 1127.56 1469.22)" fill="#D9D9D9"/>
<rect width="26.2222" height="26.2222" transform="matrix(-1 0 0 1 1153.78 1469.22)" fill="#D9D9D9"/>
<rect width="26.2222" height="26.2222" transform="matrix(-1 0 0 1 1127.56 1469.22)" fill="#D9D9D9"/>
<rect width="26.2222" height="26.2222" transform="matrix(-1 0 0 1 1153.78 1469.22)" fill="#D9D9D9"/>
<rect width="26.2222" height="52.4444" transform="matrix(-1 0 0 1 1337.33 1521.67)" fill="#121212"/>
<rect width="26.2222" height="26.2222" transform="matrix(-1 0 0 1 1363.56 1469.22)" fill="#D9D9D9"/>
<rect width="26.2222" height="26.2222" transform="matrix(-1 0 0 1 1363.56 1469.22)" fill="#D9D9D9"/>
<rect width="52.4444" height="26.2222" transform="matrix(-1 0 0 1 1311.11 1469.22)" fill="black"/>
<rect width="26.2222" height="26.2222" transform="matrix(-1 0 0 1 1258.67 1469.22)" fill="black"/>
<rect width="26.2222" height="26.2222" transform="matrix(-1 0 0 1 1232.44 1469.22)" fill="#313131"/>
<rect width="52.4444" height="26.2222" transform="matrix(-1 0 0 1 1206.22 1469.22)" fill="#313131"/>
<rect width="26.2222" height="26.2222" transform="matrix(-1 0 0 1 1153.78 1469.22)" fill="black"/>
<rect width="26.2222" height="26.2222" transform="matrix(-1 0 0 1 1127.56 1469.22)" fill="black"/>
<rect width="26.2222" height="26.2222" transform="matrix(-1 0 0 1 1127.56 1469.22)" fill="#121212"/>
<rect width="209.778" height="26.2222" transform="matrix(-1 0 0 1 1442.22 1338.11)" fill="black"/>
<rect width="236" height="26.2222" transform="matrix(-1 0 0 1 1232.44 1364.33)" fill="black"/>
<rect width="209.778" height="26.2222" transform="matrix(-1 0 0 1 1442.22 1364.33)" fill="#121212"/>
<rect width="262.222" height="26.2222" transform="matrix(-1 0 0 1 1232.44 1390.56)" fill="#121212"/>
<rect width="78.6667" height="52.4444" transform="matrix(-1 0 0 1 1311.11 1521.67)" fill="#121212"/>
<rect width="209.778" height="26.2222" transform="matrix(-1 0 0 1 1442.22 1390.56)" fill="#242424"/>
<rect width="262.222" height="26.2222" transform="matrix(-1 0 0 1 1232.44 1416.78)" fill="#242424"/>
<rect width="157.333" height="26.2222" transform="matrix(-1 0 0 1 1389.78 1495.44)" fill="#242424"/>
<rect width="236" height="52.4444" transform="matrix(-1 0 0 1 1232.44 1521.67)" fill="#242424"/>
<rect width="26.2222" height="52.4444" transform="matrix(-1 0 0 1 865.333 1469.22)" fill="#1A1A1A"/>
<rect width="236" height="52.4444" transform="matrix(-1 0 0 1 1101.33 1469.22)" fill="#242424"/>
<rect width="209.778" height="26.2222" transform="matrix(-1 0 0 1 1442.22 1416.78)" fill="#333333"/>
<rect width="236" height="26.2222" transform="matrix(-1 0 0 1 1232.44 1443)" fill="#333333"/>
<rect width="209.778" height="26.2222" transform="matrix(-1 0 0 1 1442.22 1443)" fill="#4B4B4B"/>
<rect width="209.778" height="26.2222" transform="matrix(-1 0 0 1 1442.22 1443)" fill="#4B4B4B"/>
<rect width="236" height="26.2222" transform="matrix(-1 0 0 1 1232.44 1469.22)" fill="#4B4B4B"/>
<rect width="236" height="26.2222" transform="matrix(-1 0 0 1 1232.44 1469.22)" fill="#4B4B4B"/>
<rect width="183.556" height="26.2222" transform="matrix(-1 0 0 1 1416 1469.22)" fill="#2E2E2E"/>
<rect width="131.111" height="26.2222" transform="matrix(-1 0 0 1 1232.44 1495.44)" fill="#2E2E2E"/>
<rect width="157.333" height="26.2222" transform="matrix(-1 0 0 1 1153.78 1180.78)" fill="#121212"/>
<rect width="236" height="26.2222" transform="matrix(-1 0 0 1 1232.44 1338.11)" fill="black"/>
<rect width="157.333" height="26.2222" transform="matrix(-1 0 0 1 1153.78 1207)" fill="#242424"/>
<rect width="157.333" height="26.2222" transform="matrix(-1 0 0 1 1153.78 1311.89)" fill="#242424"/>
<rect width="157.333" height="26.2222" transform="matrix(-1 0 0 1 1153.78 1233.22)" fill="#333333"/>
<rect width="157.333" height="26.2222" transform="matrix(-1 0 0 1 1153.78 1285.67)" fill="#2E2E2E"/>
<rect width="183.556" height="26.2222" transform="matrix(-1 0 0 1 1337.33 1154.56)" fill="#121212"/>
<rect width="209.778" height="26.2222" transform="matrix(-1 0 0 1 1363.56 1311.89)" fill="black"/>
<rect width="209.778" height="26.2222" transform="matrix(-1 0 0 1 1363.56 1180.78)" fill="#242424"/>
<rect width="236" height="26.2222" transform="matrix(-1 0 0 1 1389.78 1285.67)" fill="#242424"/>
<rect width="209.778" height="26.2222" transform="matrix(-1 0 0 1 1363.56 1207)" fill="#333333"/>
<rect width="209.778" height="26.2222" transform="matrix(-1 0 0 1 1363.56 1233.22)" fill="#4B4B4B"/>
<rect width="209.778" height="26.2222" transform="matrix(-1 0 0 1 1363.56 1233.22)" fill="#4B4B4B"/>
<rect width="183.556" height="26.2222" transform="matrix(-1 0 0 1 1337.33 1259.44)" fill="#2E2E2E"/>
<rect width="104.889" height="26.2222" transform="matrix(-1 0 0 1 1153.78 1154.56)" fill="black"/>
<rect width="262.222" height="26.2222" transform="matrix(-1 0 0 1 1416 1311.89)" fill="black"/>
<rect x="786.666" y="1128.33" width="104.889" height="26.2222" fill="black"/>
<rect x="786.666" y="1128.33" width="104.889" height="26.2222" fill="black"/>
<rect x="786.666" y="1128.33" width="104.889" height="26.2222" fill="black"/>
<rect x="891.555" y="1311.89" width="104.889" height="26.2222" fill="#242424"/>
<rect x="891.555" y="1285.67" width="104.889" height="26.2222" fill="#2E2E2E"/>
<rect x="734.222" y="1154.56" width="183.556" height="26.2222" fill="#121212"/>
<rect x="681.777" y="1311.89" width="209.778" height="26.2222" fill="black"/>
<rect x="708" y="1180.78" width="183.556" height="26.2222" fill="#242424"/>
<rect x="655.556" y="1285.67" width="236" height="26.2222" fill="#242424"/>
<rect x="681.777" y="1207" width="209.778" height="26.2222" fill="#333333"/>
<rect x="708" y="1233.22" width="183.556" height="26.2222" fill="#4B4B4B"/>
<rect x="708" y="1233.22" width="183.556" height="26.2222" fill="#4B4B4B"/>
<rect x="681.777" y="1259.44" width="314.667" height="26.2222" fill="#2E2E2E"/>
<rect x="629.333" y="1311.89" width="262.222" height="26.2222" fill="black"/>
<rect width="157.333" height="26.2222" transform="matrix(-1 0 0 1 891.555 1154.56)" fill="#121212"/>
<rect width="131.111" height="26.2222" transform="matrix(-1 0 0 1 865.333 1180.78)" fill="#242424"/>
<rect width="157.333" height="26.2222" transform="matrix(-1 0 0 1 891.555 1207)" fill="#333333"/>
<rect width="131.111" height="26.2222" transform="matrix(-1 0 0 1 865.333 1233.22)" fill="#4B4B4B"/>
<rect width="131.111" height="26.2222" transform="matrix(-1 0 0 1 865.333 1233.22)" fill="#4B4B4B"/>
<rect width="157.335" height="26.2219" transform="matrix(-1 0 0 1 891.555 971)" fill="#121212"/>
<rect width="157.335" height="26.2219" transform="matrix(-1 0 0 1 891.555 1128.33)" fill="black"/>
<rect width="157.335" height="26.2219" transform="matrix(-1 0 0 1 891.555 997.222)" fill="#242424"/>
<rect width="157.335" height="26.2219" transform="matrix(-1 0 0 1 891.555 1102.11)" fill="#242424"/>
<rect width="157.335" height="26.2219" transform="matrix(-1 0 0 1 891.555 1023.44)" fill="#333333"/>
<rect width="157.335" height="26.2219" transform="matrix(-1 0 0 1 891.555 1049.67)" fill="#4B4B4B"/>
<rect width="157.335" height="26.2219" transform="matrix(-1 0 0 1 891.555 1049.67)" fill="#4B4B4B"/>
<rect width="157.335" height="26.2219" transform="matrix(-1 0 0 1 891.555 1075.89)" fill="#2E2E2E"/>
<rect width="157.335" height="26.2219" transform="matrix(-1 0 0 1 891.555 1128.33)" fill="black"/>
<rect width="288.436" height="26.2213" transform="matrix(-1 0 0 1 1284.88 499)" fill="#121212"/>
<rect width="288.436" height="26.2213" transform="matrix(-1 0 0 1 1284.89 656.333)" fill="black"/>
<rect width="288.436" height="26.2213" transform="matrix(-1 0 0 1 1284.89 525.226)" fill="#242424"/>
<rect width="288.436" height="26.2213" transform="matrix(-1 0 0 1 1284.89 630.108)" fill="#242424"/>
<rect width="288.436" height="26.2213" transform="matrix(-1 0 0 1 1284.89 551.448)" fill="#333333"/>
<rect width="288.436" height="26.2213" transform="matrix(-1 0 0 1 1284.89 577.673)" fill="#4B4B4B"/>
<rect width="288.436" height="26.2213" transform="matrix(-1 0 0 1 1284.89 577.673)" fill="#4B4B4B"/>
<rect width="288.436" height="26.2213" transform="matrix(-1 0 0 1 1284.89 603.889)" fill="#2E2E2E"/>
<rect width="288.436" height="26.2213" transform="matrix(-1 0 0 1 1284.89 656.333)" fill="black"/>
<rect width="104.889" height="26.2213" transform="matrix(-1 0 0 1 1284.89 656.333)" fill="black"/>
<rect width="104.889" height="26.2213" transform="matrix(-1 0 0 1 1284.89 525.225)" fill="#242424"/>
<rect width="131.111" height="26.2222" transform="matrix(-1 0 0 1 1311.11 656.333)" fill="black"/>
<rect x="1311.11" y="656.333" width="78.6667" height="26.2222" fill="#121212"/>
<rect x="1311.11" y="813.667" width="104.889" height="26.2222" fill="black"/>
<rect x="1311.11" y="682.556" width="104.889" height="26.2222" fill="#242424"/>
<rect x="1311.11" y="787.444" width="131.111" height="26.2222" fill="#242424"/>
<rect x="1311.11" y="708.778" width="104.889" height="26.2222" fill="#333333"/>
<rect x="1311.11" y="735" width="131.111" height="26.2222" fill="#4B4B4B"/>
<rect x="1311.11" y="735" width="131.111" height="26.2222" fill="#4B4B4B"/>
<rect x="1311.11" y="761.222" width="131.111" height="26.2222" fill="#2E2E2E"/>
<rect x="1311.11" y="813.667" width="104.889" height="26.2222" fill="black"/>
<rect width="26.2222" height="26.2222" transform="matrix(-1 0 0 1 1468.44 787.444)" fill="black"/>
<rect width="26.2222" height="26.2222" transform="matrix(-1 0 0 1 1468.44 761.222)" fill="black"/>
<rect x="1442.22" y="735" width="26.2222" height="26.2222" fill="black"/>
<rect width="26.2222" height="52.4444" transform="matrix(-1 0 0 1 1337.33 551.444)" fill="black"/>
<rect width="26.2222" height="26.2222" transform="matrix(-1 0 0 1 1363.56 603.889)" fill="black"/>
<rect width="26.2222" height="52.4444" transform="matrix(-1 0 0 1 1389.78 630.111)" fill="black"/>
<rect width="26.2222" height="26.2222" transform="matrix(-1 0 0 1 1416 682.556)" fill="black"/>
<rect width="26.2222" height="26.2222" transform="matrix(-1 0 0 1 1442.22 708.778)" fill="black"/>
<rect width="26.2222" height="26.2222" transform="matrix(-1 0 0 1 1442.22 813.667)" fill="black"/>
<rect width="104.889" height="26.2222" transform="matrix(-1 0 0 1 1416 839.889)" fill="black"/>
<rect x="1311.11" y="813.667" width="104.889" height="26.2222" fill="#171717"/>
<rect x="1311.11" y="603.889" width="26.2222" height="78.6667" fill="#313131"/>
<rect x="1337.33" y="630.111" width="26.2222" height="52.4444" fill="#313131"/>
<rect width="26.2222" height="26.2222" transform="matrix(-1 0 0 1 1311.11 525.222)" fill="#2B2B2B"/>
<rect width="26.2222" height="26.2222" transform="matrix(-1 0 0 1 1311.11 577.667)" fill="#3D3D3D"/>
<rect width="26.2222" height="26.2222" transform="matrix(-1 0 0 1 1284.89 525.222)" fill="black"/>
<rect width="26.2222" height="26.2222" transform="matrix(-1 0 0 1 996.444 971)" fill="black"/>
<rect width="26.2222" height="26.2222" transform="matrix(-1 0 0 1 944 971)" fill="black"/>
<rect width="26.2222" height="26.2222" transform="matrix(-1 0 0 1 1022.67 813.667)" fill="black"/>
<rect width="26.2222" height="26.2222" transform="matrix(-1 0 0 1 1101.33 656.333)" fill="black"/>
<rect width="26.2222" height="26.2222" transform="matrix(-1 0 0 1 760.444 971)" fill="black"/>
<rect opacity="0.57" width="26.2222" height="26.2222" transform="matrix(-1 0 0 1 1389.78 1495.44)" fill="black"/>
<rect width="26.2222" height="26.2222" transform="matrix(-1 0 0 1 1363.56 1521.67)" fill="black"/>
<rect width="288.444" height="26.2222" transform="matrix(-1 0 0 1 1258.67 315.445)" fill="black"/>
<rect width="288.444" height="26.2222" transform="matrix(-1 0 0 1 1258.67 341.667)" fill="#323232"/>
<rect width="288.444" height="26.2222" transform="matrix(-1 0 0 1 1258.67 472.778)" fill="#323232"/>
<rect width="26.2222" height="26.2222" transform="matrix(-1 0 0 1 1284.89 341.667)" fill="black"/>
<rect width="26.2222" height="26.2222" transform="matrix(-1 0 0 1 1311.11 367.889)" fill="black"/>
<rect x="944" y="341.667" width="26.2222" height="26.2222" fill="#2B2B2B"/>
<rect x="917.777" y="367.889" width="26.2222" height="26.2222" fill="#2B2B2B"/>
<rect x="865.333" y="394.111" width="52.4444" height="26.2222" fill="#2B2B2B"/>
<rect width="26.2222" height="52.4444" transform="matrix(-1 0 0 1 1337.33 394.111)" fill="black"/>
<rect width="26.2222" height="26.2222" transform="matrix(-1 0 0 1 1311.11 446.556)" fill="black"/>
<rect width="26.2222" height="26.2222" transform="matrix(-1 0 0 1 1284.89 472.778)" fill="black"/>
<rect width="288.444" height="26.2222" transform="matrix(-1 0 0 1 1258.67 499)" fill="black"/>
<rect width="26.2222" height="26.2222" transform="matrix(-1 0 0 1 865.333 420.333)" fill="#2B2B2B"/>
<rect width="52.4444" height="26.2222" transform="matrix(-1 0 0 1 970.222 472.778)" fill="#2B2B2B"/>
<rect width="52.4444" height="26.2222" transform="matrix(-1 0 0 1 917.777 446.556)" fill="#2B2B2B"/>
<rect width="26.2222" height="26.2222" transform="matrix(-1 0 0 1 1284.89 446.556)" fill="#474747"/>
<rect width="26.2222" height="26.2222" transform="matrix(-1 0 0 1 1284.89 367.889)" fill="#474747"/>
<rect width="26.2222" height="26.2222" transform="matrix(-1 0 0 1 944 446.556)" fill="#474747"/>
<rect width="26.2222" height="26.2222" transform="matrix(-1 0 0 1 970.222 367.889)" fill="#474747"/>
<rect width="26.2222" height="52.4444" transform="matrix(-1 0 0 1 1311.11 394.111)" fill="#5A5959"/>
<rect width="26.2222" height="52.4444" transform="matrix(-1 0 0 1 944 394.111)" fill="#5A5959"/>
<rect width="26.2222" height="52.4444" transform="matrix(0 1 1 0 865.333 420.333)" fill="#5A5959"/>
<rect width="314.667" height="26.2222" transform="matrix(-1 0 0 1 1258.67 446.556)" fill="#565656"/>
<rect width="340.889" height="26.2222" transform="matrix(-1 0 0 1 1284.89 420.333)" fill="#626262"/>
<rect width="340.889" height="26.2222" transform="matrix(-1 0 0 1 1284.89 394.111)" fill="#838383"/>
<rect width="288.444" height="26.2222" transform="matrix(-1 0 0 1 1258.67 367.889)" fill="#565656"/>
<rect width="104.889" height="26.2222" transform="matrix(-1 0 0 1 917.777 472.778)" fill="#2C2C2C"/>
<rect width="26.2222" height="26.2222" transform="matrix(-1 0 0 1 865.333 446.556)" fill="#1D1D1D"/>
<rect width="183.556" height="26.2693" transform="matrix(-1 0 0 1 1180 996.889)" fill="#121212"/>
<rect width="183.556" height="26.2693" transform="matrix(-1 0 0 1 1180 1154.51)" fill="black"/>
<rect width="183.556" height="26.2693" transform="matrix(-1 0 0 1 1180 1023.16)" fill="#242424"/>
<rect width="183.556" height="26.2693" transform="matrix(-1 0 0 1 1180 1128.23)" fill="#242424"/>
<rect width="183.556" height="26.2693" transform="matrix(-1 0 0 1 1180 1049.42)" fill="#333333"/>
<rect width="183.556" height="26.2693" transform="matrix(-1 0 0 1 1180 1075.7)" fill="#4B4B4B"/>
<rect width="183.556" height="26.2693" transform="matrix(-1 0 0 1 1180 1075.7)" fill="#4B4B4B"/>
<rect width="183.556" height="26.2693" transform="matrix(-1 0 0 1 1180 1101.96)" fill="#2E2E2E"/>
<rect width="183.556" height="26.2693" transform="matrix(-1 0 0 1 1180 1154.51)" fill="black"/>
<rect width="26.2222" height="131.111" transform="matrix(-1 0 0 1 1311.11 813.667)" fill="black"/>
<rect width="26.2222" height="131.111" transform="matrix(-1 0 0 1 1311.11 682.556)" fill="black"/>
<rect width="26.2222" height="131.111" transform="matrix(-1 0 0 1 1311.11 525.222)" fill="black"/>
<rect width="157.333" height="26.2222" transform="matrix(-1 0 0 1 891.555 839.889)" fill="#252525"/>
<rect width="262.222" height="26.2222" transform="matrix(-1 0 0 1 1153.78 1259.44)" fill="#4B4B4B"/>
<rect width="262.222" height="26.2222" transform="matrix(-1 0 0 1 1153.78 1259.44)" fill="#4B4B4B"/>
<rect x="891.555" y="1154.56" width="104.889" height="26.2222" fill="black"/>
<rect width="78.6667" height="52.4444" transform="matrix(-1 0 0 1 708 1390.56)" fill="#191919"/>
<rect width="26.2222" height="26.2222" transform="matrix(-1 0 0 1 944 1364.33)" fill="#D9D9D9"/>
<rect width="26.2222" height="26.2222" transform="matrix(-1 0 0 1 917.777 1364.33)" fill="#D9D9D9"/>
<rect width="26.2222" height="26.2222" transform="matrix(-1 0 0 1 891.555 1364.33)" fill="#D9D9D9"/>
<rect width="26.2222" height="26.2222" transform="matrix(-1 0 0 1 865.333 1364.33)" fill="#D9D9D9"/>
<rect width="26.2222" height="26.2222" transform="matrix(-1 0 0 1 944 1364.33)" fill="#121212"/>
<rect width="26.2222" height="26.2222" transform="matrix(-1 0 0 1 917.777 1364.33)" fill="#313131"/>
<rect width="26.2222" height="26.2222" transform="matrix(-1 0 0 1 891.555 1364.33)" fill="black"/>
<rect width="26.2222" height="26.2222" transform="matrix(-1 0 0 1 865.333 1364.33)" fill="#121212"/>
<rect width="26.2222" height="26.2222" transform="matrix(-1 0 0 1 839.111 1364.33)" fill="#D9D9D9"/>
<rect width="26.2222" height="26.2222" transform="matrix(-1 0 0 1 839.111 1364.33)" fill="#121212"/>
<rect width="26.2222" height="26.2222" transform="matrix(-1 0 0 1 812.888 1364.33)" fill="#D9D9D9"/>
<rect width="26.2222" height="26.2222" transform="matrix(-1 0 0 1 812.888 1364.33)" fill="#1A1A1A"/>
<rect x="629.333" y="1364.33" width="157.333" height="26.2222" fill="#1A1A1A"/>
<rect width="26.2222" height="26.2222" transform="matrix(-1 0 0 1 786.666 1364.33)" fill="#1A1A1A"/>
<rect width="26.2222" height="26.2222" transform="matrix(-1 0 0 1 786.666 1364.33)" fill="#1A1A1A"/>
<rect x="812.888" y="1364.33" width="26.2222" height="26.2222" fill="#D9D9D9"/>
<rect x="760.444" y="1364.33" width="52.4444" height="26.2222" fill="#D9D9D9"/>
<rect x="812.888" y="1364.33" width="26.2222" height="26.2222" fill="#D9D9D9"/>
<rect x="760.444" y="1364.33" width="52.4444" height="26.2222" fill="#D9D9D9"/>
<rect x="865.333" y="1364.33" width="52.4444" height="26.2222" fill="#D9D9D9"/>
<rect x="839.111" y="1364.33" width="26.2222" height="26.2222" fill="#D9D9D9"/>
<rect x="865.333" y="1364.33" width="52.4444" height="26.2222" fill="#D9D9D9"/>
<rect x="839.111" y="1364.33" width="26.2222" height="26.2222" fill="#D9D9D9"/>
<rect x="734.222" y="1364.33" width="26.2222" height="26.2222" fill="#D9D9D9"/>
<rect x="734.222" y="1364.33" width="26.2222" height="26.2222" fill="#D9D9D9"/>
<rect x="917.777" y="1364.33" width="26.2222" height="26.2222" fill="#D9D9D9"/>
<rect x="917.777" y="1364.33" width="26.2222" height="26.2222" fill="#D9D9D9"/>
<rect x="708" y="1416.78" width="52.4444" height="52.4444" fill="#121212"/>
<rect x="708" y="1364.33" width="26.2222" height="26.2222" fill="#D9D9D9"/>
<rect x="708" y="1364.33" width="26.2222" height="26.2222" fill="#D9D9D9"/>
<rect x="760.444" y="1364.33" width="52.4444" height="26.2222" fill="black"/>
<rect x="812.888" y="1364.33" width="26.2222" height="26.2222" fill="black"/>
<rect x="839.111" y="1364.33" width="26.2222" height="26.2222" fill="#313131"/>
<rect x="865.333" y="1364.33" width="52.4444" height="26.2222" fill="#313131"/>
<rect x="917.777" y="1364.33" width="26.2222" height="26.2222" fill="black"/>
<rect x="655.556" y="1233.22" width="183.556" height="26.2222" fill="black"/>
<rect x="839.111" y="1259.44" width="131.111" height="26.2222" fill="black"/>
<rect x="629.333" y="1259.44" width="209.778" height="26.2222" fill="#121212"/>
<rect x="839.111" y="1285.67" width="131.111" height="26.2222" fill="#121212"/>
<rect x="760.444" y="1416.78" width="78.6667" height="52.4444" fill="#121212"/>
<rect x="629.333" y="1285.67" width="209.778" height="26.2222" fill="#242424"/>
<rect x="839.111" y="1311.89" width="131.111" height="26.2222" fill="#242424"/>
<rect x="681.777" y="1390.56" width="157.333" height="26.2222" fill="#242424"/>
<rect x="839.111" y="1416.78" width="157.333" height="52.4444" fill="#242424"/>
<rect x="629.333" y="1311.89" width="209.778" height="26.2222" fill="#333333"/>
<rect x="839.111" y="1338.11" width="157.333" height="26.2222" fill="#333333"/>
<rect x="629.333" y="1338.11" width="209.778" height="26.2222" fill="#4B4B4B"/>
<rect x="629.333" y="1338.11" width="209.778" height="26.2222" fill="#4B4B4B"/>
<rect x="839.111" y="1364.33" width="157.333" height="26.2222" fill="#4B4B4B"/>
<rect x="839.111" y="1364.33" width="157.333" height="26.2222" fill="#4B4B4B"/>
<rect x="655.556" y="1364.33" width="183.556" height="26.2222" fill="#2E2E2E"/>
<rect x="839.111" y="1390.56" width="157.333" height="26.2222" fill="#2E2E2E"/>
<rect x="839.111" y="1233.22" width="131.111" height="26.2222" fill="black"/>
<rect opacity="0.57" width="26.2222" height="26.2222" transform="matrix(-1 0 0 1 681.777 1390.56)" fill="black"/>
<rect opacity="0.57" width="26.2222" height="26.2222" transform="matrix(-1 0 0 1 655.556 1364.33)" fill="black"/>
<rect width="104.889" height="26.2222" transform="matrix(-1 0 0 1 996.444 1600.33)" fill="#191919"/>
<rect width="157.333" height="52.4444" transform="matrix(-1 0 0 1 708 1443)" fill="#191919"/>
<rect width="183.556" height="26.2222" transform="matrix(-1 0 0 1 708 1443)" fill="#191919"/>
<rect width="183.556" height="52.4444" transform="matrix(-1 0 0 1 865.333 1495.44)" fill="#191919"/>
<rect width="262.222" height="26.2222" transform="matrix(-1 0 0 1 865.333 1495.44)" fill="#191919"/>
<rect width="236" height="26.2222" transform="matrix(-1 0 0 1 996.444 1547.89)" fill="#191919"/>
<rect width="183.556" height="26.2222" transform="matrix(-1 0 0 1 996.444 1574.11)" fill="#191919"/>
<rect width="236" height="26.2222" transform="matrix(-1 0 0 1 1232.44 1574.11)" fill="black"/>
<rect width="131.111" height="26.2222" transform="matrix(-1 0 0 1 996.444 1521.67)" fill="#0D0D0D"/>
<rect width="157.333" height="26.2222" transform="matrix(-1 0 0 1 865.333 1469.22)" fill="#0D0D0D"/>
<rect x="760.444" y="499" width="26.2222" height="26.2222" fill="black"/>
<rect x="786.666" y="525.222" width="26.2222" height="26.2222" fill="black"/>
<rect x="812.888" y="551.444" width="26.2222" height="26.2222" fill="black"/>
<rect x="839.111" y="577.667" width="26.2222" height="26.2222" fill="black"/>
<rect x="1075.11" y="944.778" width="26.2222" height="26.2222" fill="black"/>
<rect x="1048.89" y="918.556" width="26.2222" height="26.2222" fill="black"/>
<rect x="1048.89" y="892.333" width="26.2222" height="26.2222" fill="black"/>
<rect x="1022.67" y="866.111" width="26.2222" height="26.2222" fill="black"/>
<rect x="996.444" y="839.889" width="26.2222" height="26.2222" fill="black"/>
<rect x="996.444" y="813.667" width="26.2222" height="26.2222" fill="black"/>
<rect x="996.444" y="787.444" width="26.2222" height="26.2222" fill="black"/>
<rect x="970.222" y="735" width="26.2222" height="52.4444" fill="black"/>
<rect x="944" y="708.778" width="26.2222" height="26.2222" fill="black"/>
<rect x="917.777" y="682.556" width="26.2222" height="26.2222" fill="black"/>
<rect x="917.777" y="656.333" width="26.2222" height="26.2222" fill="black"/>
<rect x="891.555" y="630.111" width="26.2222" height="26.2222" fill="black"/>
<rect x="865.333" y="603.889" width="26.2222" height="26.2222" fill="black"/>
<rect x="812.888" y="499" width="26.2222" height="26.2222" fill="black"/>
<rect x="839.111" y="525.222" width="26.2222" height="26.2222" fill="black"/>
<rect x="865.333" y="551.444" width="26.2222" height="26.2222" fill="black"/>
<rect x="891.555" y="577.667" width="26.2222" height="26.2222" fill="black"/>
<rect x="1127.56" y="944.778" width="26.2222" height="26.2222" fill="black"/>
<rect x="1101.33" y="892.333" width="26.2222" height="26.2222" fill="black"/>
<rect x="1075.11" y="866.111" width="26.2222" height="26.2222" fill="black"/>
<rect x="1048.89" y="839.889" width="26.2222" height="26.2222" fill="black"/>
<rect x="1048.89" y="813.667" width="26.2222" height="26.2222" fill="black"/>
<rect x="1048.89" y="787.444" width="26.2222" height="26.2222" fill="black"/>
<rect x="1022.67" y="735" width="26.2222" height="52.4444" fill="black"/>
<rect x="996.444" y="708.778" width="26.2222" height="26.2222" fill="black"/>
<rect x="970.222" y="682.556" width="26.2222" height="26.2222" fill="black"/>
<rect x="970.222" y="656.333" width="26.2222" height="26.2222" fill="black"/>
<rect x="944" y="630.111" width="26.2222" height="26.2222" fill="black"/>
<rect x="917.777" y="603.889" width="26.2222" height="26.2222" fill="black"/>
<rect x="786.666" y="499" width="26.2222" height="26.2222" fill="black"/>
<rect x="812.888" y="525.222" width="26.2222" height="26.2222" fill="black"/>
<rect x="839.111" y="551.444" width="26.2222" height="26.2222" fill="black"/>
<rect x="865.333" y="577.667" width="26.2222" height="26.2222" fill="black"/>
<rect x="1101.33" y="944.778" width="26.2222" height="26.2222" fill="black"/>
<rect x="1075.11" y="918.556" width="52.4444" height="26.2222" fill="black"/>
<rect x="1075.11" y="892.333" width="26.2222" height="26.2222" fill="black"/>
<rect x="1048.89" y="866.111" width="26.2222" height="26.2222" fill="black"/>
<rect x="1022.67" y="839.889" width="26.2222" height="26.2222" fill="black"/>
<rect x="1022.67" y="813.667" width="26.2222" height="26.2222" fill="black"/>
<rect x="1022.67" y="787.444" width="26.2222" height="26.2222" fill="black"/>
<rect x="996.444" y="735" width="26.2222" height="52.4444" fill="black"/>
<rect x="970.222" y="708.778" width="26.2222" height="26.2222" fill="black"/>
<rect x="944" y="682.556" width="26.2222" height="26.2222" fill="black"/>
<rect x="944" y="656.333" width="26.2222" height="26.2222" fill="black"/>
<rect x="917.777" y="630.111" width="26.2222" height="26.2222" fill="black"/>
<rect x="891.555" y="603.889" width="26.2222" height="26.2222" fill="black"/>
<rect x="1075.11" y="944.778" width="26.2222" height="26.2222" fill="black"/>
<rect x="1101.33" y="971" width="26.2222" height="26.2222" fill="black"/>
<rect x="1127.56" y="997.222" width="26.2222" height="26.2222" fill="black"/>
<rect x="1153.78" y="1023.44" width="26.2222" height="26.2222" fill="black"/>
<rect x="1363.56" y="1180.78" width="26.2222" height="52.4444" fill="black"/>
<rect x="1337.33" y="1154.56" width="26.2222" height="26.2222" fill="black"/>
<rect x="1232.44" y="1102.11" width="26.2222" height="26.2222" fill="black"/>
<rect x="1206.22" y="1075.89" width="26.2222" height="26.2222" fill="black"/>
<rect x="1180" y="1049.67" width="26.2222" height="26.2222" fill="black"/>
<rect x="1127.56" y="944.778" width="26.2222" height="26.2222" fill="black"/>
<rect x="1153.78" y="971" width="26.2222" height="26.2222" fill="black"/>
<rect x="1180" y="997.222" width="26.2222" height="26.2222" fill="black"/>
<rect x="1206.22" y="1023.44" width="26.2222" height="26.2222" fill="black"/>
<rect x="1337.33" y="1180.78" width="26.2222" height="52.4444" fill="black"/>
<rect x="1311.11" y="1154.56" width="26.2222" height="26.2222" fill="black"/>
<rect x="1311.11" y="1128.33" width="26.2222" height="26.2222" fill="black"/>
<rect x="1284.89" y="1128.33" width="26.2222" height="26.2222" fill="black"/>
<rect x="1284.89" y="1102.11" width="26.2222" height="26.2222" fill="black"/>
<rect x="1258.67" y="1075.89" width="26.2222" height="26.2222" fill="black"/>
<rect x="1232.44" y="1049.67" width="26.2222" height="26.2222" fill="black"/>
<rect x="1101.33" y="944.778" width="26.2222" height="26.2222" fill="black"/>
<rect x="1127.56" y="971" width="26.2222" height="26.2222" fill="black"/>
<rect x="1153.78" y="997.222" width="26.2222" height="26.2222" fill="black"/>
<rect x="1180" y="1023.44" width="26.2222" height="26.2222" fill="black"/>
<rect x="1284.89" y="1154.56" width="26.2222" height="26.2222" fill="black"/>
<rect x="1258.67" y="1128.33" width="26.2222" height="26.2222" fill="black"/>
<rect x="1258.67" y="1102.11" width="26.2222" height="26.2222" fill="black"/>
<rect x="1232.44" y="1075.89" width="26.2222" height="26.2222" fill="black"/>
<rect x="1206.22" y="1049.67" width="26.2222" height="26.2222" fill="black"/>
<rect width="26.2222" height="78.6667" transform="matrix(-1 0 0 1 1363.56 1075.89)" fill="#654E24"/>
<rect width="26.2222" height="52.4444" transform="matrix(-1 0 0 1 1337.33 1075.89)" fill="#654E24"/>
<rect width="52.4444" height="26.2222" transform="matrix(-1 0 0 1 1494.67 1810.11)" fill="black"/>
<rect x="1625.78" y="1993.67" width="52.4444" height="26.2222" fill="#6B7EBA"/>
<rect x="1520.89" y="1967.44" width="52.4444" height="52.4444" fill="#212121"/>
<rect x="1573.33" y="2019.89" width="26.2222" height="52.4444" fill="#212121"/>
<rect x="1599.56" y="1967.44" width="26.2222" height="26.2222" fill="#212121"/>
<rect x="1652" y="2046.11" width="26.2222" height="26.2222" fill="#212121"/>
<rect x="1625.78" y="2019.89" width="26.2222" height="26.2222" fill="#212121"/>
<rect x="1599.56" y="2019.89" width="26.2222" height="26.2222" fill="#141414"/>
<rect width="52.4444" height="26.2222" transform="matrix(0 1 1 0 1573.33 1967.44)" fill="#2C4DB3"/>
<rect x="1599.56" y="1993.67" width="26.2222" height="26.2222" fill="#476EE7"/>
<rect x="1625.78" y="1993.67" width="52.4444" height="26.2222" fill="#476EE7"/>
<rect x="1625.78" y="2019.89" width="52.4444" height="26.2222" fill="#6B7EBA"/>
<rect x="1520.89" y="1993.67" width="52.4444" height="52.4444" fill="#212121"/>
<rect x="1599.56" y="2046.11" width="26.2222" height="26.2222" fill="#2C4DB3"/>
<rect x="1652" y="2019.89" width="26.2222" height="26.2222" fill="#476EE7"/>
<rect x="1520.89" y="2046.11" width="78.6667" height="26.2222" fill="#EDD130"/>
<rect x="1520.89" y="2046.11" width="26.2222" height="26.2222" fill="#C5AB19"/>
<rect x="1573.33" y="2046.11" width="26.2222" height="26.2222" fill="#212121"/>
<rect x="1625.78" y="1967.44" width="26.2222" height="26.2222" fill="#5E81EF"/>
<rect x="1599.56" y="2046.11" width="52.4444" height="26.2222" fill="#212121"/>
<rect width="52.4444" height="26.2222" transform="matrix(-1 0 0 1 1625.78 1941.22)" fill="#5E81EF"/>
<rect width="52.4444" height="26.2222" transform="matrix(-1 0 0 1 1573.33 1941.22)" fill="#323232"/>
<rect width="78.6667" height="26.2222" transform="matrix(-1 0 0 1 1599.56 1888.78)" fill="#515151"/>
<rect width="26.2222" height="26.2222" transform="matrix(-1 0 0 1 1547.11 1915)" fill="#515151"/>
<rect x="1599.56" y="2046.11" width="52.4444" height="26.2222" fill="#EDD130"/>
<rect width="26.2222" height="26.2222" transform="matrix(-1 0 0 1 1652 2046.11)" fill="#FFE23F"/>
<rect x="1652" y="1993.67" width="26.2222" height="26.2222" fill="#212121"/>
<rect x="1625.78" y="1993.67" width="26.2222" height="26.2222" fill="#2983E4"/>
<rect x="1652" y="1993.67" width="26.2222" height="26.2222" fill="#008FDC"/>
<rect x="1625.78" y="1967.44" width="26.2222" height="26.2222" fill="#428CDC"/>
<rect x="1625.78" y="2019.89" width="26.2222" height="26.2222" fill="#2983E4"/>
<rect x="1652" y="2019.89" width="26.2222" height="26.2222" fill="#146CC9"/>
<rect width="52.4444" height="26.2222" transform="matrix(-1 0 0 1 1599.56 1915)" fill="#5E81EF"/>
</svg>
