<svg width="1679" height="2073" viewBox="0 0 1679 2073" fill="none" xmlns="http://www.w3.org/2000/svg">
<rect x="891.998" y="394.111" width="52.4444" height="26.2222" fill="#E0BB78"/>
<rect width="26.2222" height="26.2222" transform="matrix(-1 0 0 1 813.332 394.111)" fill="#E0BB78"/>
<rect x="839.555" y="446.556" width="26.2222" height="26.2222" fill="#E0BB78"/>
<rect x="865.777" y="394.111" width="26.2222" height="26.2222" fill="#E0BB78"/>
<rect x="787.109" y="394.111" width="26.2222" height="26.2222" fill="#E0BB78"/>
<rect width="26.2222" height="26.2222" transform="matrix(-1 0 0 1 839.555 394.111)" fill="#C6A366"/>
<rect x="839.555" y="394.111" width="26.2222" height="26.2222" fill="#E0BB78"/>
<rect x="813.332" y="394.111" width="26.2222" height="26.2222" fill="#E0BB78"/>
<rect x="787.109" y="394.111" width="26.2222" height="26.2222" fill="#E0BB78"/>
<rect x="865.777" y="394.111" width="26.2222" height="26.2222" fill="#E0BB78"/>
<rect x="839.555" y="394.111" width="26.2222" height="26.2222" fill="#AE8B4A"/>
<rect x="839.555" y="420.333" width="26.2222" height="26.2222" fill="#C6A366"/>
<rect x="813.332" y="420.333" width="26.2222" height="26.2222" fill="#E0BB78"/>
<rect x="655.998" y="341.667" width="26.2222" height="26.2222" fill="#D9C8A9"/>
<rect x="708.443" y="158.111" width="26.2222" height="26.2222" fill="#151515"/>
<rect x="839.555" y="131.889" width="26.2222" height="26.2222" fill="#E0BB78"/>
<rect x="918.221" y="341.667" width="26.2222" height="26.2222" fill="#E0BB78"/>
<rect x="918.221" y="315.444" width="26.2222" height="26.2222" fill="#E0BB78"/>
<rect x="918.221" y="367.889" width="26.2222" height="26.2222" fill="#D1AC68"/>
<rect x="918.221" y="289.222" width="26.2222" height="26.2222" fill="#E0BB78"/>
<rect x="891.998" y="289.222" width="26.2222" height="26.2222" fill="#E0BB78"/>
<rect x="918.221" y="184.333" width="26.2222" height="26.2222" fill="#D1AC68"/>
<rect x="891.998" y="158.111" width="26.2222" height="26.2222" fill="#E0BB78"/>
<rect x="865.777" y="131.889" width="26.2222" height="26.2222" fill="#E0BB78"/>
<rect x="813.332" y="131.889" width="26.2222" height="26.2222" fill="#E0BB78"/>
<rect x="787.109" y="131.889" width="26.2222" height="26.2222" fill="#E0BB78"/>
<rect x="760.889" y="131.889" width="26.2222" height="26.2222" fill="#E0BB78"/>
<rect x="734.666" y="131.889" width="26.2222" height="26.2222" fill="#E0BB78"/>
<rect x="708.443" y="184.333" width="26.2222" height="26.2222" fill="#151515"/>
<rect x="682.221" y="210.555" width="26.2222" height="26.2222" fill="#151515"/>
<rect x="655.998" y="236.778" width="26.2222" height="26.2222" fill="#2E2E2E"/>
<rect x="629.777" y="210.555" width="26.2222" height="26.2222" fill="#2E2E2E"/>
<rect x="603.555" y="236.778" width="26.2222" height="26.2222" fill="#948770"/>
<rect x="603.555" y="263" width="26.2222" height="26.2222" fill="#D9C8A9"/>
<rect x="603.555" y="289.222" width="26.2222" height="26.2222" fill="#D9C8A9"/>
<rect x="629.777" y="236.778" width="26.2222" height="26.2222" fill="#454444"/>
<rect x="603.555" y="79.4443" width="26.2222" height="26.2222" fill="#E0BB78"/>
<rect x="708.443" y="27" width="26.2222" height="26.2222" fill="#E0BB78"/>
<rect x="708.443" y="27" width="26.2222" height="26.2222" fill="#E0BB78"/>
<rect x="813.332" y="27" width="26.2222" height="26.2222" fill="#E0BB78"/>
<rect x="734.666" y="27" width="26.2222" height="26.2222" fill="#E0BB78"/>
<rect x="787.109" y="27" width="26.2222" height="26.2222" fill="#E0BB78"/>
<rect x="760.889" y="27" width="26.2222" height="26.2222" fill="#E0BB78"/>
<rect x="655.998" y="27" width="26.2222" height="26.2222" fill="#E0BB78"/>
<rect width="26.2222" height="26.2222" transform="matrix(-1 0 0 1 918.221 79.4443)" fill="#E0BB78"/>
<rect width="26.2222" height="26.2222" transform="matrix(-1 0 0 1 944.443 105.667)" fill="#E0BB78"/>
<rect width="26.2222" height="26.2222" transform="matrix(-1 0 0 1 944.443 131.889)" fill="#E0BB78"/>
<rect width="26.2222" height="26.2222" transform="matrix(-1 0 0 1 944.443 158.111)" fill="#E0BB78"/>
<rect width="26.2222" height="26.2222" transform="matrix(-1 0 0 1 865.777 27)" fill="#E0BB78"/>
<rect width="26.2222" height="26.2222" transform="matrix(-1 0 0 1 891.998 53.2222)" fill="#E0BB78"/>
<rect x="603.555" y="105.667" width="26.2222" height="26.2222" fill="#E0BB78"/>
<rect x="708.443" y="53.2222" width="26.2222" height="26.2222" fill="#E0BB78"/>
<rect x="708.443" y="53.2222" width="26.2222" height="26.2222" fill="#E0BB78"/>
<rect x="813.332" y="53.2222" width="26.2222" height="26.2222" fill="#E0BB78"/>
<rect x="734.666" y="53.2222" width="26.2222" height="26.2222" fill="#E0BB78"/>
<rect x="787.109" y="53.2222" width="26.2222" height="26.2222" fill="#E0BB78"/>
<rect x="760.889" y="53.2222" width="26.2222" height="26.2222" fill="#E0BB78"/>
<rect x="708.443" y="105.667" width="26.2222" height="26.2222" fill="#E0BB78"/>
<rect x="682.221" y="105.667" width="26.2222" height="26.2222" fill="#E0BB78"/>
<rect x="655.998" y="105.667" width="26.2222" height="26.2222" fill="#E0BB78"/>
<rect x="708.443" y="131.889" width="26.2222" height="26.2222" fill="#2E2E2E"/>
<rect x="682.221" y="131.889" width="26.2222" height="26.2222" fill="#2E2E2E"/>
<rect x="655.998" y="131.889" width="26.2222" height="26.2222" fill="#E0BB78"/>
<rect x="682.221" y="158.111" width="26.2222" height="26.2222" fill="#151515"/>
<rect x="603.555" y="158.111" width="26.2222" height="26.2222" fill="#151515"/>
<rect x="655.998" y="158.111" width="26.2222" height="26.2222" fill="#292929"/>
<rect x="629.777" y="158.111" width="26.2222" height="26.2222" fill="#151515"/>
<rect x="682.221" y="184.333" width="26.2222" height="26.2222" fill="#151515"/>
<rect x="603.555" y="184.333" width="26.2222" height="26.2222" fill="#2E2E2E"/>
<rect x="603.555" y="210.555" width="26.2222" height="26.2222" fill="#454444"/>
<rect x="655.998" y="184.333" width="26.2222" height="26.2222" fill="#151515"/>
<rect x="655.998" y="210.555" width="26.2222" height="26.2222" fill="#151515"/>
<rect x="629.777" y="184.333" width="26.2222" height="26.2222" fill="#151515"/>
<rect x="682.221" y="53.2222" width="26.2222" height="26.2222" fill="#E0BB78"/>
<rect x="655.998" y="53.2222" width="26.2222" height="26.2222" fill="#E0BB78"/>
<rect x="629.777" y="79.4443" width="26.2222" height="26.2222" fill="#E0BB78"/>
<rect x="603.555" y="131.889" width="26.2222" height="26.2222" fill="#E0BB78"/>
<rect x="629.777" y="105.667" width="26.2222" height="26.2222" fill="#E0BB78"/>
<rect x="629.777" y="131.889" width="26.2222" height="26.2222" fill="#E0BB78"/>
<rect width="26.2222" height="26.2222" transform="matrix(-1 0 0 1 918.221 105.667)" fill="#E0BB78"/>
<rect width="26.2222" height="26.2222" transform="matrix(-1 0 0 1 918.221 131.889)" fill="#E0BB78"/>
<rect width="26.2222" height="26.2222" transform="matrix(-1 0 0 1 865.777 53.2222)" fill="#E0BB78"/>
<rect x="682.221" y="79.4443" width="26.2222" height="26.2222" fill="#E0BB78"/>
<rect x="682.221" y="79.4443" width="26.2222" height="26.2222" fill="#E0BB78"/>
<rect x="787.109" y="79.4443" width="26.2222" height="26.2222" fill="#E0BB78"/>
<rect x="708.443" y="79.4443" width="26.2222" height="26.2222" fill="#E0BB78"/>
<rect x="760.889" y="79.4443" width="26.2222" height="26.2222" fill="#E0BB78"/>
<rect x="734.666" y="79.4443" width="26.2222" height="26.2222" fill="#E0BB78"/>
<rect x="655.998" y="79.4443" width="26.2222" height="26.2222" fill="#E0BB78"/>
<rect width="26.2222" height="26.2222" transform="matrix(-1 0 0 1 839.555 79.4443)" fill="#E0BB78"/>
<rect width="26.2222" height="26.2222" transform="matrix(-1 0 0 1 865.777 79.4443)" fill="#E0BB78"/>
<rect x="813.332" y="105.667" width="26.2222" height="26.2222" fill="#E0BB78"/>
<rect x="734.666" y="105.667" width="26.2222" height="26.2222" fill="#E0BB78"/>
<rect x="787.109" y="105.667" width="26.2222" height="26.2222" fill="#E0BB78"/>
<rect x="760.889" y="105.667" width="26.2222" height="26.2222" fill="#E0BB78"/>
<rect width="26.2222" height="26.2222" transform="matrix(-1 0 0 1 865.777 105.667)" fill="#E0BB78"/>
<rect width="26.2222" height="26.2222" transform="matrix(-1 0 0 1 891.998 79.4443)" fill="#E0BB78"/>
<rect x="839.555" y="210.555" width="26.2222" height="26.2222" fill="#C0AD89"/>
<rect x="865.777" y="210.555" width="26.2222" height="52.4444" fill="#E0BB78"/>
<rect x="813.332" y="210.555" width="26.2222" height="26.2222" fill="#C0AD89"/>
<rect x="787.109" y="210.555" width="26.2222" height="26.2222" fill="#AAAAAA"/>
<rect x="760.889" y="210.555" width="26.2222" height="52.4444" fill="#808080"/>
<rect x="734.666" y="210.555" width="26.2222" height="26.2222" fill="#2E2E2E"/>
<rect x="787.109" y="158.111" width="26.2222" height="26.2222" fill="#2E2E2E"/>
<rect x="760.889" y="158.111" width="26.2222" height="26.2222" fill="#292929"/>
<rect x="734.666" y="158.111" width="26.2222" height="26.2222" fill="#151515"/>
<rect width="26.2222" height="26.2222" transform="matrix(-1 0 0 1 839.555 158.111)" fill="#808080"/>
<rect width="26.2222" height="26.2222" transform="matrix(-1 0 0 1 865.777 158.111)" fill="#808080"/>
<rect width="26.2222" height="26.2222" transform="matrix(-1 0 0 1 891.998 184.333)" fill="#E0BB78"/>
<rect x="813.332" y="184.333" width="26.2222" height="26.2222" fill="#AAAAAA"/>
<rect x="734.666" y="184.333" width="26.2222" height="26.2222" fill="#2E2E2E"/>
<rect x="787.109" y="184.333" width="26.2222" height="26.2222" fill="#808080"/>
<rect x="760.889" y="184.333" width="26.2222" height="26.2222" fill="#2E2E2E"/>
<rect width="26.2222" height="26.2222" transform="matrix(-1 0 0 1 865.777 184.333)" fill="#AAAAAA"/>
<rect x="839.555" y="263" width="26.2222" height="26.2222" fill="#E0BB78"/>
<rect x="813.332" y="263" width="26.2222" height="26.2222" fill="#E0BB78"/>
<rect x="813.332" y="263" width="26.2222" height="26.2222" fill="#BB9147"/>
<rect x="813.332" y="236.778" width="26.2222" height="26.2222" fill="#F2DAAF"/>
<rect x="734.666" y="236.778" width="26.2222" height="26.2222" fill="#808080"/>
<rect x="787.109" y="236.778" width="26.2222" height="26.2222" fill="#836F4A"/>
<rect x="708.443" y="236.778" width="26.2222" height="26.2222" fill="#454444"/>
<rect x="708.443" y="210.555" width="26.2222" height="26.2222" fill="#2E2E2E"/>
<rect x="682.221" y="236.778" width="26.2222" height="26.2222" fill="#2E2E2E"/>
<rect x="708.443" y="289.222" width="26.2222" height="26.2222" fill="#948770"/>
<rect x="682.221" y="289.222" width="26.2222" height="26.2222" fill="#454444"/>
<rect x="682.221" y="263" width="26.2222" height="26.2222" fill="#454444"/>
<rect x="708.443" y="263" width="26.2222" height="26.2222" fill="#454444"/>
<rect x="708.443" y="315.444" width="26.2222" height="26.2222" fill="#D9C8A9"/>
<rect x="682.221" y="315.444" width="26.2222" height="26.2222" fill="#948770"/>
<rect x="708.443" y="367.889" width="26.2222" height="26.2222" fill="#F2DAAF"/>
<rect x="682.221" y="367.889" width="26.2222" height="26.2222" fill="#D9C8A9"/>
<rect x="682.221" y="341.667" width="26.2222" height="26.2222" fill="#D9C8A9"/>
<rect x="655.998" y="315.444" width="26.2222" height="26.2222" fill="#D9C8A9"/>
<rect x="629.777" y="263" width="26.2222" height="26.2222" fill="#948770"/>
<rect x="629.777" y="289.222" width="26.2222" height="26.2222" fill="#D9C8A9"/>
<rect x="629.777" y="315.444" width="26.2222" height="26.2222" fill="#D9C8A9"/>
<rect x="655.998" y="289.222" width="26.2222" height="26.2222" fill="#948770"/>
<rect x="655.998" y="263" width="26.2222" height="26.2222" fill="#454444"/>
<rect x="708.443" y="341.667" width="26.2222" height="26.2222" fill="#D9C8A9"/>
<rect width="26.2222" height="26.2222" transform="matrix(-1 0 0 1 865.777 236.778)" fill="#E0BB78"/>
<rect x="839.555" y="315.444" width="26.2222" height="26.2222" fill="#E0BB78"/>
<rect x="813.332" y="315.444" width="26.2222" height="26.2222" fill="#D7AB5D"/>
<rect x="787.109" y="236.778" width="26.2222" height="104.889" fill="#D7AB5D"/>
<rect x="813.332" y="289.222" width="26.2222" height="26.2222" fill="#D7AB5D"/>
<rect x="813.332" y="289.222" width="26.2222" height="26.2222" fill="#BB9147"/>
<rect width="26.2222" height="26.2222" transform="matrix(-1 0 0 1 865.777 289.222)" fill="#D1AC68"/>
<rect x="839.555" y="367.889" width="26.2222" height="26.2222" fill="#E0BB78"/>
<rect x="787.109" y="367.889" width="26.2222" height="26.2222" fill="#C6A366"/>
<rect x="813.332" y="341.667" width="26.2222" height="26.2222" fill="#E0BB78"/>
<rect x="813.332" y="341.667" width="26.2222" height="26.2222" fill="#AE8B4A"/>
<rect x="760.889" y="367.889" width="26.2222" height="26.2222" fill="#E0BB78"/>
<rect x="734.666" y="367.889" width="26.2222" height="26.2222" fill="#E0BB78"/>
<rect x="760.889" y="315.444" width="26.2222" height="52.4444" fill="#E0BB78"/>
<rect x="734.666" y="315.444" width="26.2222" height="52.4444" fill="#F2DAAF"/>
<rect width="52.4444" height="26.2222" transform="matrix(-1 0 0 1 891.998 341.667)" fill="#E0BB78"/>
<rect x="891.998" y="367.889" width="26.2222" height="26.2222" fill="#E0BB78"/>
<rect x="865.777" y="367.889" width="26.2222" height="26.2222" fill="#E0BB78"/>
<rect x="865.777" y="315.444" width="26.2222" height="26.2222" fill="#D1AC68"/>
<rect width="26.2222" height="26.2222" transform="matrix(-1 0 0 1 918.221 341.667)" fill="#D1AC68"/>
<rect x="891.998" y="210.555" width="26.2222" height="26.2222" fill="#E0BB78"/>
<rect x="891.998" y="184.333" width="26.2222" height="26.2222" fill="#E0BB78"/>
<rect x="918.221" y="210.555" width="26.2222" height="26.2222" fill="#E0BB78"/>
<rect x="918.221" y="263" width="26.2222" height="26.2222" fill="#C5994B"/>
<rect width="26.2222" height="26.2222" transform="matrix(-1 0 0 1 944.443 236.778)" fill="#E0BB78"/>
<rect width="26.2222" height="26.2222" transform="matrix(-1 0 0 1 918.221 236.778)" fill="#E0BB78"/>
<rect width="26.2222" height="26.2222" transform="matrix(-1 0 0 1 891.998 158.111)" fill="#AAAAAA"/>
<rect x="734.666" y="289.222" width="26.2222" height="26.2222" fill="#D9C8A9"/>
<rect x="760.889" y="289.222" width="26.2222" height="26.2222" fill="#E0BB78"/>
<rect x="891.998" y="289.222" width="26.2222" height="26.2222" fill="#E0BB78"/>
<rect x="865.777" y="289.222" width="26.2222" height="26.2222" fill="#E0BB78"/>
<rect x="891.998" y="315.444" width="26.2222" height="26.2222" fill="#E0BB78"/>
<rect x="813.332" y="367.889" width="26.2222" height="26.2222" fill="#AE8B4A"/>
<rect x="708.443" y="105.667" width="26.2222" height="26.2222" fill="#E0BB78"/>
<rect x="734.666" y="131.889" width="26.2222" height="26.2222" fill="#2E2E2E"/>
<rect x="760.889" y="131.889" width="26.2222" height="26.2222" fill="#E0BB78"/>
<rect x="787.109" y="105.667" width="26.2222" height="26.2222" fill="#E0BB78"/>
<rect x="813.332" y="105.667" width="26.2222" height="26.2222" fill="#E0BB78"/>
<rect x="839.555" y="105.667" width="26.2222" height="26.2222" fill="#E0BB78"/>
<rect x="655.998" y="27" width="26.2222" height="26.2222" fill="#E0BB78"/>
<rect x="682.221" y="27" width="26.2222" height="26.2222" fill="#E0BB78"/>
<rect x="655.998" y="53.2222" width="26.2222" height="26.2222" fill="#E0BB78"/>
<rect x="629.777" y="53.2222" width="26.2222" height="26.2222" fill="#E0BB78"/>
<rect x="682.221" y="79.4443" width="26.2222" height="26.2222" fill="#E0BB78"/>
<rect x="682.221" y="0.777832" width="52.4444" height="26.2222" fill="#E0BB78"/>
<rect x="734.666" y="0.777832" width="104.889" height="26.2222" fill="#E0BB78"/>
<rect x="865.777" y="131.889" width="26.2222" height="26.2222" fill="#E0BB78"/>
<rect x="891.998" y="158.111" width="26.2222" height="26.2222" fill="#C0AD89"/>
<rect x="918.221" y="131.889" width="26.2222" height="26.2222" fill="#C0AD89"/>
<rect x="891.998" y="105.667" width="26.2222" height="26.2222" fill="#E0BB78"/>
<rect x="918.221" y="79.4443" width="26.2222" height="26.2222" fill="#E0BB78"/>
<rect x="839.555" y="0.777832" width="26.2222" height="26.2222" fill="#E0BB78"/>
<rect x="865.777" y="27" width="26.2222" height="26.2222" fill="#E0BB78"/>
<rect x="708.443" y="79.4443" width="26.2222" height="26.2222" fill="#E0BB78"/>
<rect x="708.443" y="79.4443" width="26.2222" height="26.2222" fill="#E0BB78"/>
<rect x="734.666" y="105.667" width="52.4444" height="26.2222" fill="#E0BB78"/>
<rect x="813.332" y="79.4443" width="26.2222" height="26.2222" fill="#E0BB78"/>
<rect x="787.109" y="79.4443" width="26.2222" height="26.2222" fill="#E0BB78"/>
<rect width="52.4444" height="26.2222" transform="matrix(-1 0 0 1 918.221 79.4443)" fill="#E0BB78"/>
<rect x="918.221" y="79.4443" width="26.2222" height="26.2222" fill="#E0BB78"/>
<rect x="891.998" y="53.2222" width="26.2222" height="26.2222" fill="#E0BB78"/>
<rect x="708.443" y="53.2222" width="26.2222" height="26.2222" fill="#E0BB78"/>
<rect x="708.443" y="53.2222" width="26.2222" height="26.2222" fill="#E0BB78"/>
<rect x="682.221" y="79.4443" width="26.2222" height="26.2222" fill="#E0BB78"/>
<rect x="734.666" y="53.2222" width="26.2222" height="26.2222" fill="#E0BB78"/>
<rect x="813.332" y="53.2222" width="26.2222" height="26.2222" fill="#E0BB78"/>
<rect x="760.889" y="53.2222" width="52.4444" height="26.2222" fill="#E0BB78"/>
<rect x="708.443" y="79.4443" width="52.4444" height="26.2222" fill="#E0BB78"/>
<rect x="760.889" y="79.4443" width="26.2222" height="26.2222" fill="#E0BB78"/>
<rect x="682.221" y="53.2222" width="26.2222" height="26.2222" fill="#E0BB78"/>
<rect width="26.2222" height="26.2222" transform="matrix(-1 0 0 1 891.998 53.2222)" fill="#E0BB78"/>
<rect x="891.998" y="53.2222" width="26.2222" height="26.2222" fill="#E0BB78"/>
<rect x="682.221" y="53.2222" width="26.2222" height="26.2222" fill="#E0BB78"/>
<rect x="839.555" y="79.4443" width="52.4444" height="26.2222" fill="#E0BB78"/>
<rect x="839.555" y="53.2222" width="52.4444" height="26.2222" fill="#E0BB78"/>
<rect x="577.332" y="131.889" width="26.2222" height="26.2222" fill="#E0BB78"/>
<rect x="577.332" y="105.667" width="26.2222" height="26.2222" fill="#E0BB78"/>
<rect x="682.221" y="79.4443" width="26.2222" height="26.2222" fill="#E0BB78"/>
<rect x="708.443" y="53.2222" width="52.4444" height="26.2222" fill="#E0BB78"/>
<rect width="52.4444" height="26.2222" transform="matrix(-1 0 0 1 918.221 105.667)" fill="#E0BB78"/>
<rect width="26.2222" height="26.2222" transform="matrix(-1 0 0 1 813.332 394.111)" fill="#E0BB78"/>
<rect x="760.889" y="263" width="26.2222" height="26.2222" fill="#E0BB78"/>
<rect x="734.666" y="263" width="26.2222" height="26.2222" fill="#AAAAAA"/>
<rect x="865.777" y="263" width="26.2222" height="26.2222" fill="#E0BB78"/>
<rect x="891.998" y="263" width="26.2222" height="26.2222" fill="#E0BB78"/>
<rect x="760.889" y="263" width="26.2222" height="26.2222" fill="#E0BB78"/>
<rect width="26.2222" height="26.2222" transform="matrix(-1 0 0 1 891.998 263)" fill="#E0BB78"/>
<rect x="865.777" y="420.333" width="26.2222" height="26.2222" fill="#AE8B4A"/>
<rect x="787.109" y="341.667" width="26.2222" height="26.2222" fill="#C39B53"/>
<rect x="760.889" y="236.778" width="26.2222" height="104.889" fill="black" fill-opacity="0.34"/>
<rect width="26.2222" height="26.2222" transform="matrix(-1 0 0 1 682.221 131.889)" fill="#BA5632"/>
<rect width="26.2222" height="26.2222" transform="matrix(-1 0 0 1 787.109 131.889)" fill="#BA5632"/>
<rect width="26.2222" height="26.2222" transform="matrix(-1 0 0 1 813.332 131.889)" fill="#BA5632"/>
<rect width="26.2222" height="26.2222" transform="matrix(-1 0 0 1 944.443 79.4443)" fill="#808080"/>
<rect width="26.2222" height="26.2222" transform="matrix(-1 0 0 1 839.555 27)" fill="#D66D47"/>
<rect width="26.2222" height="26.2222" transform="matrix(-1 0 0 1 839.555 27)" fill="#3F3F3F"/>
<rect width="26.2222" height="26.2222" transform="matrix(-1 0 0 1 734.666 27)" fill="#666666"/>
<rect width="26.2222" height="26.2222" transform="matrix(-1 0 0 1 813.332 27)" fill="#3F3F3F"/>
<rect width="26.2222" height="26.2222" transform="matrix(-1 0 0 1 760.889 27)" fill="#3F3F3F"/>
<rect width="26.2222" height="26.2222" transform="matrix(-1 0 0 1 787.109 27)" fill="#3F3F3F"/>
<rect width="26.2222" height="26.2222" transform="matrix(-1 0 0 1 891.998 27)" fill="#D66D47"/>
<rect x="629.777" y="79.4443" width="26.2222" height="26.2222" fill="#EA845F"/>
<rect x="603.555" y="105.667" width="26.2222" height="26.2222" fill="#151515"/>
<rect x="603.555" y="131.889" width="26.2222" height="26.2222" fill="#D66D47"/>
<rect x="682.221" y="27" width="26.2222" height="26.2222" fill="#666666"/>
<rect x="655.998" y="53.2222" width="26.2222" height="26.2222" fill="#EA845F"/>
<rect width="26.2222" height="26.2222" transform="matrix(-1 0 0 1 944.443 105.667)" fill="#AAAAAA"/>
<rect width="26.2222" height="26.2222" transform="matrix(-1 0 0 1 839.555 53.2222)" fill="#D66D47"/>
<rect width="26.2222" height="26.2222" transform="matrix(-1 0 0 1 839.555 53.2222)" fill="#D66D47"/>
<rect width="26.2222" height="26.2222" transform="matrix(-1 0 0 1 734.666 53.2222)" fill="#EA845F"/>
<rect width="26.2222" height="26.2222" transform="matrix(-1 0 0 1 813.332 53.2222)" fill="#D66D47"/>
<rect width="26.2222" height="26.2222" transform="matrix(-1 0 0 1 760.889 53.2222)" fill="#D66D47"/>
<rect width="26.2222" height="26.2222" transform="matrix(-1 0 0 1 787.109 53.2222)" fill="#D66D47"/>
<rect width="26.2222" height="26.2222" transform="matrix(-1 0 0 1 839.555 105.667)" fill="#B1B1B1"/>
<rect width="26.2222" height="26.2222" transform="matrix(-1 0 0 1 865.777 105.667)" fill="black"/>
<rect width="26.2222" height="26.2222" transform="matrix(-1 0 0 1 891.998 105.667)" fill="#2E2E2E"/>
<rect width="26.2222" height="26.2222" transform="matrix(-1 0 0 1 839.555 131.889)" fill="#2E2E2E"/>
<rect width="26.2222" height="26.2222" transform="matrix(-1 0 0 1 865.777 131.889)" fill="#2E2E2E"/>
<rect width="26.2222" height="26.2222" transform="matrix(-1 0 0 1 891.998 131.889)" fill="#808080"/>
<rect width="26.2222" height="26.2222" transform="matrix(-1 0 0 1 865.777 53.2222)" fill="#D66D47"/>
<rect width="26.2222" height="26.2222" transform="matrix(-1 0 0 1 891.998 53.2222)" fill="#D66D47"/>
<rect width="26.2222" height="26.2222" transform="matrix(-1 0 0 1 918.221 79.4443)" fill="#2E2E2E"/>
<rect width="26.2222" height="26.2222" transform="matrix(-1 0 0 1 918.221 105.667)" fill="#808080"/>
<rect width="26.2222" height="26.2222" transform="matrix(-1 0 0 1 918.221 131.889)" fill="#AAAAAA"/>
<rect x="629.777" y="105.667" width="26.2222" height="26.2222" fill="#B1B1B1"/>
<rect x="629.777" y="131.889" width="26.2222" height="26.2222" fill="#464646"/>
<rect x="682.221" y="53.2222" width="26.2222" height="26.2222" fill="#D66D47"/>
<rect width="26.2222" height="26.2222" transform="matrix(-1 0 0 1 865.777 79.4443)" fill="#D66D47"/>
<rect width="26.2222" height="26.2222" transform="matrix(-1 0 0 1 865.777 79.4443)" fill="#D66D47"/>
<rect width="26.2222" height="26.2222" transform="matrix(-1 0 0 1 760.889 79.4443)" fill="#D66D47"/>
<rect width="26.2222" height="26.2222" transform="matrix(-1 0 0 1 839.555 79.4443)" fill="#D66D47"/>
<rect width="26.2222" height="26.2222" transform="matrix(-1 0 0 1 787.109 79.4443)" fill="#D66D47"/>
<rect width="26.2222" height="26.2222" transform="matrix(-1 0 0 1 813.332 79.4443)" fill="#D66D47"/>
<rect width="26.2222" height="26.2222" transform="matrix(-1 0 0 1 891.998 79.4443)" fill="#2E2E2E"/>
<rect x="708.443" y="79.4443" width="26.2222" height="26.2222" fill="#D66D47"/>
<rect x="682.221" y="79.4443" width="26.2222" height="26.2222" fill="#EA845F"/>
<rect width="26.2222" height="26.2222" transform="matrix(-1 0 0 1 734.666 105.667)" fill="#B1B1B1"/>
<rect width="26.2222" height="26.2222" transform="matrix(-1 0 0 1 813.332 105.667)" fill="#B1B1B1"/>
<rect width="26.2222" height="26.2222" transform="matrix(-1 0 0 1 760.889 105.667)" fill="#B1B1B1"/>
<rect width="26.2222" height="26.2222" transform="matrix(-1 0 0 1 787.109 105.667)" fill="#B1B1B1"/>
<rect x="682.221" y="105.667" width="26.2222" height="26.2222" fill="#B1B1B1"/>
<rect x="655.998" y="79.4443" width="26.2222" height="26.2222" fill="#D66D47"/>
<rect width="26.2222" height="26.2222" transform="matrix(-1 0 0 1 839.555 105.667)" fill="#151515"/>
<rect width="26.2222" height="26.2222" transform="matrix(-1 0 0 1 813.332 131.889)" fill="black"/>
<rect width="26.2222" height="26.2222" transform="matrix(-1 0 0 1 787.109 131.889)" fill="black"/>
<rect width="26.2222" height="26.2222" transform="matrix(-1 0 0 1 760.889 105.667)" fill="black"/>
<rect width="26.2222" height="26.2222" transform="matrix(-1 0 0 1 734.666 105.667)" fill="black"/>
<rect width="26.2222" height="26.2222" transform="matrix(-1 0 0 1 708.443 105.667)" fill="black"/>
<rect width="26.2222" height="26.2222" transform="matrix(-1 0 0 1 891.998 27)" fill="#393939"/>
<rect width="26.2222" height="26.2222" transform="matrix(-1 0 0 1 865.777 27)" fill="black"/>
<rect width="26.2222" height="26.2222" transform="matrix(-1 0 0 1 891.998 53.2222)" fill="black"/>
<rect width="26.2222" height="26.2222" transform="matrix(-1 0 0 1 918.221 53.2222)" fill="black"/>
<rect width="26.2222" height="26.2222" transform="matrix(-1 0 0 1 865.777 79.4443)" fill="black"/>
<rect width="52.4444" height="26.2222" transform="matrix(-1 0 0 1 865.777 0.777832)" fill="black"/>
<rect width="104.889" height="26.2222" transform="matrix(-1 0 0 1 813.332 0.777832)" fill="black"/>
<rect width="26.2222" height="26.2222" transform="matrix(-1 0 0 1 682.221 131.889)" fill="black"/>
<rect width="26.2222" height="26.2222" transform="matrix(-1 0 0 1 629.777 131.889)" fill="black"/>
<rect width="26.2222" height="26.2222" transform="matrix(-1 0 0 1 655.998 105.667)" fill="#B1B1B1"/>
<rect width="26.2222" height="26.2222" transform="matrix(-1 0 0 1 629.777 79.4443)" fill="black"/>
<rect width="26.2222" height="26.2222" transform="matrix(-1 0 0 1 708.443 0.777832)" fill="black"/>
<rect width="26.2222" height="26.2222" transform="matrix(-1 0 0 1 682.221 27)" fill="#151515"/>
<rect width="26.2222" height="26.2222" transform="matrix(-1 0 0 1 839.555 79.4443)" fill="#D66D47"/>
<rect width="26.2222" height="26.2222" transform="matrix(-1 0 0 1 839.555 79.4443)" fill="#3F3F3F"/>
<rect width="52.4444" height="26.2222" transform="matrix(-1 0 0 1 813.332 105.667)" fill="#3F3F3F"/>
<rect width="26.2222" height="26.2222" transform="matrix(-1 0 0 1 734.666 79.4443)" fill="#3F3F3F"/>
<rect width="26.2222" height="26.2222" transform="matrix(-1 0 0 1 760.889 79.4443)" fill="#3F3F3F"/>
<rect x="629.777" y="79.4443" width="52.4444" height="26.2222" fill="#151515"/>
<rect width="26.2222" height="26.2222" transform="matrix(-1 0 0 1 629.777 79.4443)" fill="#151515"/>
<rect width="26.2222" height="26.2222" transform="matrix(-1 0 0 1 655.998 53.2222)" fill="black"/>
<rect width="26.2222" height="26.2222" transform="matrix(-1 0 0 1 839.555 53.2222)" fill="#B9B9B9"/>
<rect width="26.2222" height="26.2222" transform="matrix(-1 0 0 1 839.555 53.2222)" fill="#B9B9B9"/>
<rect width="26.2222" height="26.2222" transform="matrix(-1 0 0 1 865.777 79.4443)" fill="#B9B9B9"/>
<rect width="26.2222" height="26.2222" transform="matrix(-1 0 0 1 813.332 53.2222)" fill="#B9B9B9"/>
<rect width="52.4444" height="26.2222" transform="matrix(-1 0 0 1 787.109 53.2222)" fill="#151515"/>
<rect width="52.4444" height="26.2222" transform="matrix(-1 0 0 1 839.555 79.4443)" fill="#151515"/>
<rect width="26.2222" height="26.2222" transform="matrix(-1 0 0 1 787.109 79.4443)" fill="#151515"/>
<rect width="26.2222" height="26.2222" transform="matrix(-1 0 0 1 865.777 53.2222)" fill="#B9B9B9"/>
<rect x="655.998" y="53.2222" width="26.2222" height="26.2222" fill="#616161"/>
<rect width="26.2222" height="26.2222" transform="matrix(-1 0 0 1 655.998 53.2222)" fill="#151515"/>
<rect width="26.2222" height="26.2222" transform="matrix(-1 0 0 1 865.777 53.2222)" fill="#3F3F3F"/>
<rect width="52.4444" height="26.2222" transform="matrix(-1 0 0 1 708.443 79.4443)" fill="#3F3F3F"/>
<rect width="52.4444" height="26.2222" transform="matrix(-1 0 0 1 708.443 53.2222)" fill="#666666"/>
<rect width="26.2222" height="78.6667" transform="matrix(-1 0 0 1 603.555 131.889)" fill="#2F2F2F"/>
<rect width="26.2222" height="26.2222" transform="matrix(-1 0 0 1 603.555 105.667)" fill="black"/>
<rect width="26.2222" height="26.2222" transform="matrix(-1 0 0 1 865.777 79.4443)" fill="#3F3F3F"/>
<rect width="52.4444" height="26.2222" transform="matrix(-1 0 0 1 839.555 53.2222)" fill="#3F3F3F"/>
<rect x="629.777" y="105.667" width="52.4444" height="26.2222" fill="#434343"/>
<rect width="52.4444" height="26.2222" transform="matrix(-1 0 0 1 734.666 53.2222)" fill="#151515"/>
<rect x="918.221" y="236.778" width="26.2222" height="26.2222" fill="#202020"/>
<rect x="1521.33" y="1259.44" width="52.4444" height="26.2222" transform="rotate(-90 1521.33 1259.44)" fill="#6B7EBA"/>
<rect x="1495.11" y="1364.33" width="26.2222" height="52.4444" transform="rotate(-90 1495.11 1364.33)" fill="#212121"/>
<rect x="1573.78" y="1338.11" width="78.6667" height="26.2222" transform="rotate(-90 1573.78 1338.11)" fill="#212121"/>
<rect x="1573.78" y="1207" width="104.889" height="26.2222" transform="rotate(-90 1573.78 1207)" fill="#212121"/>
<rect x="1468.89" y="1364.33" width="26.2222" height="26.2222" transform="rotate(-90 1468.89 1364.33)" fill="#212121"/>
<rect x="1521.33" y="1338.11" width="26.2222" height="52.4444" transform="rotate(-90 1521.33 1338.11)" fill="#212121"/>
<rect x="1495.11" y="1311.89" width="26.2222" height="26.2222" transform="rotate(-90 1495.11 1311.89)" fill="#212121"/>
<rect x="1468.89" y="1285.67" width="26.2222" height="26.2222" transform="rotate(-90 1468.89 1285.67)" fill="#212121"/>
<rect x="1521.33" y="1259.44" width="26.2222" height="26.2222" transform="rotate(-90 1521.33 1259.44)" fill="#212121"/>
<rect x="1495.11" y="1233.22" width="26.2222" height="26.2222" transform="rotate(-90 1495.11 1233.22)" fill="#212121"/>
<rect x="1521.33" y="1180.78" width="26.2222" height="26.2222" transform="rotate(-90 1521.33 1180.78)" fill="#212121"/>
<rect x="1495.11" y="1154.56" width="26.2222" height="26.2222" transform="rotate(-90 1495.11 1154.56)" fill="#008FDC"/>
<rect x="1521.33" y="1311.89" width="52.4444" height="26.2222" transform="rotate(-90 1521.33 1311.89)" fill="#2C4DB3"/>
<rect width="52.4444" height="26.2222" transform="matrix(1 0 0 -1 1468.89 1338.11)" fill="#2C4DB3"/>
<rect x="1495.11" y="1285.67" width="26.2222" height="26.2222" transform="rotate(-90 1495.11 1285.67)" fill="#476EE7"/>
<rect x="1468.89" y="1311.89" width="26.2222" height="26.2222" transform="rotate(-90 1468.89 1311.89)" fill="#476EE7"/>
<rect x="1521.33" y="1233.22" width="26.2222" height="26.2222" transform="rotate(-90 1521.33 1233.22)" fill="#476EE7"/>
<rect x="1521.33" y="1207" width="26.2222" height="26.2222" transform="rotate(-90 1521.33 1207)" fill="#2983E4"/>
<rect x="1521.33" y="1154.56" width="26.2222" height="26.2222" transform="rotate(-90 1521.33 1154.56)" fill="#2983E4"/>
<rect x="1521.33" y="1128.33" width="26.2222" height="26.2222" transform="rotate(-90 1521.33 1128.33)" fill="#008FDC"/>
<rect x="1521.33" y="1102.11" width="26.2222" height="26.2222" transform="rotate(-90 1521.33 1102.11)" fill="#27B4FE"/>
<rect x="1495.11" y="1259.44" width="26.2222" height="26.2222" transform="rotate(-90 1495.11 1259.44)" fill="#5E81EF"/>
<rect x="1468.89" y="1259.44" width="52.4444" height="26.2222" transform="rotate(-90 1468.89 1259.44)" fill="#5E81EF"/>
<rect x="1495.11" y="1180.78" width="26.2222" height="26.2222" transform="rotate(-90 1495.11 1180.78)" fill="#008FDC"/>
<rect x="1495.11" y="1207" width="26.2222" height="26.2222" transform="rotate(-90 1495.11 1207)" fill="#428CDC"/>
<rect x="1547.55" y="1259.44" width="52.4444" height="26.2222" transform="rotate(-90 1547.55 1259.44)" fill="#6B7EBA"/>
<rect x="1521.33" y="1364.33" width="26.2222" height="52.4444" transform="rotate(-90 1521.33 1364.33)" fill="#212121"/>
<rect x="1547.55" y="1311.89" width="52.4444" height="26.2222" transform="rotate(-90 1547.55 1311.89)" fill="#2C4DB3"/>
<rect x="1547.55" y="1233.22" width="26.2222" height="26.2222" transform="rotate(-90 1547.55 1233.22)" fill="#476EE7"/>
<rect x="1547.55" y="1259.44" width="26.2222" height="26.2222" transform="rotate(-90 1547.55 1259.44)" fill="#476EE7"/>
<rect x="1547.55" y="1207" width="26.2222" height="26.2222" transform="rotate(-90 1547.55 1207)" fill="#2983E4"/>
<rect x="1547.55" y="1154.56" width="26.2222" height="26.2222" transform="rotate(-90 1547.55 1154.56)" fill="#2983E4"/>
<rect x="1547.55" y="1180.78" width="26.2222" height="26.2222" transform="rotate(-90 1547.55 1180.78)" fill="#146CC9"/>
<rect x="1547.55" y="1128.33" width="26.2222" height="26.2222" transform="rotate(-90 1547.55 1128.33)" fill="#008FDC"/>
<rect x="1547.55" y="1102.11" width="26.2222" height="26.2222" transform="rotate(-90 1547.55 1102.11)" fill="#212121"/>
<rect x="1573.78" y="1364.33" width="52.4444" height="26.2222" transform="rotate(-90 1573.78 1364.33)" fill="#EDD130"/>
<rect x="1573.78" y="1364.33" width="26.2222" height="26.2222" transform="rotate(-90 1573.78 1364.33)" fill="#C5AB19"/>
<rect x="1573.78" y="1285.67" width="26.2222" height="26.2222" transform="rotate(-90 1573.78 1285.67)" fill="#EDD130"/>
<rect x="1573.78" y="1180.78" width="26.2222" height="26.2222" transform="rotate(-90 1573.78 1180.78)" fill="#EDD130"/>
<rect x="1573.78" y="1128.33" width="26.2222" height="26.2222" transform="rotate(-90 1573.78 1128.33)" fill="#EDD130"/>
<rect x="1573.78" y="1128.33" width="26.2222" height="26.2222" transform="rotate(-90 1573.78 1128.33)" fill="#212121"/>
<rect x="1547.55" y="1311.89" width="52.4444" height="26.2222" transform="rotate(-90 1547.55 1311.89)" fill="#212121"/>
<rect x="1547.55" y="1207" width="26.2222" height="26.2222" transform="rotate(-90 1547.55 1207)" fill="#212121"/>
<rect x="944.443" y="1311.89" width="236" height="131.111" fill="#191919"/>
<rect x="970.666" y="1285.67" width="367.111" height="104.889" fill="#191919"/>
<rect x="1232.89" y="1259.44" width="209.778" height="104.889" fill="#191919"/>
<rect x="1442.67" y="1259.44" width="26.2222" height="78.6667" fill="#696969"/>
<rect x="1180.44" y="1390.56" width="104.889" height="26.2222" fill="#191919"/>
<rect x="1023.11" y="1233.22" width="209.778" height="52.4444" fill="#191919"/>
<rect x="1101.78" y="1207" width="104.889" height="52.4444" fill="#191919"/>
<rect x="1049.33" y="1259.44" width="131.111" height="26.2222" fill="#191919"/>
<rect x="1442.67" y="997.222" width="26.2222" height="26.2222" fill="#FFE347"/>
<rect x="1626.22" y="1075.89" width="26.2222" height="26.2222" fill="#FFE347"/>
<rect x="1652.44" y="1049.67" width="26.2222" height="26.2222" fill="#FFE347"/>
<rect x="1468.89" y="1023.44" width="26.2222" height="26.2222" fill="#FFE347"/>
<rect x="1573.78" y="997.222" width="26.2222" height="26.2222" fill="#FFE347"/>
<rect x="1600" y="971" width="26.2222" height="26.2222" fill="#FFE347"/>
<rect width="209.778" height="26.2222" transform="matrix(-1 0 0 1 1101.78 813.667)" fill="#242424"/>
<rect width="209.778" height="26.2222" transform="matrix(-1 0 0 1 1101.78 735)" fill="#333333"/>
<rect width="209.778" height="26.2222" transform="matrix(-1 0 0 1 1101.78 761.222)" fill="#4B4B4B"/>
<rect width="209.778" height="26.2222" transform="matrix(-1 0 0 1 1101.78 761.222)" fill="#4B4B4B"/>
<rect width="209.778" height="26.2222" transform="matrix(-1 0 0 1 1101.78 787.444)" fill="#2E2E2E"/>
<rect width="52.4444" height="26.2222" transform="matrix(-1 0 0 1 944.443 551.444)" fill="black"/>
<rect width="26.2222" height="26.2222" transform="matrix(-1 0 0 1 970.666 577.667)" fill="black"/>
<rect width="26.2222" height="26.2222" transform="matrix(-1 0 0 1 970.666 577.667)" fill="black"/>
<rect width="26.2222" height="26.2222" transform="matrix(-1 0 0 1 1023.11 630.111)" fill="black"/>
<rect width="26.2222" height="26.2222" transform="matrix(-1 0 0 1 996.889 656.333)" fill="black"/>
<rect width="26.2222" height="26.2222" transform="matrix(-1 0 0 1 1023.11 682.556)" fill="black"/>
<rect width="26.2222" height="26.2222" transform="matrix(-1 0 0 1 1023.11 682.556)" fill="black"/>
<rect width="26.2222" height="26.2222" transform="matrix(-1 0 0 1 1049.33 656.333)" fill="black"/>
<rect width="26.2222" height="26.2222" transform="matrix(-1 0 0 1 1075.55 682.556)" fill="black"/>
<rect width="26.2222" height="52.4444" transform="matrix(-1 0 0 1 1101.78 708.778)" fill="black"/>
<rect width="26.2222" height="78.6667" transform="matrix(-1 0 0 1 1128 761.222)" fill="black"/>
<rect width="26.2222" height="26.2222" transform="matrix(-1 0 0 1 1101.78 839.889)" fill="black"/>
<rect width="104.889" height="26.2222" transform="matrix(-1 0 0 1 1075.55 866.111)" fill="black"/>
<rect width="104.889" height="26.2222" transform="matrix(-1 0 0 1 996.889 839.889)" fill="black"/>
<rect width="104.889" height="26.2222" transform="matrix(-1 0 0 1 1075.55 839.889)" fill="#323232"/>
<rect width="78.6667" height="26.2222" transform="matrix(-1 0 0 1 970.666 708.778)" fill="#111111"/>
<rect width="157.333" height="26.2222" transform="matrix(-1 0 0 1 1049.33 682.556)" fill="#1E1E1E"/>
<rect width="104.889" height="26.2222" transform="matrix(-1 0 0 1 1075.55 708.778)" fill="#1E1E1E"/>
<rect width="26.2222" height="26.2222" transform="matrix(-1 0 0 1 996.889 682.556)" fill="#1E1E1E"/>
<rect width="52.4444" height="104.889" transform="matrix(-1 0 0 1 944.443 577.667)" fill="#262626"/>
<rect width="52.4444" height="78.6667" transform="matrix(-1 0 0 1 996.889 603.889)" fill="#262626"/>
<rect width="131.111" height="26.2222" transform="matrix(-1 0 0 1 1023.11 656.333)" fill="#242424"/>
<rect width="52.4444" height="26.2222" transform="matrix(-1 0 0 1 944.443 577.667)" fill="#333333"/>
<rect width="78.6667" height="26.2222" transform="matrix(-1 0 0 1 970.666 603.889)" fill="#4B4B4B"/>
<rect width="78.6667" height="26.2222" transform="matrix(-1 0 0 1 970.666 603.889)" fill="#4B4B4B"/>
<rect width="104.889" height="26.2222" transform="matrix(-1 0 0 1 996.889 630.111)" fill="#2E2E2E"/>
<rect width="26.2222" height="26.2222" transform="matrix(-1 0 0 1 1023.11 656.333)" fill="#262626"/>
<rect x="524.889" y="1652.78" width="26.2222" height="26.2222" fill="black"/>
<rect x="498.666" y="1652.78" width="26.2222" height="26.2222" fill="black"/>
<rect x="341.332" y="1679" width="104.889" height="26.2222" fill="black"/>
<rect x="341.332" y="1652.78" width="104.889" height="26.2222" fill="black"/>
<rect x="446.221" y="1679" width="26.2222" height="26.2222" fill="black"/>
<rect x="446.221" y="1652.78" width="26.2222" height="26.2222" fill="black"/>
<rect x="472.443" y="1679" width="26.2222" height="26.2222" fill="black"/>
<rect x="498.666" y="1679" width="26.2222" height="26.2222" fill="black"/>
<rect x="524.889" y="1679" width="26.2222" height="26.2222" fill="black"/>
<rect x="472.443" y="1652.78" width="26.2222" height="26.2222" fill="black"/>
<rect x="551.109" y="1679" width="26.2222" height="26.2222" fill="black"/>
<rect x="551.109" y="1652.78" width="26.2222" height="26.2222" fill="black"/>
<rect x="341.332" y="1574.11" width="104.889" height="52.4444" fill="black"/>
<rect x="446.221" y="1574.11" width="26.2222" height="52.4444" fill="black"/>
<rect x="472.443" y="1574.11" width="26.2222" height="52.4444" fill="black"/>
<rect x="498.666" y="1574.11" width="26.2222" height="52.4444" fill="black"/>
<rect x="341.332" y="1574.11" width="104.889" height="52.4444" fill="black"/>
<rect x="446.221" y="1574.11" width="26.2222" height="52.4444" fill="black"/>
<rect x="472.443" y="1574.11" width="26.2222" height="52.4444" fill="black"/>
<rect x="498.666" y="1574.11" width="26.2222" height="52.4444" fill="black"/>
<rect x="524.889" y="1574.11" width="26.2222" height="52.4444" fill="black"/>
<rect x="551.109" y="1574.11" width="52.4444" height="52.4444" fill="black"/>
<rect x="603.555" y="1574.11" width="26.2222" height="52.4444" fill="black"/>
<rect x="629.777" y="1574.11" width="52.4444" height="52.4444" fill="black"/>
<rect x="524.889" y="1574.11" width="26.2222" height="52.4444" fill="black"/>
<rect x="551.109" y="1574.11" width="52.4444" height="52.4444" fill="black"/>
<rect x="603.555" y="1574.11" width="26.2222" height="52.4444" fill="black"/>
<rect x="629.777" y="1574.11" width="52.4444" height="52.4444" fill="black"/>
<rect x="341.332" y="1626.56" width="104.889" height="26.2222" fill="black"/>
<rect x="446.221" y="1626.56" width="26.2222" height="26.2222" fill="black"/>
<rect x="472.443" y="1626.56" width="26.2222" height="26.2222" fill="black"/>
<rect x="498.666" y="1626.56" width="26.2222" height="26.2222" fill="black"/>
<rect x="341.332" y="1574.11" width="104.889" height="78.6667" fill="black"/>
<rect x="446.221" y="1626.56" width="26.2222" height="26.2222" fill="black"/>
<rect x="472.443" y="1626.56" width="26.2222" height="26.2222" fill="black"/>
<rect x="498.666" y="1626.56" width="26.2222" height="26.2222" fill="black"/>
<rect x="524.889" y="1626.56" width="26.2222" height="26.2222" fill="black"/>
<rect x="551.109" y="1626.56" width="26.2222" height="26.2222" fill="black"/>
<rect x="577.332" y="1626.56" width="26.2222" height="26.2222" fill="black"/>
<rect x="603.555" y="1626.56" width="26.2222" height="26.2222" fill="black"/>
<rect x="524.889" y="1626.56" width="26.2222" height="26.2222" fill="black"/>
<rect x="551.109" y="1626.56" width="26.2222" height="26.2222" fill="black"/>
<rect x="577.332" y="1626.56" width="26.2222" height="26.2222" fill="black"/>
<rect x="603.555" y="1626.56" width="26.2222" height="26.2222" fill="black"/>
<rect width="26.2222" height="52.4444" transform="matrix(-1 0 0 1 603.555 1652.78)" fill="black"/>
<rect width="26.2222" height="26.2222" transform="matrix(-1 0 0 1 577.332 1705.22)" fill="black"/>
<rect width="26.2222" height="26.2222" transform="matrix(-1 0 0 1 551.109 1705.22)" fill="black"/>
<rect width="26.2222" height="26.2222" transform="matrix(-1 0 0 1 524.889 1705.22)" fill="black"/>
<rect width="26.2222" height="26.2222" transform="matrix(-1 0 0 1 498.666 1705.22)" fill="black"/>
<rect width="26.2222" height="26.2222" transform="matrix(-1 0 0 1 472.443 1705.22)" fill="black"/>
<rect width="104.889" height="26.2222" transform="matrix(-1 0 0 1 446.221 1705.22)" fill="black"/>
<rect width="26.2222" height="52.4444" transform="matrix(-1 0 0 1 603.555 1679)" fill="black"/>
<rect width="26.2222" height="26.2222" transform="matrix(-1 0 0 1 577.332 1731.44)" fill="black"/>
<rect width="26.2222" height="26.2222" transform="matrix(-1 0 0 1 551.109 1731.44)" fill="black"/>
<rect width="26.2222" height="26.2222" transform="matrix(-1 0 0 1 524.889 1731.44)" fill="black"/>
<rect width="26.2222" height="26.2222" transform="matrix(-1 0 0 1 498.666 1731.44)" fill="black"/>
<rect width="183.556" height="26.2222" transform="matrix(-1 0 0 1 472.443 1731.44)" fill="black"/>
<rect x="262.666" y="1731.44" width="26.2222" height="26.2222" fill="black"/>
<rect x="262.666" y="1705.22" width="78.6667" height="26.2222" fill="black"/>
<rect x="288.889" y="1783.89" width="157.333" height="26.2222" fill="black"/>
<rect x="315.109" y="1547.89" width="26.2222" height="78.6667" fill="black"/>
<rect x="288.889" y="1757.67" width="183.556" height="26.2222" fill="black"/>
<rect x="472.443" y="1757.67" width="26.2222" height="26.2222" fill="black"/>
<rect x="498.666" y="1757.67" width="26.2222" height="26.2222" fill="black"/>
<rect x="315.109" y="1626.56" width="26.2222" height="26.2222" fill="black"/>
<rect x="288.889" y="1757.67" width="183.556" height="26.2222" fill="black"/>
<rect x="472.443" y="1757.67" width="26.2222" height="26.2222" fill="black"/>
<rect x="498.666" y="1757.67" width="26.2222" height="26.2222" fill="black"/>
<rect x="288.889" y="1600.33" width="52.4444" height="78.6667" fill="black"/>
<rect x="446.221" y="1783.89" width="26.2222" height="26.2222" fill="black"/>
<rect x="288.889" y="1679" width="52.4444" height="26.2222" fill="black"/>
<rect x="446.221" y="1783.89" width="26.2222" height="26.2222" fill="black"/>
<rect width="131.111" height="26.2222" transform="matrix(-1 0 0 1 419.998 1810.11)" fill="black"/>
<rect width="52.4444" height="78.6667" transform="matrix(-1 0 0 1 288.889 1757.67)" fill="black"/>
<rect width="183.556" height="26.2222" transform="matrix(-1 0 0 1 393.777 1836.33)" fill="black"/>
<rect width="52.4444" height="26.2222" transform="matrix(-1 0 0 1 210.221 1836.33)" fill="black"/>
<rect x="131.555" y="1862.56" width="78.6667" height="26.2222" fill="black"/>
<rect x="341.332" y="1862.56" width="52.4444" height="26.2222" fill="black"/>
<rect width="131.111" height="26.2222" transform="matrix(-1 0 0 1 341.332 1862.56)" fill="black"/>
<rect width="104.889" height="26.2222" transform="matrix(-1 0 0 1 262.666 1915)" fill="#1A1A1A"/>
<rect width="78.6667" height="26.2222" transform="matrix(-1 0 0 1 341.332 1888.78)" fill="black"/>
<rect width="52.4444" height="78.6667" transform="matrix(-1 0 0 1 682.221 1574.11)" fill="black"/>
<rect x="629.777" y="1652.78" width="26.2222" height="52.4444" fill="#1A1A1A"/>
<rect x="603.555" y="1652.78" width="26.2222" height="52.4444" fill="black"/>
<rect x="105.332" y="1888.78" width="131.111" height="26.2222" fill="black"/>
<rect x="236.443" y="1888.78" width="26.2222" height="26.2222" fill="black"/>
<rect x="524.889" y="1626.56" width="52.4444" height="26.2222" fill="black"/>
<rect x="524.889" y="1626.56" width="52.4444" height="26.2222" fill="black"/>
<path d="M603.554 1626.56H577.332V1652.78H603.554V1626.56Z" fill="black"/>
<rect x="603.555" y="1626.56" width="26.2222" height="26.2222" fill="black"/>
<rect x="603.555" y="1626.56" width="26.2222" height="26.2222" fill="black"/>
<rect x="603.555" y="1626.56" width="26.2222" height="26.2222" fill="black"/>
<rect x="603.555" y="1626.56" width="26.2222" height="26.2222" fill="black"/>
<rect x="603.555" y="315.445" width="26.2222" height="26.2222" fill="#F2DAAF"/>
<rect x="787.109" y="341.667" width="26.2222" height="26.2222" fill="#E0BB78"/>
<rect x="760.889" y="341.667" width="52.4444" height="26.2222" fill="#E0BB78"/>
<rect x="734.666" y="341.667" width="26.2222" height="26.2222" fill="#E0BB78"/>
<rect x="708.443" y="341.667" width="26.2222" height="26.2222" fill="#E0BB78"/>
<rect x="682.221" y="315.445" width="26.2222" height="26.2222" fill="black"/>
<rect x="629.777" y="341.667" width="26.2222" height="26.2222" fill="#E0BB78"/>
<rect x="629.777" y="315.445" width="26.2222" height="26.2222" fill="#E0BB78"/>
<rect x="682.221" y="341.667" width="26.2222" height="26.2222" fill="#E0BB78"/>
<rect x="682.221" y="315.445" width="26.2222" height="26.2222" fill="#E0BB78"/>
<rect x="656" y="341.667" width="26.2222" height="26.2222" fill="#E0BB78"/>
<rect x="656" y="315.445" width="26.2222" height="26.2222" fill="#E0BB78"/>
<rect x="708.443" y="341.667" width="26.2222" height="26.2222" fill="#E0BB78"/>
<rect x="708.443" y="341.667" width="26.2222" height="26.2222" fill="#E0BB78"/>
<rect x="603.555" y="341.667" width="26.2222" height="26.2222" fill="#E0BB78"/>
<rect x="656" y="315.445" width="26.2222" height="26.2222" fill="black"/>
<rect x="708.443" y="1469.22" width="26.2222" height="26.2222" fill="#D9D9D9"/>
<rect x="708.443" y="1469.22" width="26.2222" height="26.2222" fill="#313131"/>
<rect x="682.221" y="1521.67" width="26.2222" height="52.4444" fill="#1A1A1A"/>
<rect x="446.221" y="1469.22" width="26.2222" height="26.2222" fill="#D9D9D9"/>
<rect x="472.443" y="1469.22" width="26.2222" height="26.2222" fill="#D9D9D9"/>
<rect x="446.221" y="1469.22" width="26.2222" height="26.2222" fill="#3E3E3E"/>
<rect x="472.443" y="1469.22" width="26.2222" height="26.2222" fill="#1C1C1C"/>
<rect x="419.998" y="1469.22" width="26.2222" height="26.2222" fill="#D9D9D9"/>
<rect x="419.998" y="1469.22" width="26.2222" height="26.2222" fill="#3E3E3E"/>
<rect x="498.666" y="1469.22" width="26.2222" height="26.2222" fill="#D9D9D9"/>
<rect x="524.889" y="1469.22" width="26.2222" height="26.2222" fill="#D9D9D9"/>
<rect x="551.109" y="1469.22" width="26.2222" height="26.2222" fill="#D9D9D9"/>
<rect x="498.666" y="1469.22" width="26.2222" height="26.2222" fill="#3E3E3E"/>
<rect x="524.889" y="1469.22" width="26.2222" height="26.2222" fill="#3E3E3E"/>
<rect x="551.109" y="1469.22" width="26.2222" height="26.2222" fill="#1C1C1C"/>
<rect x="341.332" y="1469.22" width="26.2222" height="26.2222" fill="#D9D9D9"/>
<rect x="367.555" y="1469.22" width="26.2222" height="26.2222" fill="#D9D9D9"/>
<rect x="393.777" y="1469.22" width="26.2222" height="26.2222" fill="#D9D9D9"/>
<rect x="341.332" y="1469.22" width="26.2222" height="26.2222" fill="#121212"/>
<rect x="367.555" y="1469.22" width="26.2222" height="26.2222" fill="#313131"/>
<rect x="393.777" y="1469.22" width="26.2222" height="26.2222" fill="black"/>
<rect x="341.332" y="1469.22" width="26.2222" height="26.2222" fill="black"/>
<rect x="367.555" y="1469.22" width="26.2222" height="26.2222" fill="black"/>
<rect x="682.221" y="551.444" width="26.2222" height="52.4444" fill="#161616"/>
<rect x="708.443" y="551.444" width="236" height="288.444" fill="#262626"/>
<rect x="682.221" y="499" width="236" height="52.4444" fill="#262626"/>
<rect x="682.221" y="499" width="131.111" height="26.2213" fill="#121212"/>
<rect x="682.221" y="656.333" width="131.111" height="26.2213" fill="black"/>
<rect x="682.221" y="525.226" width="131.111" height="26.2213" fill="#242424"/>
<rect x="682.221" y="630.108" width="131.111" height="26.2213" fill="#242424"/>
<rect x="682.221" y="551.448" width="131.111" height="26.2213" fill="#333333"/>
<rect x="682.221" y="577.673" width="131.111" height="26.2213" fill="#4B4B4B"/>
<rect x="682.221" y="577.673" width="131.111" height="26.2213" fill="#4B4B4B"/>
<rect x="682.221" y="603.889" width="131.111" height="26.2213" fill="#2E2E2E"/>
<rect x="682.221" y="656.333" width="131.111" height="26.2213" fill="black"/>
<rect x="813.332" y="499" width="104.889" height="26.2213" fill="#121212"/>
<rect x="813.332" y="656.333" width="104.889" height="26.2213" fill="black"/>
<rect x="813.332" y="525.225" width="104.889" height="26.2213" fill="#242424"/>
<rect x="813.332" y="630.108" width="104.889" height="26.2213" fill="#242424"/>
<rect x="813.332" y="551.448" width="104.889" height="26.2213" fill="#333333"/>
<rect x="813.332" y="577.673" width="104.889" height="26.2213" fill="#4B4B4B"/>
<rect x="813.332" y="577.673" width="104.889" height="26.2213" fill="#4B4B4B"/>
<rect x="813.332" y="603.889" width="104.889" height="26.2213" fill="#2E2E2E"/>
<rect x="813.332" y="656.333" width="104.889" height="26.2213" fill="black"/>
<rect x="419.998" y="682.556" width="209.778" height="157.333" fill="#262626"/>
<rect x="682.221" y="970.731" width="104.888" height="26.1556" fill="black"/>
<rect x="682.221" y="944.576" width="104.888" height="26.1556" fill="#242424"/>
<rect x="682.221" y="866.111" width="104.888" height="26.1556" fill="#333333"/>
<rect x="682.221" y="892.266" width="104.888" height="26.1556" fill="#4B4B4B"/>
<rect x="682.221" y="892.266" width="104.888" height="26.1556" fill="#4B4B4B"/>
<rect x="682.221" y="918.421" width="104.888" height="26.1556" fill="#2E2E2E"/>
<rect x="682.221" y="970.731" width="104.888" height="26.1556" fill="black"/>
<rect x="787.109" y="944.778" width="157.335" height="26.2226" fill="black"/>
<rect x="787.109" y="918.555" width="157.335" height="26.2226" fill="#242424"/>
<rect x="787.109" y="839.889" width="157.335" height="26.2226" fill="#333333"/>
<rect x="787.109" y="866.111" width="157.335" height="26.2226" fill="#4B4B4B"/>
<rect x="787.109" y="866.111" width="157.335" height="26.2226" fill="#4B4B4B"/>
<rect x="787.109" y="892.333" width="157.335" height="26.2226" fill="#2E2E2E"/>
<rect x="787.109" y="944.778" width="157.335" height="26.2226" fill="black"/>
<rect x="367.555" y="918.556" width="131.111" height="26.2226" fill="black"/>
<rect x="367.555" y="892.333" width="131.111" height="26.2226" fill="#242424"/>
<rect x="367.555" y="813.667" width="131.111" height="26.2226" fill="#333333"/>
<rect x="367.555" y="839.889" width="131.111" height="26.2226" fill="#4B4B4B"/>
<rect x="367.555" y="839.889" width="131.111" height="26.2226" fill="#4B4B4B"/>
<rect x="367.555" y="866.111" width="131.111" height="26.2226" fill="#2E2E2E"/>
<rect x="367.555" y="918.556" width="131.111" height="26.2226" fill="black"/>
<rect x="498.666" y="813.667" width="288.444" height="26.2215" fill="#121212"/>
<rect x="498.666" y="971" width="288.444" height="26.2215" fill="black"/>
<rect x="498.666" y="839.892" width="288.444" height="26.2215" fill="#242424"/>
<rect x="498.666" y="944.778" width="288.444" height="26.2215" fill="#242424"/>
<rect x="498.666" y="866.111" width="288.444" height="26.2215" fill="#333333"/>
<rect x="498.666" y="892.333" width="288.444" height="26.2215" fill="#4B4B4B"/>
<rect x="498.666" y="892.333" width="288.444" height="26.2215" fill="#4B4B4B"/>
<rect x="498.666" y="918.555" width="288.444" height="26.2215" fill="#2E2E2E"/>
<rect x="498.666" y="971" width="288.444" height="26.2215" fill="black"/>
<rect x="393.777" y="656.333" width="236" height="26.2219" fill="#121212"/>
<rect x="393.777" y="813.667" width="236" height="26.2219" fill="black"/>
<rect x="393.777" y="682.556" width="236" height="26.2219" fill="#242424"/>
<rect x="393.777" y="813.667" width="236" height="26.2219" fill="black"/>
<rect x="393.777" y="656.333" width="550.666" height="26.2219" fill="#121212"/>
<rect x="393.777" y="813.667" width="550.666" height="26.2219" fill="black"/>
<rect x="393.777" y="682.556" width="550.666" height="26.2219" fill="#242424"/>
<rect x="393.777" y="787.445" width="550.666" height="26.2219" fill="#242424"/>
<rect x="393.777" y="708.775" width="550.666" height="26.2219" fill="#333333"/>
<rect x="393.777" y="735.003" width="550.666" height="26.2219" fill="#4B4B4B"/>
<rect x="393.777" y="735.003" width="550.666" height="26.2219" fill="#4B4B4B"/>
<rect x="393.777" y="761.226" width="550.666" height="26.2219" fill="#2E2E2E"/>
<rect x="393.777" y="813.667" width="550.666" height="26.2219" fill="black"/>
<rect x="682.221" y="996.889" width="157.332" height="26.2693" fill="#121212"/>
<rect x="682.221" y="1154.51" width="157.332" height="26.2693" fill="black"/>
<rect x="682.221" y="1023.16" width="157.332" height="26.2693" fill="#242424"/>
<rect x="682.221" y="1128.23" width="157.332" height="26.2693" fill="#242424"/>
<rect x="682.221" y="1049.42" width="157.332" height="26.2693" fill="#333333"/>
<rect x="682.221" y="1075.7" width="157.332" height="26.2693" fill="#4B4B4B"/>
<rect x="682.221" y="1075.7" width="157.332" height="26.2693" fill="#4B4B4B"/>
<rect x="682.221" y="1101.96" width="157.332" height="26.2693" fill="#2E2E2E"/>
<rect x="682.221" y="1154.51" width="157.332" height="26.2693" fill="black"/>
<rect x="367.555" y="971" width="131.111" height="26.2222" fill="#121212"/>
<rect x="393.777" y="1128.33" width="104.889" height="26.2222" fill="black"/>
<rect x="367.555" y="997.222" width="131.111" height="26.2222" fill="#242424"/>
<rect x="367.555" y="1102.11" width="131.111" height="26.2222" fill="#242424"/>
<rect x="367.555" y="1023.44" width="131.111" height="26.2222" fill="#333333"/>
<rect x="367.555" y="1049.67" width="131.111" height="26.2222" fill="#4B4B4B"/>
<rect x="367.555" y="1049.67" width="131.111" height="26.2222" fill="#4B4B4B"/>
<rect x="367.555" y="1075.89" width="131.111" height="26.2222" fill="#2E2E2E"/>
<rect x="393.777" y="1128.33" width="104.889" height="26.2222" fill="black"/>
<rect x="629.777" y="971" width="26.2222" height="183.556" fill="#2F2F2F"/>
<rect width="26.2222" height="26.2222" transform="matrix(-1 0 0 1 944.443 525.222)" fill="black"/>
<rect width="26.2222" height="52.4444" transform="matrix(-1 0 0 1 944.443 682.556)" fill="black"/>
<rect width="26.2222" height="52.4444" transform="matrix(-1 0 0 1 918.221 603.889)" fill="black"/>
<rect x="393.777" y="499" width="288.444" height="183.556" fill="#262626"/>
<rect x="603.555" y="603.889" width="26.2222" height="78.6667" fill="#262626"/>
<rect x="367.555" y="525.222" width="26.2222" height="236" fill="#262626"/>
<rect x="918.221" y="735" width="26.2222" height="78.6667" fill="black"/>
<rect x="393.777" y="1128.33" width="104.889" height="26.2222" fill="black"/>
<rect width="104.889" height="26.2222" transform="matrix(-1 0 0 1 787.109 1180.78)" fill="#121212"/>
<rect width="104.889" height="26.2222" transform="matrix(-1 0 0 1 787.109 1207)" fill="#242424"/>
<rect width="104.889" height="26.2222" transform="matrix(-1 0 0 1 787.109 1233.22)" fill="#333333"/>
<rect x="498.666" y="1154.56" width="104.889" height="26.2222" fill="black"/>
<rect width="131.111" height="26.2222" transform="matrix(-1 0 0 1 918.221 1128.33)" fill="black"/>
<rect width="104.889" height="26.2222" transform="matrix(-1 0 0 1 787.109 1154.56)" fill="black"/>
<rect x="393.777" y="944.778" width="104.889" height="26.2222" fill="black"/>
<rect x="498.666" y="971" width="183.556" height="26.2222" fill="black"/>
<rect width="131.111" height="26.2222" transform="matrix(-1 0 0 1 918.221 971)" fill="black"/>
<rect width="78.6667" height="26.2222" transform="matrix(-1 0 0 1 787.109 971)" fill="black"/>
<rect x="419.998" y="1469.22" width="26.2222" height="26.2222" fill="#D9D9D9"/>
<rect x="367.555" y="1469.22" width="52.4444" height="26.2222" fill="#D9D9D9"/>
<rect x="419.998" y="1469.22" width="26.2222" height="26.2222" fill="#D9D9D9"/>
<rect x="367.555" y="1469.22" width="52.4444" height="26.2222" fill="#D9D9D9"/>
<rect x="472.443" y="1469.22" width="52.4444" height="26.2222" fill="#D9D9D9"/>
<rect x="446.221" y="1469.22" width="26.2222" height="26.2222" fill="#D9D9D9"/>
<rect x="472.443" y="1469.22" width="52.4444" height="26.2222" fill="#D9D9D9"/>
<rect x="446.221" y="1469.22" width="26.2222" height="26.2222" fill="#D9D9D9"/>
<rect x="341.332" y="1469.22" width="26.2222" height="26.2222" fill="#D9D9D9"/>
<rect x="341.332" y="1469.22" width="26.2222" height="26.2222" fill="#D9D9D9"/>
<rect x="551.109" y="1469.22" width="26.2222" height="26.2222" fill="#D9D9D9"/>
<rect x="551.109" y="1469.22" width="26.2222" height="26.2222" fill="#D9D9D9"/>
<rect x="524.889" y="1469.22" width="26.2222" height="26.2222" fill="#D9D9D9"/>
<rect x="551.109" y="1469.22" width="26.2222" height="26.2222" fill="#D9D9D9"/>
<rect x="524.889" y="1469.22" width="26.2222" height="26.2222" fill="#D9D9D9"/>
<rect x="341.332" y="1521.67" width="26.2222" height="52.4444" fill="#121212"/>
<rect x="315.109" y="1469.22" width="26.2222" height="26.2222" fill="#D9D9D9"/>
<rect x="315.109" y="1469.22" width="26.2222" height="26.2222" fill="#D9D9D9"/>
<rect x="367.555" y="1469.22" width="52.4444" height="26.2222" fill="black"/>
<rect x="419.998" y="1469.22" width="26.2222" height="26.2222" fill="black"/>
<rect x="446.221" y="1469.22" width="26.2222" height="26.2222" fill="#313131"/>
<rect x="472.443" y="1469.22" width="52.4444" height="26.2222" fill="#313131"/>
<rect x="524.889" y="1469.22" width="26.2222" height="26.2222" fill="black"/>
<rect x="551.109" y="1469.22" width="26.2222" height="26.2222" fill="black"/>
<rect x="551.109" y="1469.22" width="26.2222" height="26.2222" fill="#121212"/>
<rect x="236.443" y="1338.11" width="209.778" height="26.2222" fill="black"/>
<rect x="446.221" y="1364.33" width="236" height="26.2222" fill="black"/>
<rect x="236.443" y="1364.33" width="209.778" height="26.2222" fill="#121212"/>
<rect x="446.221" y="1390.56" width="262.222" height="26.2222" fill="#121212"/>
<rect x="367.555" y="1521.67" width="78.6667" height="52.4444" fill="#121212"/>
<rect x="236.443" y="1390.56" width="209.778" height="26.2222" fill="#242424"/>
<rect x="446.221" y="1416.78" width="262.222" height="26.2222" fill="#242424"/>
<rect x="288.889" y="1495.44" width="157.333" height="26.2222" fill="#242424"/>
<rect x="446.221" y="1521.67" width="236" height="52.4444" fill="#242424"/>
<rect x="813.332" y="1469.22" width="26.2222" height="52.4444" fill="#1A1A1A"/>
<rect x="577.332" y="1469.22" width="236" height="52.4444" fill="#242424"/>
<rect x="236.443" y="1416.78" width="209.778" height="26.2222" fill="#333333"/>
<rect x="446.221" y="1443" width="236" height="26.2222" fill="#333333"/>
<rect x="236.443" y="1443" width="209.778" height="26.2222" fill="#4B4B4B"/>
<rect x="236.443" y="1443" width="209.778" height="26.2222" fill="#4B4B4B"/>
<rect x="446.221" y="1469.22" width="236" height="26.2222" fill="#4B4B4B"/>
<rect x="446.221" y="1469.22" width="236" height="26.2222" fill="#4B4B4B"/>
<rect x="262.666" y="1469.22" width="183.556" height="26.2222" fill="#2E2E2E"/>
<rect x="446.221" y="1495.44" width="131.111" height="26.2222" fill="#2E2E2E"/>
<rect x="524.889" y="1180.78" width="157.333" height="26.2222" fill="#121212"/>
<rect x="446.221" y="1338.11" width="236" height="26.2222" fill="black"/>
<rect x="524.889" y="1207" width="157.333" height="26.2222" fill="#242424"/>
<rect x="524.889" y="1311.89" width="157.333" height="26.2222" fill="#242424"/>
<rect x="524.889" y="1233.22" width="157.333" height="26.2222" fill="#333333"/>
<rect x="524.889" y="1285.67" width="157.333" height="26.2222" fill="#2E2E2E"/>
<rect x="341.332" y="1154.56" width="183.556" height="26.2222" fill="#121212"/>
<rect x="315.109" y="1311.89" width="209.778" height="26.2222" fill="black"/>
<rect x="315.109" y="1180.78" width="209.778" height="26.2222" fill="#242424"/>
<rect x="288.889" y="1285.67" width="236" height="26.2222" fill="#242424"/>
<rect x="315.109" y="1207" width="209.778" height="26.2222" fill="#333333"/>
<rect x="315.109" y="1233.22" width="209.778" height="26.2222" fill="#4B4B4B"/>
<rect x="315.109" y="1233.22" width="209.778" height="26.2222" fill="#4B4B4B"/>
<rect x="341.332" y="1259.44" width="183.556" height="26.2222" fill="#2E2E2E"/>
<rect x="524.889" y="1154.56" width="104.889" height="26.2222" fill="black"/>
<rect x="262.666" y="1311.89" width="262.222" height="26.2222" fill="black"/>
<rect width="104.889" height="26.2222" transform="matrix(-1 0 0 1 892 1128.33)" fill="black"/>
<rect width="104.889" height="26.2222" transform="matrix(-1 0 0 1 892 1128.33)" fill="black"/>
<rect width="104.889" height="26.2222" transform="matrix(-1 0 0 1 892 1128.33)" fill="black"/>
<rect width="104.889" height="26.2222" transform="matrix(-1 0 0 1 787.109 1311.89)" fill="#242424"/>
<rect width="104.889" height="26.2222" transform="matrix(-1 0 0 1 787.109 1285.67)" fill="#2E2E2E"/>
<rect width="183.556" height="26.2222" transform="matrix(-1 0 0 1 944.443 1154.56)" fill="#121212"/>
<rect width="209.778" height="26.2222" transform="matrix(-1 0 0 1 996.889 1311.89)" fill="black"/>
<rect width="183.556" height="26.2222" transform="matrix(-1 0 0 1 970.666 1180.78)" fill="#242424"/>
<rect width="236" height="26.2222" transform="matrix(-1 0 0 1 1023.11 1285.67)" fill="#242424"/>
<rect width="209.778" height="26.2222" transform="matrix(-1 0 0 1 996.889 1207)" fill="#333333"/>
<rect width="183.556" height="26.2222" transform="matrix(-1 0 0 1 970.666 1233.22)" fill="#4B4B4B"/>
<rect width="183.556" height="26.2222" transform="matrix(-1 0 0 1 970.666 1233.22)" fill="#4B4B4B"/>
<rect width="314.667" height="26.2222" transform="matrix(-1 0 0 1 996.889 1259.44)" fill="#2E2E2E"/>
<rect width="262.222" height="26.2222" transform="matrix(-1 0 0 1 1049.33 1311.89)" fill="black"/>
<rect x="787.109" y="1154.56" width="157.333" height="26.2222" fill="#121212"/>
<rect x="813.332" y="1180.78" width="131.111" height="26.2222" fill="#242424"/>
<rect x="787.109" y="1207" width="157.333" height="26.2222" fill="#333333"/>
<rect x="813.332" y="1233.22" width="131.111" height="26.2222" fill="#4B4B4B"/>
<rect x="813.332" y="1233.22" width="131.111" height="26.2222" fill="#4B4B4B"/>
<rect x="787.109" y="971" width="157.335" height="26.2219" fill="#121212"/>
<rect x="787.109" y="1128.33" width="157.335" height="26.2219" fill="black"/>
<rect x="787.109" y="997.222" width="157.335" height="26.2219" fill="#242424"/>
<rect x="787.109" y="1102.11" width="157.335" height="26.2219" fill="#242424"/>
<rect x="787.109" y="1023.44" width="157.335" height="26.2219" fill="#333333"/>
<rect x="787.109" y="1049.67" width="157.335" height="26.2219" fill="#4B4B4B"/>
<rect x="787.109" y="1049.67" width="157.335" height="26.2219" fill="#4B4B4B"/>
<rect x="787.109" y="1075.89" width="157.335" height="26.2219" fill="#2E2E2E"/>
<rect x="787.109" y="1128.33" width="157.335" height="26.2219" fill="black"/>
<rect x="393.783" y="499" width="288.436" height="26.2213" fill="#121212"/>
<rect x="393.777" y="656.333" width="288.436" height="26.2213" fill="black"/>
<rect x="393.777" y="525.226" width="288.436" height="26.2213" fill="#242424"/>
<rect x="393.777" y="630.108" width="288.436" height="26.2213" fill="#242424"/>
<rect x="393.777" y="551.448" width="288.436" height="26.2213" fill="#333333"/>
<rect x="393.777" y="577.673" width="288.436" height="26.2213" fill="#4B4B4B"/>
<rect x="393.777" y="577.673" width="288.436" height="26.2213" fill="#4B4B4B"/>
<rect x="393.777" y="603.889" width="288.436" height="26.2213" fill="#2E2E2E"/>
<rect x="393.777" y="656.333" width="288.436" height="26.2213" fill="black"/>
<rect x="393.777" y="656.333" width="104.889" height="26.2213" fill="black"/>
<rect x="393.777" y="525.225" width="104.889" height="26.2213" fill="#242424"/>
<rect x="367.555" y="656.333" width="131.111" height="26.2222" fill="black"/>
<rect width="78.6667" height="26.2222" transform="matrix(-1 0 0 1 367.555 656.333)" fill="#121212"/>
<rect width="104.889" height="26.2222" transform="matrix(-1 0 0 1 367.555 813.667)" fill="black"/>
<rect width="104.889" height="26.2222" transform="matrix(-1 0 0 1 367.555 682.556)" fill="#242424"/>
<rect width="131.111" height="26.2222" transform="matrix(-1 0 0 1 367.555 787.444)" fill="#242424"/>
<rect width="104.889" height="26.2222" transform="matrix(-1 0 0 1 367.555 708.778)" fill="#333333"/>
<rect width="131.111" height="26.2222" transform="matrix(-1 0 0 1 367.555 735)" fill="#4B4B4B"/>
<rect width="131.111" height="26.2222" transform="matrix(-1 0 0 1 367.555 735)" fill="#4B4B4B"/>
<rect width="131.111" height="26.2222" transform="matrix(-1 0 0 1 367.555 761.222)" fill="#2E2E2E"/>
<rect width="104.889" height="26.2222" transform="matrix(-1 0 0 1 367.555 813.667)" fill="black"/>
<rect x="210.221" y="787.444" width="26.2222" height="26.2222" fill="black"/>
<rect x="210.221" y="761.222" width="26.2222" height="26.2222" fill="black"/>
<rect width="26.2222" height="26.2222" transform="matrix(-1 0 0 1 236.443 735)" fill="black"/>
<rect x="341.332" y="551.444" width="26.2222" height="52.4444" fill="black"/>
<rect x="315.109" y="603.889" width="26.2222" height="26.2222" fill="black"/>
<rect x="288.889" y="630.111" width="26.2222" height="52.4444" fill="black"/>
<rect x="262.666" y="682.556" width="26.2222" height="26.2222" fill="black"/>
<rect x="236.443" y="708.778" width="26.2222" height="26.2222" fill="black"/>
<rect x="236.443" y="813.667" width="26.2222" height="26.2222" fill="black"/>
<rect x="262.666" y="839.889" width="104.889" height="26.2222" fill="black"/>
<rect width="104.889" height="26.2222" transform="matrix(-1 0 0 1 367.555 813.667)" fill="#171717"/>
<rect width="26.2222" height="78.6667" transform="matrix(-1 0 0 1 367.555 603.889)" fill="#313131"/>
<rect width="26.2222" height="52.4444" transform="matrix(-1 0 0 1 341.332 630.111)" fill="#313131"/>
<rect x="367.555" y="525.222" width="26.2222" height="26.2222" fill="#2B2B2B"/>
<rect x="367.555" y="577.667" width="26.2222" height="26.2222" fill="#3D3D3D"/>
<rect x="393.777" y="525.222" width="26.2222" height="26.2222" fill="black"/>
<rect x="682.221" y="971" width="26.2222" height="26.2222" fill="black"/>
<rect x="734.666" y="971" width="26.2222" height="26.2222" fill="black"/>
<rect x="656" y="813.667" width="26.2222" height="26.2222" fill="black"/>
<rect x="577.332" y="656.333" width="26.2222" height="26.2222" fill="black"/>
<rect x="918.221" y="971" width="26.2222" height="26.2222" fill="black"/>
<rect opacity="0.57" x="288.889" y="1495.44" width="26.2222" height="26.2222" fill="black"/>
<rect x="315.109" y="1521.67" width="26.2222" height="26.2222" fill="black"/>
<rect x="419.998" y="315.445" width="288.444" height="26.2222" fill="black"/>
<rect x="419.998" y="341.667" width="288.444" height="26.2222" fill="#323232"/>
<rect x="419.998" y="472.778" width="288.444" height="26.2222" fill="#323232"/>
<rect x="393.777" y="341.667" width="26.2222" height="26.2222" fill="black"/>
<rect x="367.555" y="367.889" width="26.2222" height="26.2222" fill="black"/>
<rect width="26.2222" height="26.2222" transform="matrix(-1 0 0 1 734.666 341.667)" fill="#2B2B2B"/>
<rect width="26.2222" height="26.2222" transform="matrix(-1 0 0 1 760.889 367.889)" fill="#2B2B2B"/>
<rect width="52.4444" height="26.2222" transform="matrix(-1 0 0 1 813.332 394.111)" fill="#2B2B2B"/>
<rect x="341.332" y="394.111" width="26.2222" height="52.4444" fill="black"/>
<rect x="367.555" y="446.556" width="26.2222" height="26.2222" fill="black"/>
<rect x="393.777" y="472.778" width="26.2222" height="26.2222" fill="black"/>
<rect x="419.998" y="499" width="288.444" height="26.2222" fill="black"/>
<rect x="813.332" y="420.333" width="26.2222" height="26.2222" fill="#2B2B2B"/>
<rect x="708.443" y="472.778" width="52.4444" height="26.2222" fill="#2B2B2B"/>
<rect x="760.889" y="446.556" width="52.4444" height="26.2222" fill="#2B2B2B"/>
<rect x="393.777" y="446.556" width="26.2222" height="26.2222" fill="#474747"/>
<rect x="393.777" y="367.889" width="26.2222" height="26.2222" fill="#474747"/>
<rect x="734.666" y="446.556" width="26.2222" height="26.2222" fill="#474747"/>
<rect x="708.443" y="367.889" width="26.2222" height="26.2222" fill="#474747"/>
<rect x="367.555" y="394.111" width="26.2222" height="52.4444" fill="#5A5959"/>
<rect x="734.666" y="394.111" width="26.2222" height="52.4444" fill="#5A5959"/>
<rect x="813.332" y="420.333" width="26.2222" height="52.4444" transform="rotate(90 813.332 420.333)" fill="#5A5959"/>
<rect x="419.998" y="446.556" width="314.667" height="26.2222" fill="#565656"/>
<rect x="393.777" y="420.333" width="340.889" height="26.2222" fill="#626262"/>
<rect x="393.777" y="394.111" width="340.889" height="26.2222" fill="#838383"/>
<rect x="419.998" y="367.889" width="288.444" height="26.2222" fill="#565656"/>
<rect x="760.889" y="472.778" width="104.889" height="26.2222" fill="#2C2C2C"/>
<rect x="813.332" y="446.556" width="26.2222" height="26.2222" fill="#1D1D1D"/>
<rect x="498.666" y="996.889" width="183.556" height="26.2693" fill="#121212"/>
<rect x="498.666" y="1154.51" width="183.556" height="26.2693" fill="black"/>
<rect x="498.666" y="1023.16" width="183.556" height="26.2693" fill="#242424"/>
<rect x="498.666" y="1128.23" width="183.556" height="26.2693" fill="#242424"/>
<rect x="498.666" y="1049.42" width="183.556" height="26.2693" fill="#333333"/>
<rect x="498.666" y="1075.7" width="183.556" height="26.2693" fill="#4B4B4B"/>
<rect x="498.666" y="1075.7" width="183.556" height="26.2693" fill="#4B4B4B"/>
<rect x="498.666" y="1101.96" width="183.556" height="26.2693" fill="#2E2E2E"/>
<rect x="498.666" y="1154.51" width="183.556" height="26.2693" fill="black"/>
<rect x="367.555" y="813.667" width="26.2222" height="131.111" fill="black"/>
<rect x="367.555" y="682.556" width="26.2222" height="131.111" fill="black"/>
<rect x="367.555" y="525.222" width="26.2222" height="131.111" fill="black"/>
<rect x="787.109" y="839.889" width="157.333" height="26.2222" fill="#252525"/>
<rect x="524.889" y="1259.44" width="262.222" height="26.2222" fill="#4B4B4B"/>
<rect x="524.889" y="1259.44" width="262.222" height="26.2222" fill="#4B4B4B"/>
<rect width="104.889" height="26.2222" transform="matrix(-1 0 0 1 787.109 1154.56)" fill="black"/>
<rect x="970.666" y="1390.56" width="78.6667" height="52.4444" fill="#191919"/>
<rect x="734.666" y="1364.33" width="26.2222" height="26.2222" fill="#D9D9D9"/>
<rect x="760.889" y="1364.33" width="26.2222" height="26.2222" fill="#D9D9D9"/>
<rect x="787.109" y="1364.33" width="26.2222" height="26.2222" fill="#D9D9D9"/>
<rect x="813.332" y="1364.33" width="26.2222" height="26.2222" fill="#D9D9D9"/>
<rect x="734.666" y="1364.33" width="26.2222" height="26.2222" fill="#121212"/>
<rect x="760.889" y="1364.33" width="26.2222" height="26.2222" fill="#313131"/>
<rect x="787.109" y="1364.33" width="26.2222" height="26.2222" fill="black"/>
<rect x="813.332" y="1364.33" width="26.2222" height="26.2222" fill="#121212"/>
<rect x="839.555" y="1364.33" width="26.2222" height="26.2222" fill="#D9D9D9"/>
<rect x="839.555" y="1364.33" width="26.2222" height="26.2222" fill="#121212"/>
<rect x="865.777" y="1364.33" width="26.2222" height="26.2222" fill="#D9D9D9"/>
<rect x="865.777" y="1364.33" width="26.2222" height="26.2222" fill="#1A1A1A"/>
<rect width="157.333" height="26.2222" transform="matrix(-1 0 0 1 1049.33 1364.33)" fill="#1A1A1A"/>
<rect x="892" y="1364.33" width="26.2222" height="26.2222" fill="#1A1A1A"/>
<rect x="892" y="1364.33" width="26.2222" height="26.2222" fill="#1A1A1A"/>
<rect width="26.2222" height="26.2222" transform="matrix(-1 0 0 1 865.777 1364.33)" fill="#D9D9D9"/>
<rect width="52.4444" height="26.2222" transform="matrix(-1 0 0 1 918.221 1364.33)" fill="#D9D9D9"/>
<rect width="26.2222" height="26.2222" transform="matrix(-1 0 0 1 865.777 1364.33)" fill="#D9D9D9"/>
<rect width="52.4444" height="26.2222" transform="matrix(-1 0 0 1 918.221 1364.33)" fill="#D9D9D9"/>
<rect width="52.4444" height="26.2222" transform="matrix(-1 0 0 1 813.332 1364.33)" fill="#D9D9D9"/>
<rect width="26.2222" height="26.2222" transform="matrix(-1 0 0 1 839.555 1364.33)" fill="#D9D9D9"/>
<rect width="52.4444" height="26.2222" transform="matrix(-1 0 0 1 813.332 1364.33)" fill="#D9D9D9"/>
<rect width="26.2222" height="26.2222" transform="matrix(-1 0 0 1 839.555 1364.33)" fill="#D9D9D9"/>
<rect width="26.2222" height="26.2222" transform="matrix(-1 0 0 1 944.443 1364.33)" fill="#D9D9D9"/>
<rect width="26.2222" height="26.2222" transform="matrix(-1 0 0 1 944.443 1364.33)" fill="#D9D9D9"/>
<rect width="26.2222" height="26.2222" transform="matrix(-1 0 0 1 760.889 1364.33)" fill="#D9D9D9"/>
<rect width="26.2222" height="26.2222" transform="matrix(-1 0 0 1 760.889 1364.33)" fill="#D9D9D9"/>
<rect width="52.4444" height="52.4444" transform="matrix(-1 0 0 1 970.666 1416.78)" fill="#121212"/>
<rect width="26.2222" height="26.2222" transform="matrix(-1 0 0 1 970.666 1364.33)" fill="#D9D9D9"/>
<rect width="26.2222" height="26.2222" transform="matrix(-1 0 0 1 970.666 1364.33)" fill="#D9D9D9"/>
<rect width="52.4444" height="26.2222" transform="matrix(-1 0 0 1 918.221 1364.33)" fill="black"/>
<rect width="26.2222" height="26.2222" transform="matrix(-1 0 0 1 865.777 1364.33)" fill="black"/>
<rect width="26.2222" height="26.2222" transform="matrix(-1 0 0 1 839.555 1364.33)" fill="#313131"/>
<rect width="52.4444" height="26.2222" transform="matrix(-1 0 0 1 813.332 1364.33)" fill="#313131"/>
<rect width="26.2222" height="26.2222" transform="matrix(-1 0 0 1 760.889 1364.33)" fill="black"/>
<rect width="183.556" height="26.2222" transform="matrix(-1 0 0 1 1023.11 1233.22)" fill="black"/>
<rect width="131.111" height="26.2222" transform="matrix(-1 0 0 1 839.555 1259.44)" fill="black"/>
<rect width="209.778" height="26.2222" transform="matrix(-1 0 0 1 1049.33 1259.44)" fill="#121212"/>
<rect width="131.111" height="26.2222" transform="matrix(-1 0 0 1 839.555 1285.67)" fill="#121212"/>
<rect width="78.6667" height="52.4444" transform="matrix(-1 0 0 1 918.221 1416.78)" fill="#121212"/>
<rect width="209.778" height="26.2222" transform="matrix(-1 0 0 1 1049.33 1285.67)" fill="#242424"/>
<rect width="131.111" height="26.2222" transform="matrix(-1 0 0 1 839.555 1311.89)" fill="#242424"/>
<rect width="157.333" height="26.2222" transform="matrix(-1 0 0 1 996.889 1390.56)" fill="#242424"/>
<rect width="157.333" height="52.4444" transform="matrix(-1 0 0 1 839.555 1416.78)" fill="#242424"/>
<rect width="209.778" height="26.2222" transform="matrix(-1 0 0 1 1049.33 1311.89)" fill="#333333"/>
<rect width="157.333" height="26.2222" transform="matrix(-1 0 0 1 839.555 1338.11)" fill="#333333"/>
<rect width="209.778" height="26.2222" transform="matrix(-1 0 0 1 1049.33 1338.11)" fill="#4B4B4B"/>
<rect width="209.778" height="26.2222" transform="matrix(-1 0 0 1 1049.33 1338.11)" fill="#4B4B4B"/>
<rect width="157.333" height="26.2222" transform="matrix(-1 0 0 1 839.555 1364.33)" fill="#4B4B4B"/>
<rect width="157.333" height="26.2222" transform="matrix(-1 0 0 1 839.555 1364.33)" fill="#4B4B4B"/>
<rect width="183.556" height="26.2222" transform="matrix(-1 0 0 1 1023.11 1364.33)" fill="#2E2E2E"/>
<rect width="157.333" height="26.2222" transform="matrix(-1 0 0 1 839.555 1390.56)" fill="#2E2E2E"/>
<rect width="131.111" height="26.2222" transform="matrix(-1 0 0 1 839.555 1233.22)" fill="black"/>
<rect opacity="0.57" x="996.889" y="1390.56" width="26.2222" height="26.2222" fill="black"/>
<rect opacity="0.57" x="1023.11" y="1364.33" width="26.2222" height="26.2222" fill="black"/>
<rect x="682.221" y="1600.33" width="104.889" height="26.2222" fill="#191919"/>
<rect x="970.666" y="1443" width="157.333" height="52.4444" fill="#191919"/>
<rect x="970.666" y="1443" width="183.556" height="26.2222" fill="#191919"/>
<rect x="813.332" y="1495.44" width="183.556" height="52.4444" fill="#191919"/>
<rect x="813.332" y="1495.44" width="262.222" height="26.2222" fill="#191919"/>
<rect x="682.221" y="1547.89" width="236" height="26.2222" fill="#191919"/>
<rect x="682.221" y="1574.11" width="183.556" height="26.2222" fill="#191919"/>
<rect x="446.221" y="1574.11" width="236" height="26.2222" fill="black"/>
<rect x="682.221" y="1521.67" width="131.111" height="26.2222" fill="#0D0D0D"/>
<rect x="813.332" y="1469.22" width="157.333" height="26.2222" fill="#0D0D0D"/>
<rect width="26.2222" height="26.2222" transform="matrix(-1 0 0 1 918.221 499)" fill="black"/>
<rect width="26.2222" height="26.2222" transform="matrix(-1 0 0 1 892 525.222)" fill="black"/>
<rect width="26.2222" height="26.2222" transform="matrix(-1 0 0 1 865.777 551.444)" fill="black"/>
<rect width="26.2222" height="26.2222" transform="matrix(-1 0 0 1 839.555 577.667)" fill="black"/>
<rect width="26.2222" height="26.2222" transform="matrix(-1 0 0 1 603.555 944.778)" fill="black"/>
<rect width="26.2222" height="26.2222" transform="matrix(-1 0 0 1 629.777 918.556)" fill="black"/>
<rect width="26.2222" height="26.2222" transform="matrix(-1 0 0 1 629.777 892.333)" fill="black"/>
<rect width="26.2222" height="26.2222" transform="matrix(-1 0 0 1 656 866.111)" fill="black"/>
<rect width="26.2222" height="26.2222" transform="matrix(-1 0 0 1 682.221 839.889)" fill="black"/>
<rect width="26.2222" height="26.2222" transform="matrix(-1 0 0 1 682.221 813.667)" fill="black"/>
<rect width="26.2222" height="26.2222" transform="matrix(-1 0 0 1 682.221 787.444)" fill="black"/>
<rect width="26.2222" height="52.4444" transform="matrix(-1 0 0 1 708.443 735)" fill="black"/>
<rect width="26.2222" height="26.2222" transform="matrix(-1 0 0 1 734.666 708.778)" fill="black"/>
<rect width="26.2222" height="26.2222" transform="matrix(-1 0 0 1 760.889 682.556)" fill="black"/>
<rect width="26.2222" height="26.2222" transform="matrix(-1 0 0 1 760.889 656.333)" fill="black"/>
<rect width="26.2222" height="26.2222" transform="matrix(-1 0 0 1 787.109 630.111)" fill="black"/>
<rect width="26.2222" height="26.2222" transform="matrix(-1 0 0 1 813.332 603.889)" fill="black"/>
<rect width="26.2222" height="26.2222" transform="matrix(-1 0 0 1 865.777 499)" fill="black"/>
<rect width="26.2222" height="26.2222" transform="matrix(-1 0 0 1 839.555 525.222)" fill="black"/>
<rect width="26.2222" height="26.2222" transform="matrix(-1 0 0 1 813.332 551.444)" fill="black"/>
<rect width="26.2222" height="26.2222" transform="matrix(-1 0 0 1 787.109 577.667)" fill="black"/>
<rect width="26.2222" height="26.2222" transform="matrix(-1 0 0 1 551.109 944.778)" fill="black"/>
<rect width="26.2222" height="26.2222" transform="matrix(-1 0 0 1 577.332 892.333)" fill="black"/>
<rect width="26.2222" height="26.2222" transform="matrix(-1 0 0 1 603.555 866.111)" fill="black"/>
<rect width="26.2222" height="26.2222" transform="matrix(-1 0 0 1 629.777 839.889)" fill="black"/>
<rect width="26.2222" height="26.2222" transform="matrix(-1 0 0 1 629.777 813.667)" fill="black"/>
<rect width="26.2222" height="26.2222" transform="matrix(-1 0 0 1 629.777 787.444)" fill="black"/>
<rect width="26.2222" height="52.4444" transform="matrix(-1 0 0 1 656 735)" fill="black"/>
<rect width="26.2222" height="26.2222" transform="matrix(-1 0 0 1 682.221 708.778)" fill="black"/>
<rect width="26.2222" height="26.2222" transform="matrix(-1 0 0 1 708.443 682.556)" fill="black"/>
<rect width="26.2222" height="26.2222" transform="matrix(-1 0 0 1 708.443 656.333)" fill="black"/>
<rect width="26.2222" height="26.2222" transform="matrix(-1 0 0 1 734.666 630.111)" fill="black"/>
<rect width="26.2222" height="26.2222" transform="matrix(-1 0 0 1 760.889 603.889)" fill="black"/>
<rect width="26.2222" height="26.2222" transform="matrix(-1 0 0 1 892 499)" fill="black"/>
<rect width="26.2222" height="26.2222" transform="matrix(-1 0 0 1 865.777 525.222)" fill="black"/>
<rect width="26.2222" height="26.2222" transform="matrix(-1 0 0 1 839.555 551.444)" fill="black"/>
<rect width="26.2222" height="26.2222" transform="matrix(-1 0 0 1 813.332 577.667)" fill="black"/>
<rect width="26.2222" height="26.2222" transform="matrix(-1 0 0 1 577.332 944.778)" fill="black"/>
<rect width="52.4444" height="26.2222" transform="matrix(-1 0 0 1 603.555 918.556)" fill="black"/>
<rect width="26.2222" height="26.2222" transform="matrix(-1 0 0 1 603.555 892.333)" fill="black"/>
<rect width="26.2222" height="26.2222" transform="matrix(-1 0 0 1 629.777 866.111)" fill="black"/>
<rect width="26.2222" height="26.2222" transform="matrix(-1 0 0 1 656 839.889)" fill="black"/>
<rect width="26.2222" height="26.2222" transform="matrix(-1 0 0 1 656 813.667)" fill="black"/>
<rect width="26.2222" height="26.2222" transform="matrix(-1 0 0 1 656 787.444)" fill="black"/>
<rect width="26.2222" height="52.4444" transform="matrix(-1 0 0 1 682.221 735)" fill="black"/>
<rect width="26.2222" height="26.2222" transform="matrix(-1 0 0 1 708.443 708.778)" fill="black"/>
<rect width="26.2222" height="26.2222" transform="matrix(-1 0 0 1 734.666 682.556)" fill="black"/>
<rect width="26.2222" height="26.2222" transform="matrix(-1 0 0 1 734.666 656.333)" fill="black"/>
<rect width="26.2222" height="26.2222" transform="matrix(-1 0 0 1 760.889 630.111)" fill="black"/>
<rect width="26.2222" height="26.2222" transform="matrix(-1 0 0 1 787.109 603.889)" fill="black"/>
<rect width="26.2222" height="26.2222" transform="matrix(-1 0 0 1 603.555 944.778)" fill="black"/>
<rect width="26.2222" height="26.2222" transform="matrix(-1 0 0 1 577.332 971)" fill="black"/>
<rect width="26.2222" height="26.2222" transform="matrix(-1 0 0 1 551.109 997.222)" fill="black"/>
<rect width="26.2222" height="26.2222" transform="matrix(-1 0 0 1 524.889 1023.44)" fill="black"/>
<rect width="26.2222" height="52.4444" transform="matrix(-1 0 0 1 315.109 1180.78)" fill="black"/>
<rect width="26.2222" height="26.2222" transform="matrix(-1 0 0 1 341.332 1154.56)" fill="black"/>
<rect width="26.2222" height="26.2222" transform="matrix(-1 0 0 1 446.221 1102.11)" fill="black"/>
<rect width="26.2222" height="26.2222" transform="matrix(-1 0 0 1 472.443 1075.89)" fill="black"/>
<rect width="26.2222" height="26.2222" transform="matrix(-1 0 0 1 498.666 1049.67)" fill="black"/>
<rect width="26.2222" height="26.2222" transform="matrix(-1 0 0 1 551.109 944.778)" fill="black"/>
<rect width="26.2222" height="26.2222" transform="matrix(-1 0 0 1 524.889 971)" fill="black"/>
<rect width="26.2222" height="26.2222" transform="matrix(-1 0 0 1 498.666 997.222)" fill="black"/>
<rect width="26.2222" height="26.2222" transform="matrix(-1 0 0 1 472.443 1023.44)" fill="black"/>
<rect width="26.2222" height="52.4444" transform="matrix(-1 0 0 1 341.332 1180.78)" fill="black"/>
<rect width="26.2222" height="26.2222" transform="matrix(-1 0 0 1 367.555 1154.56)" fill="black"/>
<rect width="26.2222" height="26.2222" transform="matrix(-1 0 0 1 367.555 1128.33)" fill="black"/>
<rect width="26.2222" height="26.2222" transform="matrix(-1 0 0 1 393.777 1128.33)" fill="black"/>
<rect width="26.2222" height="26.2222" transform="matrix(-1 0 0 1 393.777 1102.11)" fill="black"/>
<rect width="26.2222" height="26.2222" transform="matrix(-1 0 0 1 419.998 1075.89)" fill="black"/>
<rect width="26.2222" height="26.2222" transform="matrix(-1 0 0 1 446.221 1049.67)" fill="black"/>
<rect width="26.2222" height="26.2222" transform="matrix(-1 0 0 1 577.332 944.778)" fill="black"/>
<rect width="26.2222" height="26.2222" transform="matrix(-1 0 0 1 551.109 971)" fill="black"/>
<rect width="26.2222" height="26.2222" transform="matrix(-1 0 0 1 524.889 997.222)" fill="black"/>
<rect width="26.2222" height="26.2222" transform="matrix(-1 0 0 1 498.666 1023.44)" fill="black"/>
<rect width="26.2222" height="26.2222" transform="matrix(-1 0 0 1 393.777 1154.56)" fill="black"/>
<rect width="26.2222" height="26.2222" transform="matrix(-1 0 0 1 419.998 1128.33)" fill="black"/>
<rect width="26.2222" height="26.2222" transform="matrix(-1 0 0 1 419.998 1102.11)" fill="black"/>
<rect width="26.2222" height="26.2222" transform="matrix(-1 0 0 1 446.221 1075.89)" fill="black"/>
<rect width="26.2222" height="26.2222" transform="matrix(-1 0 0 1 472.443 1049.67)" fill="black"/>
<rect x="315.109" y="1075.89" width="26.2222" height="78.6667" fill="#654E24"/>
<rect x="341.332" y="1075.89" width="26.2222" height="52.4444" fill="#654E24"/>
<rect x="183.998" y="1810.11" width="52.4444" height="26.2222" fill="black"/>
<rect width="52.4444" height="26.2222" transform="matrix(-1 0 0 1 52.8887 1993.67)" fill="#6B7EBA"/>
<rect width="52.4444" height="52.4444" transform="matrix(-1 0 0 1 157.777 1967.44)" fill="#212121"/>
<rect width="26.2222" height="52.4444" transform="matrix(-1 0 0 1 105.332 2019.89)" fill="#212121"/>
<rect width="26.2222" height="26.2222" transform="matrix(-1 0 0 1 79.1094 1967.44)" fill="#212121"/>
<rect width="26.2222" height="26.2222" transform="matrix(-1 0 0 1 26.666 2046.11)" fill="#212121"/>
<rect width="26.2222" height="26.2222" transform="matrix(-1 0 0 1 52.8887 2019.89)" fill="#212121"/>
<rect width="26.2222" height="26.2222" transform="matrix(-1 0 0 1 79.1094 2019.89)" fill="#141414"/>
<rect x="105.332" y="1967.44" width="52.4444" height="26.2222" transform="rotate(90 105.332 1967.44)" fill="#2C4DB3"/>
<rect width="26.2222" height="26.2222" transform="matrix(-1 0 0 1 79.1094 1993.67)" fill="#476EE7"/>
<rect width="52.4444" height="26.2222" transform="matrix(-1 0 0 1 52.8887 1993.67)" fill="#476EE7"/>
<rect width="52.4444" height="26.2222" transform="matrix(-1 0 0 1 52.8887 2019.89)" fill="#6B7EBA"/>
<rect width="52.4444" height="52.4444" transform="matrix(-1 0 0 1 157.777 1993.67)" fill="#212121"/>
<rect width="26.2222" height="26.2222" transform="matrix(-1 0 0 1 79.1094 2046.11)" fill="#2C4DB3"/>
<rect width="26.2222" height="26.2222" transform="matrix(-1 0 0 1 26.666 2019.89)" fill="#476EE7"/>
<rect width="78.6667" height="26.2222" transform="matrix(-1 0 0 1 157.777 2046.11)" fill="#EDD130"/>
<rect width="26.2222" height="26.2222" transform="matrix(-1 0 0 1 157.777 2046.11)" fill="#C5AB19"/>
<rect width="26.2222" height="26.2222" transform="matrix(-1 0 0 1 105.332 2046.11)" fill="#212121"/>
<rect width="26.2222" height="26.2222" transform="matrix(-1 0 0 1 52.8887 1967.44)" fill="#5E81EF"/>
<rect width="52.4444" height="26.2222" transform="matrix(-1 0 0 1 79.1094 2046.11)" fill="#212121"/>
<rect x="52.8887" y="1941.22" width="52.4444" height="26.2222" fill="#5E81EF"/>
<rect x="105.332" y="1941.22" width="52.4444" height="26.2222" fill="#323232"/>
<rect x="79.1094" y="1888.78" width="78.6667" height="26.2222" fill="#515151"/>
<rect x="131.555" y="1915" width="26.2222" height="26.2222" fill="#515151"/>
<rect width="52.4444" height="26.2222" transform="matrix(-1 0 0 1 79.1094 2046.11)" fill="#EDD130"/>
<rect x="26.666" y="2046.11" width="26.2222" height="26.2222" fill="#FFE23F"/>
<rect width="26.2222" height="26.2222" transform="matrix(-1 0 0 1 26.666 1993.67)" fill="#212121"/>
<rect width="26.2222" height="26.2222" transform="matrix(-1 0 0 1 52.8887 1993.67)" fill="#2983E4"/>
<rect width="26.2222" height="26.2222" transform="matrix(-1 0 0 1 26.666 1993.67)" fill="#008FDC"/>
<rect width="26.2222" height="26.2222" transform="matrix(-1 0 0 1 52.8887 1967.44)" fill="#428CDC"/>
<rect width="26.2222" height="26.2222" transform="matrix(-1 0 0 1 52.8887 2019.89)" fill="#2983E4"/>
<rect width="26.2222" height="26.2222" transform="matrix(-1 0 0 1 26.666 2019.89)" fill="#146CC9"/>
<rect x="79.1094" y="1915" width="52.4444" height="26.2222" fill="#5E81EF"/>
</svg>
